{"glyphs":{"0":{"ha":892,"x_min":111,"x_max":781,"o":"m 111 486 q 153 752 111 639 q 270 928 194 865 q 446 992 346 992 q 622 928 547 992 q 739 752 697 865 q 781 486 781 639 q 739 221 781 335 q 622 44 697 107 q 446 -19 547 -19 q 270 44 346 -19 q 153 221 194 107 q 111 486 111 335 m 214 486 q 275 137 214 260 q 446 14 336 14 q 617 137 557 14 q 678 486 678 260 q 617 835 678 713 q 446 958 556 958 q 275 835 336 958 q 214 486 214 713 z "},"1":{"ha":540,"x_min":53,"x_max":360,"o":"m 265 0 l 265 892 l 64 797 l 53 819 l 332 992 l 360 992 l 360 0 l 265 0 z "},"2":{"ha":744,"x_min":64,"x_max":661,"o":"m 64 0 l 64 25 l 413 475 q 532 757 532 629 q 482 904 532 850 q 350 958 432 958 q 233 931 293 958 q 126 857 174 904 l 118 857 l 111 932 q 223 976 160 960 q 350 992 286 992 q 556 930 478 992 q 635 765 635 868 q 596 624 635 701 q 461 438 557 547 l 153 83 l 661 83 l 661 0 l 64 0 z "},"3":{"ha":740,"x_min":69,"x_max":636,"o":"m 272 517 l 242 517 l 242 550 l 267 550 q 431 602 371 550 q 492 756 492 654 q 442 903 492 849 q 311 958 393 958 q 199 935 257 958 q 100 871 140 911 l 92 871 l 85 944 q 190 978 129 965 q 311 992 251 992 q 515 928 439 992 q 592 763 592 865 q 539 621 592 679 q 386 539 486 563 l 386 531 q 570 437 504 508 q 636 260 636 365 q 595 113 636 175 q 481 15 554 50 q 311 -19 408 -19 q 189 -6 251 -19 q 78 31 126 8 l 69 114 l 78 114 q 190 40 129 65 q 311 14 250 14 q 473 82 413 14 q 533 264 533 150 q 463 448 533 379 q 272 517 392 517 z "},"4":{"ha":789,"x_min":47,"x_max":742,"o":"m 47 272 l 47 300 l 417 972 l 522 972 l 89 306 l 481 306 l 481 597 l 572 597 l 572 306 l 742 306 l 742 272 l 572 272 l 572 0 l 481 0 l 481 272 l 47 272 z "},"5":{"ha":724,"x_min":76,"x_max":633,"o":"m 85 114 q 203 42 139 71 q 333 14 267 14 q 492 79 432 14 q 553 251 553 144 q 488 433 553 358 q 308 531 424 508 l 132 564 l 172 972 l 594 972 l 594 889 l 199 889 l 175 649 l 333 618 q 555 503 476 592 q 633 285 633 414 q 596 126 633 194 q 491 19 558 57 q 335 -19 424 -19 q 215 -6 279 -19 q 85 31 151 8 l 76 114 l 85 114 z "},"6":{"ha":818,"x_min":103,"x_max":732,"o":"m 433 -19 q 258 30 332 -19 q 143 171 183 79 q 103 388 103 263 q 140 617 103 511 q 247 803 178 722 q 409 933 315 883 q 614 992 503 982 l 617 967 q 406 878 499 953 q 259 681 313 804 q 206 394 206 558 q 267 116 206 218 q 433 14 329 14 q 575 83 521 14 q 629 267 629 153 q 575 454 629 385 q 429 524 521 524 q 294 489 361 524 l 282 511 q 464 563 372 563 q 604 527 544 563 q 698 428 664 492 q 732 278 732 364 q 694 122 732 189 q 590 18 657 56 q 433 -19 522 -19 z "},"7":{"ha":714,"x_min":47,"x_max":644,"o":"m 47 889 l 47 972 l 644 972 l 644 944 l 271 0 l 168 0 l 583 889 l 47 889 z "},"8":{"ha":833,"x_min":104,"x_max":729,"o":"m 729 235 q 690 101 729 158 q 581 13 651 44 q 417 -19 511 -19 q 190 46 275 -19 q 104 218 104 111 q 171 389 104 313 q 351 503 238 465 q 192 629 240 569 q 143 765 143 689 q 219 930 143 868 q 417 992 294 992 q 560 965 499 992 q 656 891 621 939 q 690 781 690 843 q 639 640 690 704 q 494 535 588 576 q 637 430 586 479 q 708 333 688 381 q 729 235 729 285 m 226 796 q 251 710 226 747 q 329 635 276 672 q 465 551 382 599 q 566 641 529 583 q 603 775 603 699 q 553 910 603 863 q 417 958 503 958 q 279 914 332 958 q 226 796 226 869 m 194 224 q 254 70 194 126 q 417 14 314 14 q 581 66 518 14 q 643 206 643 118 q 619 297 643 254 q 539 383 596 339 q 383 485 482 428 q 244 380 293 447 q 194 224 194 313 z "},"9":{"ha":814,"x_min":86,"x_max":711,"o":"m 228 -19 l 225 6 q 429 100 343 21 q 562 304 515 179 q 608 578 608 429 q 547 856 608 754 q 383 958 486 958 q 242 891 296 958 q 189 713 189 824 q 242 531 189 599 q 386 463 296 463 q 519 497 453 463 l 532 475 q 351 424 442 424 q 213 458 272 424 q 119 556 153 493 q 86 701 86 618 q 124 854 86 789 q 228 956 161 919 q 383 992 294 992 q 558 942 485 992 q 672 802 632 893 q 711 585 711 711 q 678 368 711 472 q 581 180 644 264 q 428 43 518 96 q 228 -19 339 -10 z "},"A":{"ha":914,"x_min":36,"x_max":869,"o":"m 36 0 l 410 972 l 496 972 l 869 0 l 768 0 l 596 456 l 281 456 l 138 0 l 36 0 m 419 900 l 290 489 l 583 489 l 428 900 l 419 900 z "},"a":{"ha":914,"x_min":36,"x_max":869,"o":"m 36 0 l 410 972 l 496 972 l 869 0 l 768 0 l 596 456 l 281 456 l 138 0 l 36 0 m 419 900 l 290 489 l 583 489 l 428 900 l 419 900 z "},"Á":{"ha":914,"x_min":36,"x_max":869,"o":"m 36 0 l 410 972 l 496 972 l 869 0 l 768 0 l 596 456 l 281 456 l 138 0 l 36 0 m 419 900 l 290 489 l 583 489 l 428 900 l 419 900 m 372 1076 l 507 1246 l 632 1246 l 632 1238 l 390 1060 l 372 1076 z "},"á":{"ha":914,"x_min":36,"x_max":869,"o":"m 36 0 l 410 972 l 496 972 l 869 0 l 768 0 l 596 456 l 281 456 l 138 0 l 36 0 m 419 900 l 290 489 l 583 489 l 428 900 l 419 900 m 372 1076 l 507 1246 l 632 1246 l 632 1238 l 390 1060 l 372 1076 z "},"Ă":{"ha":914,"x_min":36,"x_max":869,"o":"m 36 0 l 410 972 l 496 972 l 869 0 l 768 0 l 596 456 l 281 456 l 138 0 l 36 0 m 419 900 l 290 489 l 583 489 l 428 900 l 419 900 m 457 1079 q 344 1126 390 1079 q 278 1258 297 1174 l 301 1267 q 371 1183 336 1207 q 457 1160 406 1160 q 544 1183 510 1160 q 613 1267 578 1207 l 636 1258 q 571 1126 618 1174 q 457 1079 524 1079 z "},"ă":{"ha":914,"x_min":36,"x_max":869,"o":"m 36 0 l 410 972 l 496 972 l 869 0 l 768 0 l 596 456 l 281 456 l 138 0 l 36 0 m 419 900 l 290 489 l 583 489 l 428 900 l 419 900 m 457 1079 q 344 1126 390 1079 q 278 1258 297 1174 l 301 1267 q 371 1183 336 1207 q 457 1160 406 1160 q 544 1183 510 1160 q 613 1267 578 1207 l 636 1258 q 571 1126 618 1174 q 457 1079 524 1079 z "},"Ǎ":{"ha":914,"x_min":36,"x_max":869,"o":"m 36 0 l 410 972 l 496 972 l 869 0 l 768 0 l 596 456 l 281 456 l 138 0 l 36 0 m 419 900 l 290 489 l 583 489 l 428 900 l 419 900 m 439 1078 l 271 1258 l 289 1275 l 457 1164 l 625 1275 l 643 1258 l 475 1078 l 439 1078 z "},"ǎ":{"ha":914,"x_min":36,"x_max":869,"o":"m 36 0 l 410 972 l 496 972 l 869 0 l 768 0 l 596 456 l 281 456 l 138 0 l 36 0 m 419 900 l 290 489 l 583 489 l 428 900 l 419 900 m 439 1078 l 271 1258 l 289 1275 l 457 1164 l 625 1275 l 643 1258 l 475 1078 l 439 1078 z "},"Â":{"ha":914,"x_min":36,"x_max":869,"o":"m 36 0 l 410 972 l 496 972 l 869 0 l 768 0 l 596 456 l 281 456 l 138 0 l 36 0 m 419 900 l 290 489 l 583 489 l 428 900 l 419 900 m 475 1257 l 643 1076 l 625 1060 l 457 1171 l 289 1060 l 271 1076 l 439 1257 l 475 1257 z "},"â":{"ha":914,"x_min":36,"x_max":869,"o":"m 36 0 l 410 972 l 496 972 l 869 0 l 768 0 l 596 456 l 281 456 l 138 0 l 36 0 m 419 900 l 290 489 l 583 489 l 428 900 l 419 900 m 475 1257 l 643 1076 l 625 1060 l 457 1171 l 289 1060 l 271 1076 l 439 1257 l 475 1257 z "},"Ä":{"ha":914,"x_min":36,"x_max":869,"o":"m 36 0 l 410 972 l 496 972 l 869 0 l 768 0 l 596 456 l 281 456 l 138 0 l 36 0 m 419 900 l 290 489 l 583 489 l 428 900 l 419 900 m 538 1174 q 556 1219 538 1201 q 600 1236 574 1236 q 645 1219 628 1236 q 663 1174 663 1201 q 645 1129 663 1147 q 600 1111 628 1111 q 556 1129 574 1111 q 538 1174 538 1147 m 251 1174 q 269 1219 251 1201 q 314 1236 288 1236 q 359 1219 342 1236 q 376 1174 376 1201 q 359 1129 376 1147 q 314 1111 342 1111 q 269 1129 288 1111 q 251 1174 251 1147 z "},"ä":{"ha":914,"x_min":36,"x_max":869,"o":"m 36 0 l 410 972 l 496 972 l 869 0 l 768 0 l 596 456 l 281 456 l 138 0 l 36 0 m 419 900 l 290 489 l 583 489 l 428 900 l 419 900 m 538 1174 q 556 1219 538 1201 q 600 1236 574 1236 q 645 1219 628 1236 q 663 1174 663 1201 q 645 1129 663 1147 q 600 1111 628 1111 q 556 1129 574 1111 q 538 1174 538 1147 m 251 1174 q 269 1219 251 1201 q 314 1236 288 1236 q 359 1219 342 1236 q 376 1174 376 1201 q 359 1129 376 1147 q 314 1111 342 1111 q 269 1129 288 1111 q 251 1174 251 1147 z "},"À":{"ha":914,"x_min":36,"x_max":869,"o":"m 36 0 l 410 972 l 496 972 l 869 0 l 768 0 l 596 456 l 281 456 l 138 0 l 36 0 m 419 900 l 290 489 l 583 489 l 428 900 l 419 900 m 536 1076 l 518 1060 l 276 1238 l 276 1246 l 401 1246 l 536 1076 z "},"à":{"ha":914,"x_min":36,"x_max":869,"o":"m 36 0 l 410 972 l 496 972 l 869 0 l 768 0 l 596 456 l 281 456 l 138 0 l 36 0 m 419 900 l 290 489 l 583 489 l 428 900 l 419 900 m 536 1076 l 518 1060 l 276 1238 l 276 1246 l 401 1246 l 536 1076 z "},"Ā":{"ha":914,"x_min":36,"x_max":869,"o":"m 36 0 l 410 972 l 496 972 l 869 0 l 768 0 l 596 456 l 281 456 l 138 0 l 36 0 m 419 900 l 290 489 l 583 489 l 428 900 l 419 900 m 271 1138 l 271 1193 l 643 1193 l 643 1138 l 271 1138 z "},"ā":{"ha":914,"x_min":36,"x_max":869,"o":"m 36 0 l 410 972 l 496 972 l 869 0 l 768 0 l 596 456 l 281 456 l 138 0 l 36 0 m 419 900 l 290 489 l 583 489 l 428 900 l 419 900 m 271 1138 l 271 1193 l 643 1193 l 643 1138 l 271 1138 z "},"Ą":{"ha":914,"x_min":36,"x_max":869,"o":"m 36 0 l 410 972 l 496 972 l 869 0 l 768 0 l 596 456 l 281 456 l 138 0 l 36 0 m 419 900 l 290 489 l 583 489 l 428 900 l 419 900 m 869 -247 q 756 -306 817 -306 q 674 -273 704 -306 q 643 -187 643 -240 q 677 -87 643 -135 q 788 14 711 -40 l 800 14 l 803 0 q 726 -164 726 -89 q 744 -226 726 -203 q 792 -250 761 -250 q 854 -228 824 -250 l 869 -247 z "},"ą":{"ha":914,"x_min":36,"x_max":869,"o":"m 36 0 l 410 972 l 496 972 l 869 0 l 768 0 l 596 456 l 281 456 l 138 0 l 36 0 m 419 900 l 290 489 l 583 489 l 428 900 l 419 900 m 869 -247 q 756 -306 817 -306 q 674 -273 704 -306 q 643 -187 643 -240 q 677 -87 643 -135 q 788 14 711 -40 l 800 14 l 803 0 q 726 -164 726 -89 q 744 -226 726 -203 q 792 -250 761 -250 q 854 -228 824 -250 l 869 -247 z "},"Å":{"ha":914,"x_min":36,"x_max":869,"o":"m 36 0 l 410 972 l 496 972 l 869 0 l 768 0 l 596 456 l 281 456 l 138 0 l 36 0 m 419 900 l 290 489 l 583 489 l 428 900 l 419 900 m 326 1161 q 363 1249 326 1214 q 457 1283 400 1283 q 551 1249 514 1283 q 588 1161 588 1214 q 551 1074 588 1108 q 457 1039 514 1039 q 363 1074 400 1039 q 326 1161 326 1108 m 457 1258 q 409 1231 428 1258 q 390 1161 390 1204 q 409 1091 390 1118 q 457 1064 428 1064 q 504 1091 485 1064 q 524 1161 524 1118 q 504 1231 524 1204 q 457 1258 485 1258 z "},"å":{"ha":914,"x_min":36,"x_max":869,"o":"m 36 0 l 410 972 l 496 972 l 869 0 l 768 0 l 596 456 l 281 456 l 138 0 l 36 0 m 419 900 l 290 489 l 583 489 l 428 900 l 419 900 m 326 1161 q 363 1249 326 1214 q 457 1283 400 1283 q 551 1249 514 1283 q 588 1161 588 1214 q 551 1074 588 1108 q 457 1039 514 1039 q 363 1074 400 1039 q 326 1161 326 1108 m 457 1258 q 409 1231 428 1258 q 390 1161 390 1204 q 409 1091 390 1118 q 457 1064 428 1064 q 504 1091 485 1064 q 524 1161 524 1118 q 504 1231 524 1204 q 457 1258 485 1258 z "},"Ã":{"ha":914,"x_min":36,"x_max":869,"o":"m 36 0 l 410 972 l 496 972 l 869 0 l 768 0 l 596 456 l 281 456 l 138 0 l 36 0 m 419 900 l 290 489 l 583 489 l 428 900 l 419 900 m 469 1213 q 513 1187 490 1199 q 561 1175 536 1175 q 606 1189 583 1175 q 657 1242 628 1203 l 678 1228 q 611 1128 642 1156 q 542 1100 581 1100 q 489 1112 513 1100 q 442 1138 465 1124 q 398 1163 421 1151 q 350 1175 375 1175 q 306 1162 328 1175 q 254 1108 283 1149 l 233 1122 q 300 1222 269 1194 q 369 1250 331 1250 q 423 1239 399 1250 q 469 1213 447 1228 z "},"ã":{"ha":914,"x_min":36,"x_max":869,"o":"m 36 0 l 410 972 l 496 972 l 869 0 l 768 0 l 596 456 l 281 456 l 138 0 l 36 0 m 419 900 l 290 489 l 583 489 l 428 900 l 419 900 m 469 1213 q 513 1187 490 1199 q 561 1175 536 1175 q 606 1189 583 1175 q 657 1242 628 1203 l 678 1228 q 611 1128 642 1156 q 542 1100 581 1100 q 489 1112 513 1100 q 442 1138 465 1124 q 398 1163 421 1151 q 350 1175 375 1175 q 306 1162 328 1175 q 254 1108 283 1149 l 233 1122 q 300 1222 269 1194 q 369 1250 331 1250 q 423 1239 399 1250 q 469 1213 447 1228 z "},"Æ":{"ha":1132,"x_min":14,"x_max":1021,"o":"m 14 0 l 589 972 l 1017 972 l 1017 904 l 774 936 q 688 944 710 944 l 688 521 q 774 525 706 521 l 1001 539 l 1001 475 l 774 489 q 688 493 706 493 l 688 28 q 775 36 713 28 l 1021 68 l 1021 0 l 593 0 l 593 414 l 335 414 l 119 0 l 14 0 m 585 897 l 351 447 l 593 447 l 593 897 l 585 897 z "},"æ":{"ha":1132,"x_min":14,"x_max":1021,"o":"m 14 0 l 589 972 l 1017 972 l 1017 904 l 774 936 q 688 944 710 944 l 688 521 q 774 525 706 521 l 1001 539 l 1001 475 l 774 489 q 688 493 706 493 l 688 28 q 775 36 713 28 l 1021 68 l 1021 0 l 593 0 l 593 414 l 335 414 l 119 0 l 14 0 m 585 897 l 351 447 l 593 447 l 593 897 l 585 897 z "},"Ǽ":{"ha":1132,"x_min":14,"x_max":1021,"o":"m 14 0 l 589 972 l 1017 972 l 1017 904 l 774 936 q 688 944 710 944 l 688 521 q 774 525 706 521 l 1001 539 l 1001 475 l 774 489 q 688 493 706 493 l 688 28 q 775 36 713 28 l 1021 68 l 1021 0 l 593 0 l 593 414 l 335 414 l 119 0 l 14 0 m 585 897 l 351 447 l 593 447 l 593 897 l 585 897 m 636 1076 l 771 1246 l 896 1246 l 896 1238 l 654 1060 l 636 1076 z "},"ǽ":{"ha":1132,"x_min":14,"x_max":1021,"o":"m 14 0 l 589 972 l 1017 972 l 1017 904 l 774 936 q 688 944 710 944 l 688 521 q 774 525 706 521 l 1001 539 l 1001 475 l 774 489 q 688 493 706 493 l 688 28 q 775 36 713 28 l 1021 68 l 1021 0 l 593 0 l 593 414 l 335 414 l 119 0 l 14 0 m 585 897 l 351 447 l 593 447 l 593 897 l 585 897 m 636 1076 l 771 1246 l 896 1246 l 896 1238 l 654 1060 l 636 1076 z "},"B":{"ha":857,"x_min":181,"x_max":760,"o":"m 181 0 l 181 972 l 374 972 q 607 910 524 972 q 690 736 690 847 q 642 597 690 654 q 506 518 593 539 l 506 510 q 692 427 625 494 q 760 257 760 360 q 667 68 760 136 q 406 0 574 0 l 181 0 m 375 939 l 275 939 l 275 522 l 374 522 q 593 731 593 522 q 375 939 593 939 m 406 489 l 275 489 l 275 33 l 406 33 q 660 261 660 33 q 406 489 660 489 z "},"b":{"ha":857,"x_min":181,"x_max":760,"o":"m 181 0 l 181 972 l 374 972 q 607 910 524 972 q 690 736 690 847 q 642 597 690 654 q 506 518 593 539 l 506 510 q 692 427 625 494 q 760 257 760 360 q 667 68 760 136 q 406 0 574 0 l 181 0 m 375 939 l 275 939 l 275 522 l 374 522 q 593 731 593 522 q 375 939 593 939 m 406 489 l 275 489 l 275 33 l 406 33 q 660 261 660 33 q 406 489 660 489 z "},"C":{"ha":1053,"x_min":111,"x_max":956,"o":"m 956 119 l 947 35 q 853 6 908 18 q 740 -13 797 -7 q 639 -19 683 -19 q 431 19 526 -19 q 263 125 335 57 q 151 285 192 193 q 111 486 111 378 q 151 687 111 594 q 263 847 192 779 q 431 953 335 915 q 639 992 526 992 q 742 985 685 992 q 853 966 799 978 q 944 939 907 954 l 938 861 l 929 861 q 800 933 878 908 q 639 958 722 958 q 419 899 514 958 q 270 734 324 840 q 217 486 217 628 q 270 238 217 343 q 418 73 324 132 q 639 14 513 14 q 815 44 733 14 q 947 119 896 75 l 956 119 z "},"c":{"ha":1053,"x_min":111,"x_max":956,"o":"m 956 119 l 947 35 q 853 6 908 18 q 740 -13 797 -7 q 639 -19 683 -19 q 431 19 526 -19 q 263 125 335 57 q 151 285 192 193 q 111 486 111 378 q 151 687 111 594 q 263 847 192 779 q 431 953 335 915 q 639 992 526 992 q 742 985 685 992 q 853 966 799 978 q 944 939 907 954 l 938 861 l 929 861 q 800 933 878 908 q 639 958 722 958 q 419 899 514 958 q 270 734 324 840 q 217 486 217 628 q 270 238 217 343 q 418 73 324 132 q 639 14 513 14 q 815 44 733 14 q 947 119 896 75 l 956 119 z "},"Ć":{"ha":1053,"x_min":111,"x_max":956,"o":"m 956 119 l 947 35 q 853 6 908 18 q 740 -13 797 -7 q 639 -19 683 -19 q 431 19 526 -19 q 263 125 335 57 q 151 285 192 193 q 111 486 111 378 q 151 687 111 594 q 263 847 192 779 q 431 953 335 915 q 639 992 526 992 q 742 985 685 992 q 853 966 799 978 q 944 939 907 954 l 938 861 l 929 861 q 800 933 878 908 q 639 958 722 958 q 419 899 514 958 q 270 734 324 840 q 217 486 217 628 q 270 238 217 343 q 418 73 324 132 q 639 14 513 14 q 815 44 733 14 q 947 119 896 75 l 956 119 m 557 1076 l 692 1246 l 817 1246 l 817 1238 l 575 1060 l 557 1076 z "},"ć":{"ha":1053,"x_min":111,"x_max":956,"o":"m 956 119 l 947 35 q 853 6 908 18 q 740 -13 797 -7 q 639 -19 683 -19 q 431 19 526 -19 q 263 125 335 57 q 151 285 192 193 q 111 486 111 378 q 151 687 111 594 q 263 847 192 779 q 431 953 335 915 q 639 992 526 992 q 742 985 685 992 q 853 966 799 978 q 944 939 907 954 l 938 861 l 929 861 q 800 933 878 908 q 639 958 722 958 q 419 899 514 958 q 270 734 324 840 q 217 486 217 628 q 270 238 217 343 q 418 73 324 132 q 639 14 513 14 q 815 44 733 14 q 947 119 896 75 l 956 119 m 557 1076 l 692 1246 l 817 1246 l 817 1238 l 575 1060 l 557 1076 z "},"Č":{"ha":1053,"x_min":111,"x_max":956,"o":"m 956 119 l 947 35 q 853 6 908 18 q 740 -13 797 -7 q 639 -19 683 -19 q 431 19 526 -19 q 263 125 335 57 q 151 285 192 193 q 111 486 111 378 q 151 687 111 594 q 263 847 192 779 q 431 953 335 915 q 639 992 526 992 q 742 985 685 992 q 853 966 799 978 q 944 939 907 954 l 938 861 l 929 861 q 800 933 878 908 q 639 958 722 958 q 419 899 514 958 q 270 734 324 840 q 217 486 217 628 q 270 238 217 343 q 418 73 324 132 q 639 14 513 14 q 815 44 733 14 q 947 119 896 75 l 956 119 m 624 1078 l 456 1258 l 474 1275 l 642 1164 l 810 1275 l 828 1258 l 660 1078 l 624 1078 z "},"č":{"ha":1053,"x_min":111,"x_max":956,"o":"m 956 119 l 947 35 q 853 6 908 18 q 740 -13 797 -7 q 639 -19 683 -19 q 431 19 526 -19 q 263 125 335 57 q 151 285 192 193 q 111 486 111 378 q 151 687 111 594 q 263 847 192 779 q 431 953 335 915 q 639 992 526 992 q 742 985 685 992 q 853 966 799 978 q 944 939 907 954 l 938 861 l 929 861 q 800 933 878 908 q 639 958 722 958 q 419 899 514 958 q 270 734 324 840 q 217 486 217 628 q 270 238 217 343 q 418 73 324 132 q 639 14 513 14 q 815 44 733 14 q 947 119 896 75 l 956 119 m 624 1078 l 456 1258 l 474 1275 l 642 1164 l 810 1275 l 828 1258 l 660 1078 l 624 1078 z "},"Ç":{"ha":1053,"x_min":111,"x_max":956,"o":"m 956 119 l 947 35 q 853 6 908 18 q 740 -13 797 -7 q 639 -19 683 -19 q 431 19 526 -19 q 263 125 335 57 q 151 285 192 193 q 111 486 111 378 q 151 687 111 594 q 263 847 192 779 q 431 953 335 915 q 639 992 526 992 q 742 985 685 992 q 853 966 799 978 q 944 939 907 954 l 938 861 l 929 861 q 800 933 878 908 q 639 958 722 958 q 419 899 514 958 q 270 734 324 840 q 217 486 217 628 q 270 238 217 343 q 418 73 324 132 q 639 14 513 14 q 815 44 733 14 q 947 119 896 75 l 956 119 m 576 -106 l 621 6 l 651 6 l 621 -72 q 751 -189 751 -97 q 715 -274 751 -242 q 618 -306 679 -306 q 576 -301 597 -306 q 515 -283 554 -296 l 522 -260 q 590 -272 560 -272 q 647 -252 626 -272 q 668 -197 668 -232 q 576 -106 668 -122 z "},"ç":{"ha":1053,"x_min":111,"x_max":956,"o":"m 956 119 l 947 35 q 853 6 908 18 q 740 -13 797 -7 q 639 -19 683 -19 q 431 19 526 -19 q 263 125 335 57 q 151 285 192 193 q 111 486 111 378 q 151 687 111 594 q 263 847 192 779 q 431 953 335 915 q 639 992 526 992 q 742 985 685 992 q 853 966 799 978 q 944 939 907 954 l 938 861 l 929 861 q 800 933 878 908 q 639 958 722 958 q 419 899 514 958 q 270 734 324 840 q 217 486 217 628 q 270 238 217 343 q 418 73 324 132 q 639 14 513 14 q 815 44 733 14 q 947 119 896 75 l 956 119 m 576 -106 l 621 6 l 651 6 l 621 -72 q 751 -189 751 -97 q 715 -274 751 -242 q 618 -306 679 -306 q 576 -301 597 -306 q 515 -283 554 -296 l 522 -260 q 590 -272 560 -272 q 647 -252 626 -272 q 668 -197 668 -232 q 576 -106 668 -122 z "},"Ĉ":{"ha":1053,"x_min":111,"x_max":956,"o":"m 956 119 l 947 35 q 853 6 908 18 q 740 -13 797 -7 q 639 -19 683 -19 q 431 19 526 -19 q 263 125 335 57 q 151 285 192 193 q 111 486 111 378 q 151 687 111 594 q 263 847 192 779 q 431 953 335 915 q 639 992 526 992 q 742 985 685 992 q 853 966 799 978 q 944 939 907 954 l 938 861 l 929 861 q 800 933 878 908 q 639 958 722 958 q 419 899 514 958 q 270 734 324 840 q 217 486 217 628 q 270 238 217 343 q 418 73 324 132 q 639 14 513 14 q 815 44 733 14 q 947 119 896 75 l 956 119 m 660 1257 l 828 1076 l 810 1060 l 642 1171 l 474 1060 l 456 1076 l 624 1257 l 660 1257 z "},"ĉ":{"ha":1053,"x_min":111,"x_max":956,"o":"m 956 119 l 947 35 q 853 6 908 18 q 740 -13 797 -7 q 639 -19 683 -19 q 431 19 526 -19 q 263 125 335 57 q 151 285 192 193 q 111 486 111 378 q 151 687 111 594 q 263 847 192 779 q 431 953 335 915 q 639 992 526 992 q 742 985 685 992 q 853 966 799 978 q 944 939 907 954 l 938 861 l 929 861 q 800 933 878 908 q 639 958 722 958 q 419 899 514 958 q 270 734 324 840 q 217 486 217 628 q 270 238 217 343 q 418 73 324 132 q 639 14 513 14 q 815 44 733 14 q 947 119 896 75 l 956 119 m 660 1257 l 828 1076 l 810 1060 l 642 1171 l 474 1060 l 456 1076 l 624 1257 l 660 1257 z "},"Ċ":{"ha":1053,"x_min":111,"x_max":956,"o":"m 956 119 l 947 35 q 853 6 908 18 q 740 -13 797 -7 q 639 -19 683 -19 q 431 19 526 -19 q 263 125 335 57 q 151 285 192 193 q 111 486 111 378 q 151 687 111 594 q 263 847 192 779 q 431 953 335 915 q 639 992 526 992 q 742 985 685 992 q 853 966 799 978 q 944 939 907 954 l 938 861 l 929 861 q 800 933 878 908 q 639 958 722 958 q 419 899 514 958 q 270 734 324 840 q 217 486 217 628 q 270 238 217 343 q 418 73 324 132 q 639 14 513 14 q 815 44 733 14 q 947 119 896 75 l 956 119 m 575 1174 q 594 1222 575 1203 q 642 1240 613 1240 q 690 1222 671 1240 q 708 1174 708 1203 q 690 1126 708 1144 q 642 1107 671 1107 q 594 1126 613 1107 q 575 1174 575 1144 z "},"ċ":{"ha":1053,"x_min":111,"x_max":956,"o":"m 956 119 l 947 35 q 853 6 908 18 q 740 -13 797 -7 q 639 -19 683 -19 q 431 19 526 -19 q 263 125 335 57 q 151 285 192 193 q 111 486 111 378 q 151 687 111 594 q 263 847 192 779 q 431 953 335 915 q 639 992 526 992 q 742 985 685 992 q 853 966 799 978 q 944 939 907 954 l 938 861 l 929 861 q 800 933 878 908 q 639 958 722 958 q 419 899 514 958 q 270 734 324 840 q 217 486 217 628 q 270 238 217 343 q 418 73 324 132 q 639 14 513 14 q 815 44 733 14 q 947 119 896 75 l 956 119 m 575 1174 q 594 1222 575 1203 q 642 1240 613 1240 q 690 1222 671 1240 q 708 1174 708 1203 q 690 1126 708 1144 q 642 1107 671 1107 q 594 1126 613 1107 q 575 1174 575 1144 z "},"D":{"ha":1131,"x_min":181,"x_max":1019,"o":"m 181 0 l 181 972 l 486 972 q 767 911 647 972 q 953 741 886 850 q 1019 486 1019 632 q 953 231 1019 340 q 767 61 886 122 q 486 0 647 0 l 181 0 m 486 939 l 275 939 l 275 33 l 486 33 q 801 153 688 33 q 914 486 914 272 q 801 819 914 700 q 486 939 688 939 z "},"d":{"ha":1131,"x_min":181,"x_max":1019,"o":"m 181 0 l 181 972 l 486 972 q 767 911 647 972 q 953 741 886 850 q 1019 486 1019 632 q 953 231 1019 340 q 767 61 886 122 q 486 0 647 0 l 181 0 m 486 939 l 275 939 l 275 33 l 486 33 q 801 153 688 33 q 914 486 914 272 q 801 819 914 700 q 486 939 688 939 z "},"Ð":{"ha":1131,"x_min":53,"x_max":1019,"o":"m 181 0 l 181 489 l 53 489 l 53 522 l 181 522 l 181 972 l 486 972 q 767 911 647 972 q 953 741 886 850 q 1019 486 1019 632 q 953 231 1019 340 q 767 61 886 122 q 486 0 647 0 l 181 0 m 517 489 l 275 489 l 275 33 l 486 33 q 801 153 688 33 q 914 486 914 272 q 801 819 914 700 q 486 939 688 939 l 275 939 l 275 522 l 517 522 l 517 489 z "},"ð":{"ha":1131,"x_min":53,"x_max":1019,"o":"m 181 0 l 181 489 l 53 489 l 53 522 l 181 522 l 181 972 l 486 972 q 767 911 647 972 q 953 741 886 850 q 1019 486 1019 632 q 953 231 1019 340 q 767 61 886 122 q 486 0 647 0 l 181 0 m 517 489 l 275 489 l 275 33 l 486 33 q 801 153 688 33 q 914 486 914 272 q 801 819 914 700 q 486 939 688 939 l 275 939 l 275 522 l 517 522 l 517 489 z "},"Ď":{"ha":1131,"x_min":181,"x_max":1019,"o":"m 181 0 l 181 972 l 486 972 q 767 911 647 972 q 953 741 886 850 q 1019 486 1019 632 q 953 231 1019 340 q 767 61 886 122 q 486 0 647 0 l 181 0 m 486 939 l 275 939 l 275 33 l 486 33 q 801 153 688 33 q 914 486 914 272 q 801 819 914 700 q 486 939 688 939 m 490 1078 l 322 1258 l 340 1275 l 508 1164 l 676 1275 l 694 1258 l 526 1078 l 490 1078 z "},"ď":{"ha":1131,"x_min":181,"x_max":1019,"o":"m 181 0 l 181 972 l 486 972 q 767 911 647 972 q 953 741 886 850 q 1019 486 1019 632 q 953 231 1019 340 q 767 61 886 122 q 486 0 647 0 l 181 0 m 486 939 l 275 939 l 275 33 l 486 33 q 801 153 688 33 q 914 486 914 272 q 801 819 914 700 q 486 939 688 939 m 490 1078 l 322 1258 l 340 1275 l 508 1164 l 676 1275 l 694 1258 l 526 1078 l 490 1078 z "},"Đ":{"ha":1131,"x_min":53,"x_max":1019,"o":"m 181 0 l 181 489 l 53 489 l 53 522 l 181 522 l 181 972 l 486 972 q 767 911 647 972 q 953 741 886 850 q 1019 486 1019 632 q 953 231 1019 340 q 767 61 886 122 q 486 0 647 0 l 181 0 m 517 489 l 275 489 l 275 33 l 486 33 q 801 153 688 33 q 914 486 914 272 q 801 819 914 700 q 486 939 688 939 l 275 939 l 275 522 l 517 522 l 517 489 z "},"đ":{"ha":1131,"x_min":53,"x_max":1019,"o":"m 181 0 l 181 489 l 53 489 l 53 522 l 181 522 l 181 972 l 486 972 q 767 911 647 972 q 953 741 886 850 q 1019 486 1019 632 q 953 231 1019 340 q 767 61 886 122 q 486 0 647 0 l 181 0 m 517 489 l 275 489 l 275 33 l 486 33 q 801 153 688 33 q 914 486 914 272 q 801 819 914 700 q 486 939 688 939 l 275 939 l 275 522 l 517 522 l 517 489 z "},"E":{"ha":719,"x_min":181,"x_max":608,"o":"m 181 0 l 181 972 l 604 972 l 604 904 l 361 936 q 275 944 297 944 l 275 521 q 361 525 293 521 l 589 539 l 589 475 l 361 489 q 275 493 293 493 l 275 28 q 363 36 300 28 l 608 68 l 608 0 l 181 0 z "},"e":{"ha":719,"x_min":181,"x_max":608,"o":"m 181 0 l 181 972 l 604 972 l 604 904 l 361 936 q 275 944 297 944 l 275 521 q 361 525 293 521 l 589 539 l 589 475 l 361 489 q 275 493 293 493 l 275 28 q 363 36 300 28 l 608 68 l 608 0 l 181 0 z "},"É":{"ha":719,"x_min":181,"x_max":608,"o":"m 181 0 l 181 972 l 604 972 l 604 904 l 361 936 q 275 944 297 944 l 275 521 q 361 525 293 521 l 589 539 l 589 475 l 361 489 q 275 493 293 493 l 275 28 q 363 36 300 28 l 608 68 l 608 0 l 181 0 m 303 1076 l 438 1246 l 563 1246 l 563 1238 l 321 1060 l 303 1076 z "},"é":{"ha":719,"x_min":181,"x_max":608,"o":"m 181 0 l 181 972 l 604 972 l 604 904 l 361 936 q 275 944 297 944 l 275 521 q 361 525 293 521 l 589 539 l 589 475 l 361 489 q 275 493 293 493 l 275 28 q 363 36 300 28 l 608 68 l 608 0 l 181 0 m 303 1076 l 438 1246 l 563 1246 l 563 1238 l 321 1060 l 303 1076 z "},"Ĕ":{"ha":719,"x_min":181,"x_max":608,"o":"m 181 0 l 181 972 l 604 972 l 604 904 l 361 936 q 275 944 297 944 l 275 521 q 361 525 293 521 l 589 539 l 589 475 l 361 489 q 275 493 293 493 l 275 28 q 363 36 300 28 l 608 68 l 608 0 l 181 0 m 388 1079 q 274 1126 321 1079 q 208 1258 228 1174 l 232 1267 q 301 1183 267 1207 q 388 1160 336 1160 q 474 1183 440 1160 q 543 1267 508 1207 l 567 1258 q 501 1126 549 1174 q 388 1079 454 1079 z "},"ĕ":{"ha":719,"x_min":181,"x_max":608,"o":"m 181 0 l 181 972 l 604 972 l 604 904 l 361 936 q 275 944 297 944 l 275 521 q 361 525 293 521 l 589 539 l 589 475 l 361 489 q 275 493 293 493 l 275 28 q 363 36 300 28 l 608 68 l 608 0 l 181 0 m 388 1079 q 274 1126 321 1079 q 208 1258 228 1174 l 232 1267 q 301 1183 267 1207 q 388 1160 336 1160 q 474 1183 440 1160 q 543 1267 508 1207 l 567 1258 q 501 1126 549 1174 q 388 1079 454 1079 z "},"Ě":{"ha":719,"x_min":181,"x_max":608,"o":"m 181 0 l 181 972 l 604 972 l 604 904 l 361 936 q 275 944 297 944 l 275 521 q 361 525 293 521 l 589 539 l 589 475 l 361 489 q 275 493 293 493 l 275 28 q 363 36 300 28 l 608 68 l 608 0 l 181 0 m 369 1078 l 201 1258 l 219 1275 l 388 1164 l 556 1275 l 574 1258 l 406 1078 l 369 1078 z "},"ě":{"ha":719,"x_min":181,"x_max":608,"o":"m 181 0 l 181 972 l 604 972 l 604 904 l 361 936 q 275 944 297 944 l 275 521 q 361 525 293 521 l 589 539 l 589 475 l 361 489 q 275 493 293 493 l 275 28 q 363 36 300 28 l 608 68 l 608 0 l 181 0 m 369 1078 l 201 1258 l 219 1275 l 388 1164 l 556 1275 l 574 1258 l 406 1078 l 369 1078 z "},"Ê":{"ha":719,"x_min":181,"x_max":608,"o":"m 181 0 l 181 972 l 604 972 l 604 904 l 361 936 q 275 944 297 944 l 275 521 q 361 525 293 521 l 589 539 l 589 475 l 361 489 q 275 493 293 493 l 275 28 q 363 36 300 28 l 608 68 l 608 0 l 181 0 m 406 1257 l 574 1076 l 556 1060 l 388 1171 l 219 1060 l 201 1076 l 369 1257 l 406 1257 z "},"ê":{"ha":719,"x_min":181,"x_max":608,"o":"m 181 0 l 181 972 l 604 972 l 604 904 l 361 936 q 275 944 297 944 l 275 521 q 361 525 293 521 l 589 539 l 589 475 l 361 489 q 275 493 293 493 l 275 28 q 363 36 300 28 l 608 68 l 608 0 l 181 0 m 406 1257 l 574 1076 l 556 1060 l 388 1171 l 219 1060 l 201 1076 l 369 1257 l 406 1257 z "},"Ë":{"ha":719,"x_min":181,"x_max":608,"o":"m 181 0 l 181 972 l 604 972 l 604 904 l 361 936 q 275 944 297 944 l 275 521 q 361 525 293 521 l 589 539 l 589 475 l 361 489 q 275 493 293 493 l 275 28 q 363 36 300 28 l 608 68 l 608 0 l 181 0 m 468 1174 q 486 1219 468 1201 q 531 1236 504 1236 q 576 1219 558 1236 q 593 1174 593 1201 q 576 1129 593 1147 q 531 1111 558 1111 q 486 1129 504 1111 q 468 1174 468 1147 m 182 1174 q 200 1219 182 1201 q 244 1236 218 1236 q 290 1219 272 1236 q 307 1174 307 1201 q 290 1129 307 1147 q 244 1111 272 1111 q 200 1129 218 1111 q 182 1174 182 1147 z "},"ë":{"ha":719,"x_min":181,"x_max":608,"o":"m 181 0 l 181 972 l 604 972 l 604 904 l 361 936 q 275 944 297 944 l 275 521 q 361 525 293 521 l 589 539 l 589 475 l 361 489 q 275 493 293 493 l 275 28 q 363 36 300 28 l 608 68 l 608 0 l 181 0 m 468 1174 q 486 1219 468 1201 q 531 1236 504 1236 q 576 1219 558 1236 q 593 1174 593 1201 q 576 1129 593 1147 q 531 1111 558 1111 q 486 1129 504 1111 q 468 1174 468 1147 m 182 1174 q 200 1219 182 1201 q 244 1236 218 1236 q 290 1219 272 1236 q 307 1174 307 1201 q 290 1129 307 1147 q 244 1111 272 1111 q 200 1129 218 1111 q 182 1174 182 1147 z "},"Ė":{"ha":719,"x_min":181,"x_max":608,"o":"m 181 0 l 181 972 l 604 972 l 604 904 l 361 936 q 275 944 297 944 l 275 521 q 361 525 293 521 l 589 539 l 589 475 l 361 489 q 275 493 293 493 l 275 28 q 363 36 300 28 l 608 68 l 608 0 l 181 0 m 321 1174 q 340 1222 321 1203 q 388 1240 358 1240 q 435 1222 417 1240 q 454 1174 454 1203 q 435 1126 454 1144 q 388 1107 417 1107 q 340 1126 358 1107 q 321 1174 321 1144 z "},"ė":{"ha":719,"x_min":181,"x_max":608,"o":"m 181 0 l 181 972 l 604 972 l 604 904 l 361 936 q 275 944 297 944 l 275 521 q 361 525 293 521 l 589 539 l 589 475 l 361 489 q 275 493 293 493 l 275 28 q 363 36 300 28 l 608 68 l 608 0 l 181 0 m 321 1174 q 340 1222 321 1203 q 388 1240 358 1240 q 435 1222 417 1240 q 454 1174 454 1203 q 435 1126 454 1144 q 388 1107 417 1107 q 340 1126 358 1107 q 321 1174 321 1144 z "},"È":{"ha":719,"x_min":181,"x_max":608,"o":"m 181 0 l 181 972 l 604 972 l 604 904 l 361 936 q 275 944 297 944 l 275 521 q 361 525 293 521 l 589 539 l 589 475 l 361 489 q 275 493 293 493 l 275 28 q 363 36 300 28 l 608 68 l 608 0 l 181 0 m 467 1076 l 449 1060 l 207 1238 l 207 1246 l 332 1246 l 467 1076 z "},"è":{"ha":719,"x_min":181,"x_max":608,"o":"m 181 0 l 181 972 l 604 972 l 604 904 l 361 936 q 275 944 297 944 l 275 521 q 361 525 293 521 l 589 539 l 589 475 l 361 489 q 275 493 293 493 l 275 28 q 363 36 300 28 l 608 68 l 608 0 l 181 0 m 467 1076 l 449 1060 l 207 1238 l 207 1246 l 332 1246 l 467 1076 z "},"Ē":{"ha":719,"x_min":181,"x_max":608,"o":"m 181 0 l 181 972 l 604 972 l 604 904 l 361 936 q 275 944 297 944 l 275 521 q 361 525 293 521 l 589 539 l 589 475 l 361 489 q 275 493 293 493 l 275 28 q 363 36 300 28 l 608 68 l 608 0 l 181 0 m 201 1138 l 201 1193 l 574 1193 l 574 1138 l 201 1138 z "},"ē":{"ha":719,"x_min":181,"x_max":608,"o":"m 181 0 l 181 972 l 604 972 l 604 904 l 361 936 q 275 944 297 944 l 275 521 q 361 525 293 521 l 589 539 l 589 475 l 361 489 q 275 493 293 493 l 275 28 q 363 36 300 28 l 608 68 l 608 0 l 181 0 m 201 1138 l 201 1193 l 574 1193 l 574 1138 l 201 1138 z "},"Ę":{"ha":719,"x_min":181,"x_max":608,"o":"m 181 0 l 181 972 l 604 972 l 604 904 l 361 936 q 275 944 297 944 l 275 521 q 361 525 293 521 l 589 539 l 589 475 l 361 489 q 275 493 293 493 l 275 28 q 363 36 300 28 l 608 68 l 608 0 l 181 0 m 608 -247 q 494 -306 556 -306 q 413 -273 443 -306 q 382 -187 382 -240 q 416 -87 382 -135 q 526 14 450 -40 l 539 14 l 542 0 q 465 -164 465 -89 q 483 -226 465 -203 q 531 -250 500 -250 q 593 -228 563 -250 l 608 -247 z "},"ę":{"ha":719,"x_min":181,"x_max":608,"o":"m 181 0 l 181 972 l 604 972 l 604 904 l 361 936 q 275 944 297 944 l 275 521 q 361 525 293 521 l 589 539 l 589 475 l 361 489 q 275 493 293 493 l 275 28 q 363 36 300 28 l 608 68 l 608 0 l 181 0 m 608 -247 q 494 -306 556 -306 q 413 -273 443 -306 q 382 -187 382 -240 q 416 -87 382 -135 q 526 14 450 -40 l 539 14 l 542 0 q 465 -164 465 -89 q 483 -226 465 -203 q 531 -250 500 -250 q 593 -228 563 -250 l 608 -247 z "},"Ẽ":{"ha":719,"x_min":164,"x_max":608,"o":"m 181 0 l 181 972 l 604 972 l 604 904 l 361 936 q 275 944 297 944 l 275 521 q 361 525 293 521 l 589 539 l 589 475 l 361 489 q 275 493 293 493 l 275 28 q 363 36 300 28 l 608 68 l 608 0 l 181 0 m 400 1213 q 444 1187 421 1199 q 492 1175 467 1175 q 536 1189 514 1175 q 588 1242 558 1203 l 608 1228 q 542 1128 572 1156 q 472 1100 511 1100 q 419 1112 443 1100 q 372 1138 396 1124 q 328 1163 351 1151 q 281 1175 306 1175 q 236 1162 258 1175 q 185 1108 214 1149 l 164 1122 q 231 1222 200 1194 q 300 1250 261 1250 q 353 1239 329 1250 q 400 1213 378 1228 z "},"ẽ":{"ha":719,"x_min":164,"x_max":608,"o":"m 181 0 l 181 972 l 604 972 l 604 904 l 361 936 q 275 944 297 944 l 275 521 q 361 525 293 521 l 589 539 l 589 475 l 361 489 q 275 493 293 493 l 275 28 q 363 36 300 28 l 608 68 l 608 0 l 181 0 m 400 1213 q 444 1187 421 1199 q 492 1175 467 1175 q 536 1189 514 1175 q 588 1242 558 1203 l 608 1228 q 542 1128 572 1156 q 472 1100 511 1100 q 419 1112 443 1100 q 372 1138 396 1124 q 328 1163 351 1151 q 281 1175 306 1175 q 236 1162 258 1175 q 185 1108 214 1149 l 164 1122 q 231 1222 200 1194 q 300 1250 261 1250 q 353 1239 329 1250 q 400 1213 378 1228 z "},"Ə":{"ha":1096,"x_min":89,"x_max":999,"o":"m 533 -21 q 356 15 438 -21 q 215 117 275 51 q 122 271 156 182 q 89 465 89 360 l 89 479 l 893 479 q 893 494 893 486 q 845 742 893 639 q 710 902 797 846 q 500 958 622 958 q 342 934 421 958 q 197 861 263 910 l 189 861 l 182 939 q 276 966 221 954 q 391 985 332 978 q 500 992 450 992 q 761 929 649 992 q 936 755 874 867 q 999 494 999 643 q 964 290 999 385 q 866 126 929 196 q 718 18 803 57 q 533 -21 633 -21 m 533 13 q 713 66 635 13 q 837 217 790 119 q 892 446 883 315 l 194 446 q 240 214 197 311 q 357 65 282 117 q 533 13 432 13 z "},"ə":{"ha":1096,"x_min":89,"x_max":999,"o":"m 533 -21 q 356 15 438 -21 q 215 117 275 51 q 122 271 156 182 q 89 465 89 360 l 89 479 l 893 479 q 893 494 893 486 q 845 742 893 639 q 710 902 797 846 q 500 958 622 958 q 342 934 421 958 q 197 861 263 910 l 189 861 l 182 939 q 276 966 221 954 q 391 985 332 978 q 500 992 450 992 q 761 929 649 992 q 936 755 874 867 q 999 494 999 643 q 964 290 999 385 q 866 126 929 196 q 718 18 803 57 q 533 -21 633 -21 m 533 13 q 713 66 635 13 q 837 217 790 119 q 892 446 883 315 l 194 446 q 240 214 197 311 q 357 65 282 117 q 533 13 432 13 z "},"F":{"ha":679,"x_min":181,"x_max":589,"o":"m 181 0 l 181 972 l 589 972 l 589 904 l 358 936 q 275 944 296 944 l 275 510 q 361 514 297 510 l 574 528 l 574 464 l 361 478 q 275 482 297 482 l 275 0 l 181 0 z "},"f":{"ha":679,"x_min":181,"x_max":589,"o":"m 181 0 l 181 972 l 589 972 l 589 904 l 358 936 q 275 944 296 944 l 275 510 q 361 514 297 510 l 574 528 l 574 464 l 361 478 q 275 482 297 482 l 275 0 l 181 0 z "},"G":{"ha":1156,"x_min":111,"x_max":1017,"o":"m 665 461 l 665 494 l 1017 494 l 1017 117 q 860 17 953 53 q 654 -19 768 -19 q 439 19 538 -19 q 267 126 340 57 q 152 286 193 194 q 111 486 111 378 q 152 686 111 594 q 267 847 193 778 q 439 953 340 915 q 654 992 538 992 q 763 985 704 992 q 876 966 822 978 q 968 938 931 954 l 961 860 l 953 860 q 819 933 897 908 q 654 958 742 958 q 425 899 524 958 q 272 734 326 840 q 217 486 217 628 q 272 238 217 344 q 425 73 326 132 q 654 14 524 14 q 803 36 735 14 q 922 100 872 58 l 922 461 l 665 461 z "},"g":{"ha":1156,"x_min":111,"x_max":1017,"o":"m 665 461 l 665 494 l 1017 494 l 1017 117 q 860 17 953 53 q 654 -19 768 -19 q 439 19 538 -19 q 267 126 340 57 q 152 286 193 194 q 111 486 111 378 q 152 686 111 594 q 267 847 193 778 q 439 953 340 915 q 654 992 538 992 q 763 985 704 992 q 876 966 822 978 q 968 938 931 954 l 961 860 l 953 860 q 819 933 897 908 q 654 958 742 958 q 425 899 524 958 q 272 734 326 840 q 217 486 217 628 q 272 238 217 344 q 425 73 326 132 q 654 14 524 14 q 803 36 735 14 q 922 100 872 58 l 922 461 l 665 461 z "},"Ğ":{"ha":1156,"x_min":111,"x_max":1017,"o":"m 665 461 l 665 494 l 1017 494 l 1017 117 q 860 17 953 53 q 654 -19 768 -19 q 439 19 538 -19 q 267 126 340 57 q 152 286 193 194 q 111 486 111 378 q 152 686 111 594 q 267 847 193 778 q 439 953 340 915 q 654 992 538 992 q 763 985 704 992 q 876 966 822 978 q 968 938 931 954 l 961 860 l 953 860 q 819 933 897 908 q 654 958 742 958 q 425 899 524 958 q 272 734 326 840 q 217 486 217 628 q 272 238 217 344 q 425 73 326 132 q 654 14 524 14 q 803 36 735 14 q 922 100 872 58 l 922 461 l 665 461 m 653 1079 q 540 1126 586 1079 q 474 1258 493 1174 l 497 1267 q 567 1183 532 1207 q 653 1160 601 1160 q 740 1183 706 1160 q 808 1267 774 1207 l 832 1258 q 767 1126 814 1174 q 653 1079 719 1079 z "},"ğ":{"ha":1156,"x_min":111,"x_max":1017,"o":"m 665 461 l 665 494 l 1017 494 l 1017 117 q 860 17 953 53 q 654 -19 768 -19 q 439 19 538 -19 q 267 126 340 57 q 152 286 193 194 q 111 486 111 378 q 152 686 111 594 q 267 847 193 778 q 439 953 340 915 q 654 992 538 992 q 763 985 704 992 q 876 966 822 978 q 968 938 931 954 l 961 860 l 953 860 q 819 933 897 908 q 654 958 742 958 q 425 899 524 958 q 272 734 326 840 q 217 486 217 628 q 272 238 217 344 q 425 73 326 132 q 654 14 524 14 q 803 36 735 14 q 922 100 872 58 l 922 461 l 665 461 m 653 1079 q 540 1126 586 1079 q 474 1258 493 1174 l 497 1267 q 567 1183 532 1207 q 653 1160 601 1160 q 740 1183 706 1160 q 808 1267 774 1207 l 832 1258 q 767 1126 814 1174 q 653 1079 719 1079 z "},"Ǧ":{"ha":1156,"x_min":111,"x_max":1017,"o":"m 665 461 l 665 494 l 1017 494 l 1017 117 q 860 17 953 53 q 654 -19 768 -19 q 439 19 538 -19 q 267 126 340 57 q 152 286 193 194 q 111 486 111 378 q 152 686 111 594 q 267 847 193 778 q 439 953 340 915 q 654 992 538 992 q 763 985 704 992 q 876 966 822 978 q 968 938 931 954 l 961 860 l 953 860 q 819 933 897 908 q 654 958 742 958 q 425 899 524 958 q 272 734 326 840 q 217 486 217 628 q 272 238 217 344 q 425 73 326 132 q 654 14 524 14 q 803 36 735 14 q 922 100 872 58 l 922 461 l 665 461 m 635 1078 l 467 1258 l 485 1275 l 653 1164 l 821 1275 l 839 1258 l 671 1078 l 635 1078 z "},"ǧ":{"ha":1156,"x_min":111,"x_max":1017,"o":"m 665 461 l 665 494 l 1017 494 l 1017 117 q 860 17 953 53 q 654 -19 768 -19 q 439 19 538 -19 q 267 126 340 57 q 152 286 193 194 q 111 486 111 378 q 152 686 111 594 q 267 847 193 778 q 439 953 340 915 q 654 992 538 992 q 763 985 704 992 q 876 966 822 978 q 968 938 931 954 l 961 860 l 953 860 q 819 933 897 908 q 654 958 742 958 q 425 899 524 958 q 272 734 326 840 q 217 486 217 628 q 272 238 217 344 q 425 73 326 132 q 654 14 524 14 q 803 36 735 14 q 922 100 872 58 l 922 461 l 665 461 m 635 1078 l 467 1258 l 485 1275 l 653 1164 l 821 1275 l 839 1258 l 671 1078 l 635 1078 z "},"Ĝ":{"ha":1156,"x_min":111,"x_max":1017,"o":"m 665 461 l 665 494 l 1017 494 l 1017 117 q 860 17 953 53 q 654 -19 768 -19 q 439 19 538 -19 q 267 126 340 57 q 152 286 193 194 q 111 486 111 378 q 152 686 111 594 q 267 847 193 778 q 439 953 340 915 q 654 992 538 992 q 763 985 704 992 q 876 966 822 978 q 968 938 931 954 l 961 860 l 953 860 q 819 933 897 908 q 654 958 742 958 q 425 899 524 958 q 272 734 326 840 q 217 486 217 628 q 272 238 217 344 q 425 73 326 132 q 654 14 524 14 q 803 36 735 14 q 922 100 872 58 l 922 461 l 665 461 m 671 1257 l 839 1076 l 821 1060 l 653 1171 l 485 1060 l 467 1076 l 635 1257 l 671 1257 z "},"ĝ":{"ha":1156,"x_min":111,"x_max":1017,"o":"m 665 461 l 665 494 l 1017 494 l 1017 117 q 860 17 953 53 q 654 -19 768 -19 q 439 19 538 -19 q 267 126 340 57 q 152 286 193 194 q 111 486 111 378 q 152 686 111 594 q 267 847 193 778 q 439 953 340 915 q 654 992 538 992 q 763 985 704 992 q 876 966 822 978 q 968 938 931 954 l 961 860 l 953 860 q 819 933 897 908 q 654 958 742 958 q 425 899 524 958 q 272 734 326 840 q 217 486 217 628 q 272 238 217 344 q 425 73 326 132 q 654 14 524 14 q 803 36 735 14 q 922 100 872 58 l 922 461 l 665 461 m 671 1257 l 839 1076 l 821 1060 l 653 1171 l 485 1060 l 467 1076 l 635 1257 l 671 1257 z "},"Ģ":{"ha":1156,"x_min":111,"x_max":1017,"o":"m 665 461 l 665 494 l 1017 494 l 1017 117 q 860 17 953 53 q 654 -19 768 -19 q 439 19 538 -19 q 267 126 340 57 q 152 286 193 194 q 111 486 111 378 q 152 686 111 594 q 267 847 193 778 q 439 953 340 915 q 654 992 538 992 q 763 985 704 992 q 876 966 822 978 q 968 938 931 954 l 961 860 l 953 860 q 819 933 897 908 q 654 958 742 958 q 425 899 524 958 q 272 734 326 840 q 217 486 217 628 q 272 238 217 344 q 425 73 326 132 q 654 14 524 14 q 803 36 735 14 q 922 100 872 58 l 922 461 l 665 461 m 588 -139 q 606 -93 588 -111 q 654 -75 625 -75 q 722 -172 722 -75 q 697 -268 722 -225 q 611 -356 672 -311 l 596 -336 q 664 -260 647 -294 q 681 -182 681 -226 q 644 -199 668 -199 q 603 -181 618 -199 q 588 -139 588 -164 z "},"ģ":{"ha":1156,"x_min":111,"x_max":1017,"o":"m 665 461 l 665 494 l 1017 494 l 1017 117 q 860 17 953 53 q 654 -19 768 -19 q 439 19 538 -19 q 267 126 340 57 q 152 286 193 194 q 111 486 111 378 q 152 686 111 594 q 267 847 193 778 q 439 953 340 915 q 654 992 538 992 q 763 985 704 992 q 876 966 822 978 q 968 938 931 954 l 961 860 l 953 860 q 819 933 897 908 q 654 958 742 958 q 425 899 524 958 q 272 734 326 840 q 217 486 217 628 q 272 238 217 344 q 425 73 326 132 q 654 14 524 14 q 803 36 735 14 q 922 100 872 58 l 922 461 l 665 461 m 588 -139 q 606 -93 588 -111 q 654 -75 625 -75 q 722 -172 722 -75 q 697 -268 722 -225 q 611 -356 672 -311 l 596 -336 q 664 -260 647 -294 q 681 -182 681 -226 q 644 -199 668 -199 q 603 -181 618 -199 q 588 -139 588 -164 z "},"Ġ":{"ha":1156,"x_min":111,"x_max":1017,"o":"m 665 461 l 665 494 l 1017 494 l 1017 117 q 860 17 953 53 q 654 -19 768 -19 q 439 19 538 -19 q 267 126 340 57 q 152 286 193 194 q 111 486 111 378 q 152 686 111 594 q 267 847 193 778 q 439 953 340 915 q 654 992 538 992 q 763 985 704 992 q 876 966 822 978 q 968 938 931 954 l 961 860 l 953 860 q 819 933 897 908 q 654 958 742 958 q 425 899 524 958 q 272 734 326 840 q 217 486 217 628 q 272 238 217 344 q 425 73 326 132 q 654 14 524 14 q 803 36 735 14 q 922 100 872 58 l 922 461 l 665 461 m 586 1174 q 605 1222 586 1203 q 653 1240 624 1240 q 701 1222 682 1240 q 719 1174 719 1203 q 701 1126 719 1144 q 653 1107 682 1107 q 605 1126 624 1107 q 586 1174 586 1144 z "},"ġ":{"ha":1156,"x_min":111,"x_max":1017,"o":"m 665 461 l 665 494 l 1017 494 l 1017 117 q 860 17 953 53 q 654 -19 768 -19 q 439 19 538 -19 q 267 126 340 57 q 152 286 193 194 q 111 486 111 378 q 152 686 111 594 q 267 847 193 778 q 439 953 340 915 q 654 992 538 992 q 763 985 704 992 q 876 966 822 978 q 968 938 931 954 l 961 860 l 953 860 q 819 933 897 908 q 654 958 742 958 q 425 899 524 958 q 272 734 326 840 q 217 486 217 628 q 272 238 217 344 q 425 73 326 132 q 654 14 524 14 q 803 36 735 14 q 922 100 872 58 l 922 461 l 665 461 m 586 1174 q 605 1222 586 1203 q 653 1240 624 1240 q 701 1222 682 1240 q 719 1174 719 1203 q 701 1126 719 1144 q 653 1107 682 1107 q 605 1126 624 1107 q 586 1174 586 1144 z "},"H":{"ha":1133,"x_min":181,"x_max":953,"o":"m 181 0 l 181 972 l 275 972 l 275 522 l 858 522 l 858 972 l 953 972 l 953 0 l 858 0 l 858 489 l 275 489 l 275 0 l 181 0 z "},"h":{"ha":1133,"x_min":181,"x_max":953,"o":"m 181 0 l 181 972 l 275 972 l 275 522 l 858 522 l 858 972 l 953 972 l 953 0 l 858 0 l 858 489 l 275 489 l 275 0 l 181 0 z "},"Ħ":{"ha":1133,"x_min":53,"x_max":1081,"o":"m 181 0 l 181 767 l 53 767 l 53 800 l 181 800 l 181 972 l 275 972 l 275 800 l 858 800 l 858 972 l 953 972 l 953 800 l 1081 800 l 1081 767 l 953 767 l 953 0 l 858 0 l 858 489 l 275 489 l 275 0 l 181 0 m 275 522 l 858 522 l 858 767 l 275 767 l 275 522 z "},"ħ":{"ha":1133,"x_min":53,"x_max":1081,"o":"m 181 0 l 181 767 l 53 767 l 53 800 l 181 800 l 181 972 l 275 972 l 275 800 l 858 800 l 858 972 l 953 972 l 953 800 l 1081 800 l 1081 767 l 953 767 l 953 0 l 858 0 l 858 489 l 275 489 l 275 0 l 181 0 m 275 522 l 858 522 l 858 767 l 275 767 l 275 522 z "},"Ĥ":{"ha":1133,"x_min":181,"x_max":953,"o":"m 181 0 l 181 972 l 275 972 l 275 522 l 858 522 l 858 972 l 953 972 l 953 0 l 858 0 l 858 489 l 275 489 l 275 0 l 181 0 m 585 1257 l 753 1076 l 735 1060 l 567 1171 l 399 1060 l 381 1076 l 549 1257 l 585 1257 z "},"ĥ":{"ha":1133,"x_min":181,"x_max":953,"o":"m 181 0 l 181 972 l 275 972 l 275 522 l 858 522 l 858 972 l 953 972 l 953 0 l 858 0 l 858 489 l 275 489 l 275 0 l 181 0 m 585 1257 l 753 1076 l 735 1060 l 567 1171 l 399 1060 l 381 1076 l 549 1257 l 585 1257 z "},"I":{"ha":456,"x_min":181,"x_max":275,"o":"m 181 0 l 181 972 l 275 972 l 275 0 l 181 0 z "},"ı":{"ha":456,"x_min":181,"x_max":275,"o":"m 181 0 l 181 972 l 275 972 l 275 0 l 181 0 z "},"Ĳ":{"ha":911,"x_min":181,"x_max":731,"o":"m 181 0 l 181 972 l 275 972 l 275 0 l 181 0 m 636 86 l 636 972 l 731 972 l 731 94 q 682 -178 731 -81 q 533 -319 633 -275 l 529 -312 q 610 -181 585 -274 q 636 86 636 -89 z "},"ĳ":{"ha":911,"x_min":181,"x_max":731,"o":"m 181 0 l 181 972 l 275 972 l 275 0 l 181 0 m 636 86 l 636 972 l 731 972 l 731 94 q 682 -178 731 -81 q 533 -319 633 -275 l 529 -312 q 610 -181 585 -274 q 636 86 636 -89 z "},"Í":{"ha":456,"x_min":143,"x_max":403,"o":"m 181 0 l 181 972 l 275 972 l 275 0 l 181 0 m 143 1076 l 278 1246 l 403 1246 l 403 1238 l 161 1060 l 143 1076 z "},"í":{"ha":456,"x_min":143,"x_max":403,"o":"m 181 0 l 181 972 l 275 972 l 275 0 l 181 0 m 143 1076 l 278 1246 l 403 1246 l 403 1238 l 161 1060 l 143 1076 z "},"Ĭ":{"ha":456,"x_min":49,"x_max":407,"o":"m 181 0 l 181 972 l 275 972 l 275 0 l 181 0 m 228 1079 q 115 1126 161 1079 q 49 1258 68 1174 l 72 1267 q 142 1183 107 1207 q 228 1160 176 1160 q 315 1183 281 1160 q 383 1267 349 1207 l 407 1258 q 342 1126 389 1174 q 228 1079 294 1079 z "},"ĭ":{"ha":456,"x_min":49,"x_max":407,"o":"m 181 0 l 181 972 l 275 972 l 275 0 l 181 0 m 228 1079 q 115 1126 161 1079 q 49 1258 68 1174 l 72 1267 q 142 1183 107 1207 q 228 1160 176 1160 q 315 1183 281 1160 q 383 1267 349 1207 l 407 1258 q 342 1126 389 1174 q 228 1079 294 1079 z "},"Î":{"ha":456,"x_min":42,"x_max":414,"o":"m 181 0 l 181 972 l 275 972 l 275 0 l 181 0 m 246 1257 l 414 1076 l 396 1060 l 228 1171 l 60 1060 l 42 1076 l 210 1257 l 246 1257 z "},"î":{"ha":456,"x_min":42,"x_max":414,"o":"m 181 0 l 181 972 l 275 972 l 275 0 l 181 0 m 246 1257 l 414 1076 l 396 1060 l 228 1171 l 60 1060 l 42 1076 l 210 1257 l 246 1257 z "},"Ï":{"ha":456,"x_min":22,"x_max":433,"o":"m 181 0 l 181 972 l 275 972 l 275 0 l 181 0 m 308 1174 q 326 1219 308 1201 q 371 1236 344 1236 q 416 1219 399 1236 q 433 1174 433 1201 q 416 1129 433 1147 q 371 1111 399 1111 q 326 1129 344 1111 q 308 1174 308 1147 m 22 1174 q 40 1219 22 1201 q 85 1236 58 1236 q 130 1219 113 1236 q 147 1174 147 1201 q 130 1129 147 1147 q 85 1111 113 1111 q 40 1129 58 1111 q 22 1174 22 1147 z "},"ï":{"ha":456,"x_min":22,"x_max":433,"o":"m 181 0 l 181 972 l 275 972 l 275 0 l 181 0 m 308 1174 q 326 1219 308 1201 q 371 1236 344 1236 q 416 1219 399 1236 q 433 1174 433 1201 q 416 1129 433 1147 q 371 1111 399 1111 q 326 1129 344 1111 q 308 1174 308 1147 m 22 1174 q 40 1219 22 1201 q 85 1236 58 1236 q 130 1219 113 1236 q 147 1174 147 1201 q 130 1129 147 1147 q 85 1111 113 1111 q 40 1129 58 1111 q 22 1174 22 1147 z "},"İ":{"ha":456,"x_min":161,"x_max":294,"o":"m 181 0 l 181 972 l 275 972 l 275 0 l 181 0 m 161 1174 q 180 1222 161 1203 q 228 1240 199 1240 q 276 1222 257 1240 q 294 1174 294 1203 q 276 1126 294 1144 q 228 1107 257 1107 q 180 1126 199 1107 q 161 1174 161 1144 z "},"Ì":{"ha":456,"x_min":47,"x_max":307,"o":"m 181 0 l 181 972 l 275 972 l 275 0 l 181 0 m 307 1076 l 289 1060 l 47 1238 l 47 1246 l 172 1246 l 307 1076 z "},"ì":{"ha":456,"x_min":47,"x_max":307,"o":"m 181 0 l 181 972 l 275 972 l 275 0 l 181 0 m 307 1076 l 289 1060 l 47 1238 l 47 1246 l 172 1246 l 307 1076 z "},"Ī":{"ha":456,"x_min":42,"x_max":414,"o":"m 181 0 l 181 972 l 275 972 l 275 0 l 181 0 m 42 1138 l 42 1193 l 414 1193 l 414 1138 l 42 1138 z "},"ī":{"ha":456,"x_min":42,"x_max":414,"o":"m 181 0 l 181 972 l 275 972 l 275 0 l 181 0 m 42 1138 l 42 1193 l 414 1193 l 414 1138 l 42 1138 z "},"Į":{"ha":456,"x_min":115,"x_max":342,"o":"m 181 0 l 181 972 l 275 972 l 275 0 l 181 0 m 342 -247 q 228 -306 289 -306 q 146 -273 176 -306 q 115 -187 115 -240 q 149 -87 115 -135 q 260 14 183 -40 l 272 14 l 275 0 q 199 -164 199 -89 q 216 -226 199 -203 q 264 -250 233 -250 q 326 -228 296 -250 l 342 -247 z "},"į":{"ha":456,"x_min":115,"x_max":342,"o":"m 181 0 l 181 972 l 275 972 l 275 0 l 181 0 m 342 -247 q 228 -306 289 -306 q 146 -273 176 -306 q 115 -187 115 -240 q 149 -87 115 -135 q 260 14 183 -40 l 272 14 l 275 0 q 199 -164 199 -89 q 216 -226 199 -203 q 264 -250 233 -250 q 326 -228 296 -250 l 342 -247 z "},"Ĩ":{"ha":456,"x_min":4,"x_max":449,"o":"m 181 0 l 181 972 l 275 972 l 275 0 l 181 0 m 240 1213 q 284 1187 261 1199 q 332 1175 307 1175 q 376 1189 354 1175 q 428 1242 399 1203 l 449 1228 q 382 1128 413 1156 q 313 1100 351 1100 q 260 1112 283 1100 q 213 1138 236 1124 q 169 1163 192 1151 q 121 1175 146 1175 q 76 1162 99 1175 q 25 1108 54 1149 l 4 1122 q 71 1222 40 1194 q 140 1250 101 1250 q 194 1239 169 1250 q 240 1213 218 1228 z "},"ĩ":{"ha":456,"x_min":4,"x_max":449,"o":"m 181 0 l 181 972 l 275 972 l 275 0 l 181 0 m 240 1213 q 284 1187 261 1199 q 332 1175 307 1175 q 376 1189 354 1175 q 428 1242 399 1203 l 449 1228 q 382 1128 413 1156 q 313 1100 351 1100 q 260 1112 283 1100 q 213 1138 236 1124 q 169 1163 192 1151 q 121 1175 146 1175 q 76 1162 99 1175 q 25 1108 54 1149 l 4 1122 q 71 1222 40 1194 q 140 1250 101 1250 q 194 1239 169 1250 q 240 1213 218 1228 z "},"J":{"ha":456,"x_min":74,"x_max":275,"o":"m 181 86 l 181 972 l 275 972 l 275 94 q 226 -178 275 -81 q 78 -319 178 -275 l 74 -312 q 155 -181 129 -274 q 181 86 181 -89 z "},"j":{"ha":456,"x_min":74,"x_max":275,"o":"m 181 86 l 181 972 l 275 972 l 275 94 q 226 -178 275 -81 q 78 -319 178 -275 l 74 -312 q 155 -181 129 -274 q 181 86 181 -89 z "},"Ĵ":{"ha":456,"x_min":42,"x_max":414,"o":"m 181 86 l 181 972 l 275 972 l 275 94 q 226 -178 275 -81 q 78 -319 178 -275 l 74 -312 q 155 -181 129 -274 q 181 86 181 -89 m 246 1257 l 414 1076 l 396 1060 l 228 1171 l 60 1060 l 42 1076 l 210 1257 l 246 1257 z "},"ĵ":{"ha":456,"x_min":42,"x_max":414,"o":"m 181 86 l 181 972 l 275 972 l 275 94 q 226 -178 275 -81 q 78 -319 178 -275 l 74 -312 q 155 -181 129 -274 q 181 86 181 -89 m 246 1257 l 414 1076 l 396 1060 l 228 1171 l 60 1060 l 42 1076 l 210 1257 l 246 1257 z "},"K":{"ha":933,"x_min":181,"x_max":906,"o":"m 781 0 l 325 499 l 747 972 l 867 972 l 410 538 l 906 0 l 781 0 m 181 0 l 181 972 l 275 972 l 275 0 l 181 0 z "},"k":{"ha":933,"x_min":181,"x_max":906,"o":"m 781 0 l 325 499 l 747 972 l 867 972 l 410 538 l 906 0 l 781 0 m 181 0 l 181 972 l 275 972 l 275 0 l 181 0 z "},"Ķ":{"ha":933,"x_min":181,"x_max":906,"o":"m 781 0 l 325 499 l 747 972 l 867 972 l 410 538 l 906 0 l 781 0 m 181 0 l 181 972 l 275 972 l 275 0 l 181 0 m 449 -139 q 467 -93 449 -111 q 515 -75 486 -75 q 583 -172 583 -75 q 558 -268 583 -225 q 472 -356 533 -311 l 457 -336 q 525 -260 508 -294 q 542 -182 542 -226 q 506 -199 529 -199 q 464 -181 479 -199 q 449 -139 449 -164 z "},"ķ":{"ha":933,"x_min":181,"x_max":906,"o":"m 781 0 l 325 499 l 747 972 l 867 972 l 410 538 l 906 0 l 781 0 m 181 0 l 181 972 l 275 972 l 275 0 l 181 0 m 449 -139 q 467 -93 449 -111 q 515 -75 486 -75 q 583 -172 583 -75 q 558 -268 583 -225 q 472 -356 533 -311 l 457 -336 q 525 -260 508 -294 q 542 -182 542 -226 q 506 -199 529 -199 q 464 -181 479 -199 q 449 -139 449 -164 z "},"L":{"ha":640,"x_min":181,"x_max":589,"o":"m 181 972 l 275 972 l 275 28 q 358 36 301 28 l 589 71 l 589 0 l 181 0 l 181 972 z "},"l":{"ha":640,"x_min":181,"x_max":589,"o":"m 181 972 l 275 972 l 275 28 q 358 36 301 28 l 589 71 l 589 0 l 181 0 l 181 972 z "},"Ĺ":{"ha":640,"x_min":146,"x_max":589,"o":"m 181 972 l 275 972 l 275 28 q 358 36 301 28 l 589 71 l 589 0 l 181 0 l 181 972 m 146 1076 l 281 1246 l 406 1246 l 406 1238 l 164 1060 l 146 1076 z "},"ĺ":{"ha":640,"x_min":146,"x_max":589,"o":"m 181 972 l 275 972 l 275 28 q 358 36 301 28 l 589 71 l 589 0 l 181 0 l 181 972 m 146 1076 l 281 1246 l 406 1246 l 406 1238 l 164 1060 l 146 1076 z "},"Ľ":{"ha":640,"x_min":181,"x_max":589,"o":"m 181 972 l 275 972 l 275 28 q 358 36 301 28 l 589 71 l 589 0 l 181 0 l 181 972 m 444 1022 q 458 1056 444 1043 q 494 1068 472 1068 q 556 993 556 1068 q 532 897 556 950 q 467 797 508 844 l 447 813 q 479 914 479 856 q 474 953 479 936 q 457 988 468 969 q 448 1004 451 996 q 444 1022 444 1013 z "},"ľ":{"ha":640,"x_min":181,"x_max":589,"o":"m 181 972 l 275 972 l 275 28 q 358 36 301 28 l 589 71 l 589 0 l 181 0 l 181 972 m 444 1022 q 458 1056 444 1043 q 494 1068 472 1068 q 556 993 556 1068 q 532 897 556 950 q 467 797 508 844 l 447 813 q 479 914 479 856 q 474 953 479 936 q 457 988 468 969 q 448 1004 451 996 q 444 1022 444 1013 z "},"Ļ":{"ha":640,"x_min":181,"x_max":589,"o":"m 181 972 l 275 972 l 275 28 q 358 36 301 28 l 589 71 l 589 0 l 181 0 l 181 972 m 321 -139 q 340 -93 321 -111 q 388 -75 358 -75 q 456 -172 456 -75 q 431 -268 456 -225 q 344 -356 406 -311 l 329 -336 q 397 -260 381 -294 q 414 -182 414 -226 q 378 -199 401 -199 q 336 -181 351 -199 q 321 -139 321 -164 z "},"ļ":{"ha":640,"x_min":181,"x_max":589,"o":"m 181 972 l 275 972 l 275 28 q 358 36 301 28 l 589 71 l 589 0 l 181 0 l 181 972 m 321 -139 q 340 -93 321 -111 q 388 -75 358 -75 q 456 -172 456 -75 q 431 -268 456 -225 q 344 -356 406 -311 l 329 -336 q 397 -260 381 -294 q 414 -182 414 -226 q 378 -199 401 -199 q 336 -181 351 -199 q 321 -139 321 -164 z "},"Ŀ":{"ha":640,"x_min":181,"x_max":596,"o":"m 181 972 l 275 972 l 275 28 q 358 36 301 28 l 589 71 l 589 0 l 181 0 l 181 972 m 457 500 q 476 550 457 531 q 526 569 496 569 q 576 550 557 569 q 596 500 596 531 q 576 450 596 469 q 526 431 557 431 q 476 450 496 431 q 457 500 457 469 z "},"ŀ":{"ha":640,"x_min":181,"x_max":596,"o":"m 181 972 l 275 972 l 275 28 q 358 36 301 28 l 589 71 l 589 0 l 181 0 l 181 972 m 457 500 q 476 550 457 531 q 526 569 496 569 q 576 550 557 569 q 596 500 596 531 q 576 450 596 469 q 526 431 557 431 q 476 450 496 431 q 457 500 457 469 z "},"Ł":{"ha":640,"x_min":53,"x_max":589,"o":"m 64 429 l 53 461 l 181 507 l 181 972 l 275 972 l 275 535 l 471 606 l 482 574 l 275 499 l 275 28 q 358 36 301 28 l 589 71 l 589 0 l 181 0 l 181 471 l 64 429 z "},"ł":{"ha":640,"x_min":53,"x_max":589,"o":"m 64 429 l 53 461 l 181 507 l 181 972 l 275 972 l 275 535 l 471 606 l 482 574 l 275 499 l 275 28 q 358 36 301 28 l 589 71 l 589 0 l 181 0 l 181 471 l 64 429 z "},"M":{"ha":1276,"x_min":160,"x_max":1096,"o":"m 1096 972 l 1096 0 l 1001 0 l 1001 892 l 993 892 l 657 247 l 614 247 l 232 815 l 224 815 l 254 0 l 160 0 l 194 992 l 222 992 l 660 342 l 668 342 l 996 972 l 1096 972 z "},"m":{"ha":1276,"x_min":160,"x_max":1096,"o":"m 1096 972 l 1096 0 l 1001 0 l 1001 892 l 993 892 l 657 247 l 614 247 l 232 815 l 224 815 l 254 0 l 160 0 l 194 992 l 222 992 l 660 342 l 668 342 l 996 972 l 1096 972 z "},"N":{"ha":1142,"x_min":160,"x_max":982,"o":"m 160 0 l 194 992 l 211 992 l 910 147 l 918 147 l 888 972 l 982 972 l 947 -19 l 931 -19 l 232 825 l 224 825 l 254 0 l 160 0 z "},"n":{"ha":1142,"x_min":160,"x_max":982,"o":"m 160 0 l 194 992 l 211 992 l 910 147 l 918 147 l 888 972 l 982 972 l 947 -19 l 931 -19 l 232 825 l 224 825 l 254 0 l 160 0 z "},"Ń":{"ha":1142,"x_min":160,"x_max":982,"o":"m 160 0 l 194 992 l 211 992 l 910 147 l 918 147 l 888 972 l 982 972 l 947 -19 l 931 -19 l 232 825 l 224 825 l 254 0 l 160 0 m 486 1076 l 621 1246 l 746 1246 l 746 1238 l 504 1060 l 486 1076 z "},"ń":{"ha":1142,"x_min":160,"x_max":982,"o":"m 160 0 l 194 992 l 211 992 l 910 147 l 918 147 l 888 972 l 982 972 l 947 -19 l 931 -19 l 232 825 l 224 825 l 254 0 l 160 0 m 486 1076 l 621 1246 l 746 1246 l 746 1238 l 504 1060 l 486 1076 z "},"Ň":{"ha":1142,"x_min":160,"x_max":982,"o":"m 160 0 l 194 992 l 211 992 l 910 147 l 918 147 l 888 972 l 982 972 l 947 -19 l 931 -19 l 232 825 l 224 825 l 254 0 l 160 0 m 553 1078 l 385 1258 l 403 1275 l 571 1164 l 739 1275 l 757 1258 l 589 1078 l 553 1078 z "},"ň":{"ha":1142,"x_min":160,"x_max":982,"o":"m 160 0 l 194 992 l 211 992 l 910 147 l 918 147 l 888 972 l 982 972 l 947 -19 l 931 -19 l 232 825 l 224 825 l 254 0 l 160 0 m 553 1078 l 385 1258 l 403 1275 l 571 1164 l 739 1275 l 757 1258 l 589 1078 l 553 1078 z "},"Ņ":{"ha":1142,"x_min":160,"x_max":982,"o":"m 160 0 l 194 992 l 211 992 l 910 147 l 918 147 l 888 972 l 982 972 l 947 -19 l 931 -19 l 232 825 l 224 825 l 254 0 l 160 0 m 503 -139 q 522 -93 503 -111 q 569 -75 540 -75 q 638 -172 638 -75 q 613 -268 638 -225 q 526 -356 588 -311 l 511 -336 q 579 -260 563 -294 q 596 -182 596 -226 q 560 -199 583 -199 q 518 -181 533 -199 q 503 -139 503 -164 z "},"ņ":{"ha":1142,"x_min":160,"x_max":982,"o":"m 160 0 l 194 992 l 211 992 l 910 147 l 918 147 l 888 972 l 982 972 l 947 -19 l 931 -19 l 232 825 l 224 825 l 254 0 l 160 0 m 503 -139 q 522 -93 503 -111 q 569 -75 540 -75 q 638 -172 638 -75 q 613 -268 638 -225 q 526 -356 588 -311 l 511 -336 q 579 -260 563 -294 q 596 -182 596 -226 q 560 -199 583 -199 q 518 -181 533 -199 q 503 -139 503 -164 z "},"Ɲ":{"ha":1083,"x_min":53,"x_max":982,"o":"m 163 90 l 194 992 l 211 992 l 910 147 l 918 147 l 888 972 l 982 972 l 947 -19 l 931 -19 l 232 825 l 224 825 l 251 89 q 238 -89 256 -6 q 175 -232 219 -172 q 56 -315 131 -292 l 53 -307 q 119 -230 97 -275 q 149 -109 140 -185 q 163 90 158 -33 z "},"ɲ":{"ha":1083,"x_min":53,"x_max":982,"o":"m 163 90 l 194 992 l 211 992 l 910 147 l 918 147 l 888 972 l 982 972 l 947 -19 l 931 -19 l 232 825 l 224 825 l 251 89 q 238 -89 256 -6 q 175 -232 219 -172 q 56 -315 131 -292 l 53 -307 q 119 -230 97 -275 q 149 -109 140 -185 q 163 90 158 -33 z "},"Ñ":{"ha":1142,"x_min":160,"x_max":982,"o":"m 160 0 l 194 992 l 211 992 l 910 147 l 918 147 l 888 972 l 982 972 l 947 -19 l 931 -19 l 232 825 l 224 825 l 254 0 l 160 0 m 583 1213 q 627 1187 604 1199 q 675 1175 650 1175 q 719 1189 697 1175 q 771 1242 742 1203 l 792 1228 q 725 1128 756 1156 q 656 1100 694 1100 q 603 1112 626 1100 q 556 1138 579 1124 q 512 1163 535 1151 q 464 1175 489 1175 q 419 1162 442 1175 q 368 1108 397 1149 l 347 1122 q 414 1222 383 1194 q 483 1250 444 1250 q 537 1239 513 1250 q 583 1213 561 1228 z "},"ñ":{"ha":1142,"x_min":160,"x_max":982,"o":"m 160 0 l 194 992 l 211 992 l 910 147 l 918 147 l 888 972 l 982 972 l 947 -19 l 931 -19 l 232 825 l 224 825 l 254 0 l 160 0 m 583 1213 q 627 1187 604 1199 q 675 1175 650 1175 q 719 1189 697 1175 q 771 1242 742 1203 l 792 1228 q 725 1128 756 1156 q 656 1100 694 1100 q 603 1112 626 1100 q 556 1138 579 1124 q 512 1163 535 1151 q 464 1175 489 1175 q 419 1162 442 1175 q 368 1108 397 1149 l 347 1122 q 414 1222 383 1194 q 483 1250 444 1250 q 537 1239 513 1250 q 583 1213 561 1228 z "},"Ŋ":{"ha":1142,"x_min":160,"x_max":982,"o":"m 160 0 l 194 992 l 211 992 l 910 147 l 918 147 l 888 972 l 982 972 l 951 94 q 902 -181 946 -81 q 750 -315 858 -282 l 747 -307 q 830 -186 806 -275 q 856 71 854 -97 l 232 825 l 224 825 l 254 0 l 160 0 z "},"ŋ":{"ha":1142,"x_min":160,"x_max":982,"o":"m 160 0 l 194 992 l 211 992 l 910 147 l 918 147 l 888 972 l 982 972 l 951 94 q 902 -181 946 -81 q 750 -315 858 -282 l 747 -307 q 830 -186 806 -275 q 856 71 854 -97 l 232 825 l 224 825 l 254 0 l 160 0 z "},"O":{"ha":1233,"x_min":111,"x_max":1122,"o":"m 111 486 q 149 685 111 593 q 256 847 188 778 q 417 953 325 915 q 617 992 510 992 q 816 953 724 992 q 977 847 908 915 q 1084 685 1046 778 q 1122 486 1122 593 q 1084 287 1122 379 q 977 126 1046 194 q 816 19 908 57 q 617 -19 724 -19 q 417 19 510 -19 q 256 126 325 57 q 149 287 188 194 q 111 486 111 379 m 217 486 q 267 238 217 344 q 407 73 317 132 q 617 14 497 14 q 826 73 736 14 q 967 239 917 132 q 1017 486 1017 346 q 967 733 1017 626 q 826 899 917 839 q 617 958 736 958 q 408 899 497 958 q 267 734 318 840 q 217 486 217 628 z "},"o":{"ha":1233,"x_min":111,"x_max":1122,"o":"m 111 486 q 149 685 111 593 q 256 847 188 778 q 417 953 325 915 q 617 992 510 992 q 816 953 724 992 q 977 847 908 915 q 1084 685 1046 778 q 1122 486 1122 593 q 1084 287 1122 379 q 977 126 1046 194 q 816 19 908 57 q 617 -19 724 -19 q 417 19 510 -19 q 256 126 325 57 q 149 287 188 194 q 111 486 111 379 m 217 486 q 267 238 217 344 q 407 73 317 132 q 617 14 497 14 q 826 73 736 14 q 967 239 917 132 q 1017 486 1017 346 q 967 733 1017 626 q 826 899 917 839 q 617 958 736 958 q 408 899 497 958 q 267 734 318 840 q 217 486 217 628 z "},"Ó":{"ha":1233,"x_min":111,"x_max":1122,"o":"m 111 486 q 149 685 111 593 q 256 847 188 778 q 417 953 325 915 q 617 992 510 992 q 816 953 724 992 q 977 847 908 915 q 1084 685 1046 778 q 1122 486 1122 593 q 1084 287 1122 379 q 977 126 1046 194 q 816 19 908 57 q 617 -19 724 -19 q 417 19 510 -19 q 256 126 325 57 q 149 287 188 194 q 111 486 111 379 m 217 486 q 267 238 217 344 q 407 73 317 132 q 617 14 497 14 q 826 73 736 14 q 967 239 917 132 q 1017 486 1017 346 q 967 733 1017 626 q 826 899 917 839 q 617 958 736 958 q 408 899 497 958 q 267 734 318 840 q 217 486 217 628 m 532 1076 l 667 1246 l 792 1246 l 792 1238 l 550 1060 l 532 1076 z "},"ó":{"ha":1233,"x_min":111,"x_max":1122,"o":"m 111 486 q 149 685 111 593 q 256 847 188 778 q 417 953 325 915 q 617 992 510 992 q 816 953 724 992 q 977 847 908 915 q 1084 685 1046 778 q 1122 486 1122 593 q 1084 287 1122 379 q 977 126 1046 194 q 816 19 908 57 q 617 -19 724 -19 q 417 19 510 -19 q 256 126 325 57 q 149 287 188 194 q 111 486 111 379 m 217 486 q 267 238 217 344 q 407 73 317 132 q 617 14 497 14 q 826 73 736 14 q 967 239 917 132 q 1017 486 1017 346 q 967 733 1017 626 q 826 899 917 839 q 617 958 736 958 q 408 899 497 958 q 267 734 318 840 q 217 486 217 628 m 532 1076 l 667 1246 l 792 1246 l 792 1238 l 550 1060 l 532 1076 z "},"Ŏ":{"ha":1233,"x_min":111,"x_max":1122,"o":"m 111 486 q 149 685 111 593 q 256 847 188 778 q 417 953 325 915 q 617 992 510 992 q 816 953 724 992 q 977 847 908 915 q 1084 685 1046 778 q 1122 486 1122 593 q 1084 287 1122 379 q 977 126 1046 194 q 816 19 908 57 q 617 -19 724 -19 q 417 19 510 -19 q 256 126 325 57 q 149 287 188 194 q 111 486 111 379 m 217 486 q 267 238 217 344 q 407 73 317 132 q 617 14 497 14 q 826 73 736 14 q 967 239 917 132 q 1017 486 1017 346 q 967 733 1017 626 q 826 899 917 839 q 617 958 736 958 q 408 899 497 958 q 267 734 318 840 q 217 486 217 628 m 617 1079 q 503 1126 550 1079 q 438 1258 457 1174 l 461 1267 q 531 1183 496 1207 q 617 1160 565 1160 q 703 1183 669 1160 q 772 1267 738 1207 l 796 1258 q 731 1126 778 1174 q 617 1079 683 1079 z "},"ŏ":{"ha":1233,"x_min":111,"x_max":1122,"o":"m 111 486 q 149 685 111 593 q 256 847 188 778 q 417 953 325 915 q 617 992 510 992 q 816 953 724 992 q 977 847 908 915 q 1084 685 1046 778 q 1122 486 1122 593 q 1084 287 1122 379 q 977 126 1046 194 q 816 19 908 57 q 617 -19 724 -19 q 417 19 510 -19 q 256 126 325 57 q 149 287 188 194 q 111 486 111 379 m 217 486 q 267 238 217 344 q 407 73 317 132 q 617 14 497 14 q 826 73 736 14 q 967 239 917 132 q 1017 486 1017 346 q 967 733 1017 626 q 826 899 917 839 q 617 958 736 958 q 408 899 497 958 q 267 734 318 840 q 217 486 217 628 m 617 1079 q 503 1126 550 1079 q 438 1258 457 1174 l 461 1267 q 531 1183 496 1207 q 617 1160 565 1160 q 703 1183 669 1160 q 772 1267 738 1207 l 796 1258 q 731 1126 778 1174 q 617 1079 683 1079 z "},"Ǒ":{"ha":1233,"x_min":111,"x_max":1122,"o":"m 111 486 q 149 685 111 593 q 256 847 188 778 q 417 953 325 915 q 617 992 510 992 q 816 953 724 992 q 977 847 908 915 q 1084 685 1046 778 q 1122 486 1122 593 q 1084 287 1122 379 q 977 126 1046 194 q 816 19 908 57 q 617 -19 724 -19 q 417 19 510 -19 q 256 126 325 57 q 149 287 188 194 q 111 486 111 379 m 217 486 q 267 238 217 344 q 407 73 317 132 q 617 14 497 14 q 826 73 736 14 q 967 239 917 132 q 1017 486 1017 346 q 967 733 1017 626 q 826 899 917 839 q 617 958 736 958 q 408 899 497 958 q 267 734 318 840 q 217 486 217 628 m 599 1078 l 431 1258 l 449 1275 l 617 1164 l 785 1275 l 803 1258 l 635 1078 l 599 1078 z "},"ǒ":{"ha":1233,"x_min":111,"x_max":1122,"o":"m 111 486 q 149 685 111 593 q 256 847 188 778 q 417 953 325 915 q 617 992 510 992 q 816 953 724 992 q 977 847 908 915 q 1084 685 1046 778 q 1122 486 1122 593 q 1084 287 1122 379 q 977 126 1046 194 q 816 19 908 57 q 617 -19 724 -19 q 417 19 510 -19 q 256 126 325 57 q 149 287 188 194 q 111 486 111 379 m 217 486 q 267 238 217 344 q 407 73 317 132 q 617 14 497 14 q 826 73 736 14 q 967 239 917 132 q 1017 486 1017 346 q 967 733 1017 626 q 826 899 917 839 q 617 958 736 958 q 408 899 497 958 q 267 734 318 840 q 217 486 217 628 m 599 1078 l 431 1258 l 449 1275 l 617 1164 l 785 1275 l 803 1258 l 635 1078 l 599 1078 z "},"Ô":{"ha":1233,"x_min":111,"x_max":1122,"o":"m 111 486 q 149 685 111 593 q 256 847 188 778 q 417 953 325 915 q 617 992 510 992 q 816 953 724 992 q 977 847 908 915 q 1084 685 1046 778 q 1122 486 1122 593 q 1084 287 1122 379 q 977 126 1046 194 q 816 19 908 57 q 617 -19 724 -19 q 417 19 510 -19 q 256 126 325 57 q 149 287 188 194 q 111 486 111 379 m 217 486 q 267 238 217 344 q 407 73 317 132 q 617 14 497 14 q 826 73 736 14 q 967 239 917 132 q 1017 486 1017 346 q 967 733 1017 626 q 826 899 917 839 q 617 958 736 958 q 408 899 497 958 q 267 734 318 840 q 217 486 217 628 m 635 1257 l 803 1076 l 785 1060 l 617 1171 l 449 1060 l 431 1076 l 599 1257 l 635 1257 z "},"ô":{"ha":1233,"x_min":111,"x_max":1122,"o":"m 111 486 q 149 685 111 593 q 256 847 188 778 q 417 953 325 915 q 617 992 510 992 q 816 953 724 992 q 977 847 908 915 q 1084 685 1046 778 q 1122 486 1122 593 q 1084 287 1122 379 q 977 126 1046 194 q 816 19 908 57 q 617 -19 724 -19 q 417 19 510 -19 q 256 126 325 57 q 149 287 188 194 q 111 486 111 379 m 217 486 q 267 238 217 344 q 407 73 317 132 q 617 14 497 14 q 826 73 736 14 q 967 239 917 132 q 1017 486 1017 346 q 967 733 1017 626 q 826 899 917 839 q 617 958 736 958 q 408 899 497 958 q 267 734 318 840 q 217 486 217 628 m 635 1257 l 803 1076 l 785 1060 l 617 1171 l 449 1060 l 431 1076 l 599 1257 l 635 1257 z "},"Ö":{"ha":1233,"x_min":111,"x_max":1122,"o":"m 111 486 q 149 685 111 593 q 256 847 188 778 q 417 953 325 915 q 617 992 510 992 q 816 953 724 992 q 977 847 908 915 q 1084 685 1046 778 q 1122 486 1122 593 q 1084 287 1122 379 q 977 126 1046 194 q 816 19 908 57 q 617 -19 724 -19 q 417 19 510 -19 q 256 126 325 57 q 149 287 188 194 q 111 486 111 379 m 217 486 q 267 238 217 344 q 407 73 317 132 q 617 14 497 14 q 826 73 736 14 q 967 239 917 132 q 1017 486 1017 346 q 967 733 1017 626 q 826 899 917 839 q 617 958 736 958 q 408 899 497 958 q 267 734 318 840 q 217 486 217 628 m 697 1174 q 715 1219 697 1201 q 760 1236 733 1236 q 805 1219 788 1236 q 822 1174 822 1201 q 805 1129 822 1147 q 760 1111 788 1111 q 715 1129 733 1111 q 697 1174 697 1147 m 411 1174 q 429 1219 411 1201 q 474 1236 447 1236 q 519 1219 501 1236 q 536 1174 536 1201 q 519 1129 536 1147 q 474 1111 501 1111 q 429 1129 447 1111 q 411 1174 411 1147 z "},"ö":{"ha":1233,"x_min":111,"x_max":1122,"o":"m 111 486 q 149 685 111 593 q 256 847 188 778 q 417 953 325 915 q 617 992 510 992 q 816 953 724 992 q 977 847 908 915 q 1084 685 1046 778 q 1122 486 1122 593 q 1084 287 1122 379 q 977 126 1046 194 q 816 19 908 57 q 617 -19 724 -19 q 417 19 510 -19 q 256 126 325 57 q 149 287 188 194 q 111 486 111 379 m 217 486 q 267 238 217 344 q 407 73 317 132 q 617 14 497 14 q 826 73 736 14 q 967 239 917 132 q 1017 486 1017 346 q 967 733 1017 626 q 826 899 917 839 q 617 958 736 958 q 408 899 497 958 q 267 734 318 840 q 217 486 217 628 m 697 1174 q 715 1219 697 1201 q 760 1236 733 1236 q 805 1219 788 1236 q 822 1174 822 1201 q 805 1129 822 1147 q 760 1111 788 1111 q 715 1129 733 1111 q 697 1174 697 1147 m 411 1174 q 429 1219 411 1201 q 474 1236 447 1236 q 519 1219 501 1236 q 536 1174 536 1201 q 519 1129 536 1147 q 474 1111 501 1111 q 429 1129 447 1111 q 411 1174 411 1147 z "},"Ò":{"ha":1233,"x_min":111,"x_max":1122,"o":"m 111 486 q 149 685 111 593 q 256 847 188 778 q 417 953 325 915 q 617 992 510 992 q 816 953 724 992 q 977 847 908 915 q 1084 685 1046 778 q 1122 486 1122 593 q 1084 287 1122 379 q 977 126 1046 194 q 816 19 908 57 q 617 -19 724 -19 q 417 19 510 -19 q 256 126 325 57 q 149 287 188 194 q 111 486 111 379 m 217 486 q 267 238 217 344 q 407 73 317 132 q 617 14 497 14 q 826 73 736 14 q 967 239 917 132 q 1017 486 1017 346 q 967 733 1017 626 q 826 899 917 839 q 617 958 736 958 q 408 899 497 958 q 267 734 318 840 q 217 486 217 628 m 696 1076 l 678 1060 l 436 1238 l 436 1246 l 561 1246 l 696 1076 z "},"ò":{"ha":1233,"x_min":111,"x_max":1122,"o":"m 111 486 q 149 685 111 593 q 256 847 188 778 q 417 953 325 915 q 617 992 510 992 q 816 953 724 992 q 977 847 908 915 q 1084 685 1046 778 q 1122 486 1122 593 q 1084 287 1122 379 q 977 126 1046 194 q 816 19 908 57 q 617 -19 724 -19 q 417 19 510 -19 q 256 126 325 57 q 149 287 188 194 q 111 486 111 379 m 217 486 q 267 238 217 344 q 407 73 317 132 q 617 14 497 14 q 826 73 736 14 q 967 239 917 132 q 1017 486 1017 346 q 967 733 1017 626 q 826 899 917 839 q 617 958 736 958 q 408 899 497 958 q 267 734 318 840 q 217 486 217 628 m 696 1076 l 678 1060 l 436 1238 l 436 1246 l 561 1246 l 696 1076 z "},"Ő":{"ha":1233,"x_min":111,"x_max":1122,"o":"m 111 486 q 149 685 111 593 q 256 847 188 778 q 417 953 325 915 q 617 992 510 992 q 816 953 724 992 q 977 847 908 915 q 1084 685 1046 778 q 1122 486 1122 593 q 1084 287 1122 379 q 977 126 1046 194 q 816 19 908 57 q 617 -19 724 -19 q 417 19 510 -19 q 256 126 325 57 q 149 287 188 194 q 111 486 111 379 m 217 486 q 267 238 217 344 q 407 73 317 132 q 617 14 497 14 q 826 73 736 14 q 967 239 917 132 q 1017 486 1017 346 q 967 733 1017 626 q 826 899 917 839 q 617 958 736 958 q 408 899 497 958 q 267 734 318 840 q 217 486 217 628 m 451 1076 l 571 1249 l 683 1249 l 683 1240 l 469 1060 l 451 1076 m 674 1076 l 793 1249 l 906 1249 l 906 1240 l 692 1060 l 674 1076 z "},"ő":{"ha":1233,"x_min":111,"x_max":1122,"o":"m 111 486 q 149 685 111 593 q 256 847 188 778 q 417 953 325 915 q 617 992 510 992 q 816 953 724 992 q 977 847 908 915 q 1084 685 1046 778 q 1122 486 1122 593 q 1084 287 1122 379 q 977 126 1046 194 q 816 19 908 57 q 617 -19 724 -19 q 417 19 510 -19 q 256 126 325 57 q 149 287 188 194 q 111 486 111 379 m 217 486 q 267 238 217 344 q 407 73 317 132 q 617 14 497 14 q 826 73 736 14 q 967 239 917 132 q 1017 486 1017 346 q 967 733 1017 626 q 826 899 917 839 q 617 958 736 958 q 408 899 497 958 q 267 734 318 840 q 217 486 217 628 m 451 1076 l 571 1249 l 683 1249 l 683 1240 l 469 1060 l 451 1076 m 674 1076 l 793 1249 l 906 1249 l 906 1240 l 692 1060 l 674 1076 z "},"Ō":{"ha":1233,"x_min":111,"x_max":1122,"o":"m 111 486 q 149 685 111 593 q 256 847 188 778 q 417 953 325 915 q 617 992 510 992 q 816 953 724 992 q 977 847 908 915 q 1084 685 1046 778 q 1122 486 1122 593 q 1084 287 1122 379 q 977 126 1046 194 q 816 19 908 57 q 617 -19 724 -19 q 417 19 510 -19 q 256 126 325 57 q 149 287 188 194 q 111 486 111 379 m 217 486 q 267 238 217 344 q 407 73 317 132 q 617 14 497 14 q 826 73 736 14 q 967 239 917 132 q 1017 486 1017 346 q 967 733 1017 626 q 826 899 917 839 q 617 958 736 958 q 408 899 497 958 q 267 734 318 840 q 217 486 217 628 m 431 1138 l 431 1193 l 803 1193 l 803 1138 l 431 1138 z "},"ō":{"ha":1233,"x_min":111,"x_max":1122,"o":"m 111 486 q 149 685 111 593 q 256 847 188 778 q 417 953 325 915 q 617 992 510 992 q 816 953 724 992 q 977 847 908 915 q 1084 685 1046 778 q 1122 486 1122 593 q 1084 287 1122 379 q 977 126 1046 194 q 816 19 908 57 q 617 -19 724 -19 q 417 19 510 -19 q 256 126 325 57 q 149 287 188 194 q 111 486 111 379 m 217 486 q 267 238 217 344 q 407 73 317 132 q 617 14 497 14 q 826 73 736 14 q 967 239 917 132 q 1017 486 1017 346 q 967 733 1017 626 q 826 899 917 839 q 617 958 736 958 q 408 899 497 958 q 267 734 318 840 q 217 486 217 628 m 431 1138 l 431 1193 l 803 1193 l 803 1138 l 431 1138 z "},"Ǫ":{"ha":1233,"x_min":111,"x_max":1122,"o":"m 111 486 q 149 685 111 593 q 256 847 188 778 q 417 953 325 915 q 617 992 510 992 q 816 953 724 992 q 977 847 908 915 q 1084 685 1046 778 q 1122 486 1122 593 q 1084 287 1122 379 q 977 126 1046 194 q 816 19 908 57 q 617 -19 724 -19 q 417 19 510 -19 q 256 126 325 57 q 149 287 188 194 q 111 486 111 379 m 217 486 q 267 238 217 344 q 407 73 317 132 q 617 14 497 14 q 826 73 736 14 q 967 239 917 132 q 1017 486 1017 346 q 967 733 1017 626 q 826 899 917 839 q 617 958 736 958 q 408 899 497 958 q 267 734 318 840 q 217 486 217 628 m 736 -247 q 622 -306 683 -306 q 540 -273 571 -306 q 510 -187 510 -240 q 544 -87 510 -135 q 654 14 578 -40 l 667 14 l 669 0 q 593 -164 593 -89 q 610 -226 593 -203 q 658 -250 628 -250 q 721 -228 690 -250 l 736 -247 z "},"ǫ":{"ha":1233,"x_min":111,"x_max":1122,"o":"m 111 486 q 149 685 111 593 q 256 847 188 778 q 417 953 325 915 q 617 992 510 992 q 816 953 724 992 q 977 847 908 915 q 1084 685 1046 778 q 1122 486 1122 593 q 1084 287 1122 379 q 977 126 1046 194 q 816 19 908 57 q 617 -19 724 -19 q 417 19 510 -19 q 256 126 325 57 q 149 287 188 194 q 111 486 111 379 m 217 486 q 267 238 217 344 q 407 73 317 132 q 617 14 497 14 q 826 73 736 14 q 967 239 917 132 q 1017 486 1017 346 q 967 733 1017 626 q 826 899 917 839 q 617 958 736 958 q 408 899 497 958 q 267 734 318 840 q 217 486 217 628 m 736 -247 q 622 -306 683 -306 q 540 -273 571 -306 q 510 -187 510 -240 q 544 -87 510 -135 q 654 14 578 -40 l 667 14 l 669 0 q 593 -164 593 -89 q 610 -226 593 -203 q 658 -250 628 -250 q 721 -228 690 -250 l 736 -247 z "},"Ø":{"ha":1233,"x_min":111,"x_max":1122,"o":"m 265 -87 l 347 54 q 176 234 240 121 q 111 486 111 347 q 149 685 111 593 q 256 847 188 778 q 417 953 325 915 q 617 992 510 992 q 742 977 682 992 q 856 935 803 963 l 929 1064 l 960 1047 l 885 918 q 1058 740 993 853 q 1122 486 1122 626 q 1084 287 1122 379 q 977 126 1046 194 q 816 19 908 57 q 617 -19 724 -19 q 491 -5 551 -19 q 378 38 431 10 l 296 -104 l 265 -87 m 217 486 q 258 259 217 358 q 372 99 299 160 l 832 894 q 617 958 739 958 q 408 899 497 958 q 267 734 318 840 q 217 486 217 628 m 1017 486 q 975 713 1017 613 q 860 874 933 813 l 400 78 q 617 14 494 14 q 826 73 736 14 q 967 239 917 132 q 1017 486 1017 346 z "},"ø":{"ha":1233,"x_min":111,"x_max":1122,"o":"m 265 -87 l 347 54 q 176 234 240 121 q 111 486 111 347 q 149 685 111 593 q 256 847 188 778 q 417 953 325 915 q 617 992 510 992 q 742 977 682 992 q 856 935 803 963 l 929 1064 l 960 1047 l 885 918 q 1058 740 993 853 q 1122 486 1122 626 q 1084 287 1122 379 q 977 126 1046 194 q 816 19 908 57 q 617 -19 724 -19 q 491 -5 551 -19 q 378 38 431 10 l 296 -104 l 265 -87 m 217 486 q 258 259 217 358 q 372 99 299 160 l 832 894 q 617 958 739 958 q 408 899 497 958 q 267 734 318 840 q 217 486 217 628 m 1017 486 q 975 713 1017 613 q 860 874 933 813 l 400 78 q 617 14 494 14 q 826 73 736 14 q 967 239 917 132 q 1017 486 1017 346 z "},"Ǿ":{"ha":1233,"x_min":111,"x_max":1122,"o":"m 265 -87 l 347 54 q 176 234 240 121 q 111 486 111 347 q 149 685 111 593 q 256 847 188 778 q 417 953 325 915 q 617 992 510 992 q 742 977 682 992 q 856 935 803 963 l 929 1064 l 960 1047 l 885 918 q 1058 740 993 853 q 1122 486 1122 626 q 1084 287 1122 379 q 977 126 1046 194 q 816 19 908 57 q 617 -19 724 -19 q 491 -5 551 -19 q 378 38 431 10 l 296 -104 l 265 -87 m 217 486 q 258 259 217 358 q 372 99 299 160 l 832 894 q 617 958 739 958 q 408 899 497 958 q 267 734 318 840 q 217 486 217 628 m 1017 486 q 975 713 1017 613 q 860 874 933 813 l 400 78 q 617 14 494 14 q 826 73 736 14 q 967 239 917 132 q 1017 486 1017 346 m 532 1076 l 667 1246 l 792 1246 l 792 1238 l 550 1060 l 532 1076 z "},"ǿ":{"ha":1233,"x_min":111,"x_max":1122,"o":"m 265 -87 l 347 54 q 176 234 240 121 q 111 486 111 347 q 149 685 111 593 q 256 847 188 778 q 417 953 325 915 q 617 992 510 992 q 742 977 682 992 q 856 935 803 963 l 929 1064 l 960 1047 l 885 918 q 1058 740 993 853 q 1122 486 1122 626 q 1084 287 1122 379 q 977 126 1046 194 q 816 19 908 57 q 617 -19 724 -19 q 491 -5 551 -19 q 378 38 431 10 l 296 -104 l 265 -87 m 217 486 q 258 259 217 358 q 372 99 299 160 l 832 894 q 617 958 739 958 q 408 899 497 958 q 267 734 318 840 q 217 486 217 628 m 1017 486 q 975 713 1017 613 q 860 874 933 813 l 400 78 q 617 14 494 14 q 826 73 736 14 q 967 239 917 132 q 1017 486 1017 346 m 532 1076 l 667 1246 l 792 1246 l 792 1238 l 550 1060 l 532 1076 z "},"Õ":{"ha":1233,"x_min":111,"x_max":1122,"o":"m 111 486 q 149 685 111 593 q 256 847 188 778 q 417 953 325 915 q 617 992 510 992 q 816 953 724 992 q 977 847 908 915 q 1084 685 1046 778 q 1122 486 1122 593 q 1084 287 1122 379 q 977 126 1046 194 q 816 19 908 57 q 617 -19 724 -19 q 417 19 510 -19 q 256 126 325 57 q 149 287 188 194 q 111 486 111 379 m 217 486 q 267 238 217 344 q 407 73 317 132 q 617 14 497 14 q 826 73 736 14 q 967 239 917 132 q 1017 486 1017 346 q 967 733 1017 626 q 826 899 917 839 q 617 958 736 958 q 408 899 497 958 q 267 734 318 840 q 217 486 217 628 m 629 1213 q 673 1187 650 1199 q 721 1175 696 1175 q 765 1189 743 1175 q 817 1242 788 1203 l 838 1228 q 771 1128 801 1156 q 701 1100 740 1100 q 649 1112 672 1100 q 601 1138 625 1124 q 558 1163 581 1151 q 510 1175 535 1175 q 465 1162 488 1175 q 414 1108 443 1149 l 393 1122 q 460 1222 429 1194 q 529 1250 490 1250 q 583 1239 558 1250 q 629 1213 607 1228 z "},"õ":{"ha":1233,"x_min":111,"x_max":1122,"o":"m 111 486 q 149 685 111 593 q 256 847 188 778 q 417 953 325 915 q 617 992 510 992 q 816 953 724 992 q 977 847 908 915 q 1084 685 1046 778 q 1122 486 1122 593 q 1084 287 1122 379 q 977 126 1046 194 q 816 19 908 57 q 617 -19 724 -19 q 417 19 510 -19 q 256 126 325 57 q 149 287 188 194 q 111 486 111 379 m 217 486 q 267 238 217 344 q 407 73 317 132 q 617 14 497 14 q 826 73 736 14 q 967 239 917 132 q 1017 486 1017 346 q 967 733 1017 626 q 826 899 917 839 q 617 958 736 958 q 408 899 497 958 q 267 734 318 840 q 217 486 217 628 m 629 1213 q 673 1187 650 1199 q 721 1175 696 1175 q 765 1189 743 1175 q 817 1242 788 1203 l 838 1228 q 771 1128 801 1156 q 701 1100 740 1100 q 649 1112 672 1100 q 601 1138 625 1124 q 558 1163 581 1151 q 510 1175 535 1175 q 465 1162 488 1175 q 414 1108 443 1149 l 393 1122 q 460 1222 429 1194 q 529 1250 490 1250 q 583 1239 558 1250 q 629 1213 607 1228 z "},"Œ":{"ha":1296,"x_min":111,"x_max":1185,"o":"m 111 486 q 149 685 111 594 q 257 844 188 776 q 419 949 326 911 q 624 986 513 986 q 761 972 690 986 l 1181 972 l 1181 904 l 938 936 q 851 944 874 944 l 851 521 q 938 525 869 521 l 1165 539 l 1165 475 l 938 489 q 851 493 869 493 l 851 28 q 939 36 876 28 l 1185 68 l 1185 0 l 761 0 q 624 -14 690 -14 q 419 24 513 -14 q 257 128 326 61 q 149 287 188 196 q 111 486 111 378 m 217 486 q 267 238 217 343 q 410 74 318 132 q 628 17 503 17 q 757 29 686 17 l 757 943 q 628 956 686 956 q 410 898 503 956 q 267 735 318 840 q 217 486 217 629 z "},"œ":{"ha":1296,"x_min":111,"x_max":1185,"o":"m 111 486 q 149 685 111 594 q 257 844 188 776 q 419 949 326 911 q 624 986 513 986 q 761 972 690 986 l 1181 972 l 1181 904 l 938 936 q 851 944 874 944 l 851 521 q 938 525 869 521 l 1165 539 l 1165 475 l 938 489 q 851 493 869 493 l 851 28 q 939 36 876 28 l 1185 68 l 1185 0 l 761 0 q 624 -14 690 -14 q 419 24 513 -14 q 257 128 326 61 q 149 287 188 196 q 111 486 111 378 m 217 486 q 267 238 217 343 q 410 74 318 132 q 628 17 503 17 q 757 29 686 17 l 757 943 q 628 956 686 956 q 410 898 503 956 q 267 735 318 840 q 217 486 217 629 z "},"P":{"ha":792,"x_min":181,"x_max":708,"o":"m 181 0 l 181 972 l 354 972 q 615 901 522 972 q 708 701 708 829 q 615 502 708 574 q 354 431 522 431 l 275 431 l 275 0 l 181 0 m 354 939 l 275 939 l 275 464 l 354 464 q 608 701 608 464 q 354 939 608 939 z "},"p":{"ha":792,"x_min":181,"x_max":708,"o":"m 181 0 l 181 972 l 354 972 q 615 901 522 972 q 708 701 708 829 q 615 502 708 574 q 354 431 522 431 l 275 431 l 275 0 l 181 0 m 354 939 l 275 939 l 275 464 l 354 464 q 608 701 608 464 q 354 939 608 939 z "},"Þ":{"ha":792,"x_min":181,"x_max":708,"o":"m 181 0 l 181 972 l 275 972 l 275 769 l 354 769 q 615 698 522 769 q 708 499 708 626 q 615 299 708 371 q 354 228 522 228 l 275 228 l 275 0 l 181 0 m 354 736 l 275 736 l 275 261 l 354 261 q 608 499 608 261 q 354 736 608 736 z "},"þ":{"ha":792,"x_min":181,"x_max":708,"o":"m 181 0 l 181 972 l 275 972 l 275 769 l 354 769 q 615 698 522 769 q 708 499 708 626 q 615 299 708 371 q 354 228 522 228 l 275 228 l 275 0 l 181 0 m 354 736 l 275 736 l 275 261 l 354 261 q 608 499 608 261 q 354 736 608 736 z "},"Q":{"ha":1233,"x_min":111,"x_max":1256,"o":"m 111 486 q 149 685 111 593 q 256 847 188 778 q 417 953 325 915 q 617 992 510 992 q 816 953 724 992 q 977 847 908 915 q 1084 685 1046 778 q 1122 486 1122 593 q 1085 290 1122 381 q 982 131 1049 200 q 826 24 915 63 l 826 15 q 939 0 893 15 q 1022 -49 985 -15 q 1093 -135 1058 -82 q 1169 -234 1136 -199 q 1256 -285 1201 -269 l 1256 -293 l 1190 -293 q 1103 -276 1136 -293 q 1048 -232 1069 -260 q 1006 -174 1026 -204 q 953 -101 982 -136 q 883 -42 924 -65 q 778 -19 842 -19 l 617 -19 q 417 19 510 -19 q 256 126 325 57 q 149 287 188 194 q 111 486 111 379 m 217 486 q 267 238 217 344 q 407 73 317 132 q 617 14 497 14 q 826 73 736 14 q 967 239 917 132 q 1017 486 1017 346 q 967 733 1017 626 q 826 899 917 839 q 617 958 736 958 q 408 899 497 958 q 267 734 318 840 q 217 486 217 628 z "},"q":{"ha":1233,"x_min":111,"x_max":1256,"o":"m 111 486 q 149 685 111 593 q 256 847 188 778 q 417 953 325 915 q 617 992 510 992 q 816 953 724 992 q 977 847 908 915 q 1084 685 1046 778 q 1122 486 1122 593 q 1085 290 1122 381 q 982 131 1049 200 q 826 24 915 63 l 826 15 q 939 0 893 15 q 1022 -49 985 -15 q 1093 -135 1058 -82 q 1169 -234 1136 -199 q 1256 -285 1201 -269 l 1256 -293 l 1190 -293 q 1103 -276 1136 -293 q 1048 -232 1069 -260 q 1006 -174 1026 -204 q 953 -101 982 -136 q 883 -42 924 -65 q 778 -19 842 -19 l 617 -19 q 417 19 510 -19 q 256 126 325 57 q 149 287 188 194 q 111 486 111 379 m 217 486 q 267 238 217 344 q 407 73 317 132 q 617 14 497 14 q 826 73 736 14 q 967 239 917 132 q 1017 486 1017 346 q 967 733 1017 626 q 826 899 917 839 q 617 958 736 958 q 408 899 497 958 q 267 734 318 840 q 217 486 217 628 z "},"R":{"ha":892,"x_min":181,"x_max":900,"o":"m 181 972 l 367 972 q 595 910 514 972 q 676 738 676 849 q 626 594 676 651 q 479 518 575 538 l 479 510 q 629 424 571 492 q 717 256 688 356 q 769 113 743 164 q 826 40 794 63 q 900 8 857 18 l 900 0 l 843 0 q 742 22 782 0 q 675 97 703 44 q 622 243 647 150 q 515 446 582 386 q 353 506 449 506 l 344 506 l 344 531 l 353 531 q 576 736 576 531 q 367 939 576 939 l 275 939 l 275 0 l 181 0 l 181 972 z "},"r":{"ha":892,"x_min":181,"x_max":900,"o":"m 181 972 l 367 972 q 595 910 514 972 q 676 738 676 849 q 626 594 676 651 q 479 518 575 538 l 479 510 q 629 424 571 492 q 717 256 688 356 q 769 113 743 164 q 826 40 794 63 q 900 8 857 18 l 900 0 l 843 0 q 742 22 782 0 q 675 97 703 44 q 622 243 647 150 q 515 446 582 386 q 353 506 449 506 l 344 506 l 344 531 l 353 531 q 576 736 576 531 q 367 939 576 939 l 275 939 l 275 0 l 181 0 l 181 972 z "},"Ŕ":{"ha":892,"x_min":181,"x_max":900,"o":"m 181 972 l 367 972 q 595 910 514 972 q 676 738 676 849 q 626 594 676 651 q 479 518 575 538 l 479 510 q 629 424 571 492 q 717 256 688 356 q 769 113 743 164 q 826 40 794 63 q 900 8 857 18 l 900 0 l 843 0 q 742 22 782 0 q 675 97 703 44 q 622 243 647 150 q 515 446 582 386 q 353 506 449 506 l 344 506 l 344 531 l 353 531 q 576 736 576 531 q 367 939 576 939 l 275 939 l 275 0 l 181 0 l 181 972 m 307 1076 l 442 1246 l 567 1246 l 567 1238 l 325 1060 l 307 1076 z "},"ŕ":{"ha":892,"x_min":181,"x_max":900,"o":"m 181 972 l 367 972 q 595 910 514 972 q 676 738 676 849 q 626 594 676 651 q 479 518 575 538 l 479 510 q 629 424 571 492 q 717 256 688 356 q 769 113 743 164 q 826 40 794 63 q 900 8 857 18 l 900 0 l 843 0 q 742 22 782 0 q 675 97 703 44 q 622 243 647 150 q 515 446 582 386 q 353 506 449 506 l 344 506 l 344 531 l 353 531 q 576 736 576 531 q 367 939 576 939 l 275 939 l 275 0 l 181 0 l 181 972 m 307 1076 l 442 1246 l 567 1246 l 567 1238 l 325 1060 l 307 1076 z "},"Ř":{"ha":892,"x_min":181,"x_max":900,"o":"m 181 972 l 367 972 q 595 910 514 972 q 676 738 676 849 q 626 594 676 651 q 479 518 575 538 l 479 510 q 629 424 571 492 q 717 256 688 356 q 769 113 743 164 q 826 40 794 63 q 900 8 857 18 l 900 0 l 843 0 q 742 22 782 0 q 675 97 703 44 q 622 243 647 150 q 515 446 582 386 q 353 506 449 506 l 344 506 l 344 531 l 353 531 q 576 736 576 531 q 367 939 576 939 l 275 939 l 275 0 l 181 0 l 181 972 m 374 1078 l 206 1258 l 224 1275 l 392 1164 l 560 1275 l 578 1258 l 410 1078 l 374 1078 z "},"ř":{"ha":892,"x_min":181,"x_max":900,"o":"m 181 972 l 367 972 q 595 910 514 972 q 676 738 676 849 q 626 594 676 651 q 479 518 575 538 l 479 510 q 629 424 571 492 q 717 256 688 356 q 769 113 743 164 q 826 40 794 63 q 900 8 857 18 l 900 0 l 843 0 q 742 22 782 0 q 675 97 703 44 q 622 243 647 150 q 515 446 582 386 q 353 506 449 506 l 344 506 l 344 531 l 353 531 q 576 736 576 531 q 367 939 576 939 l 275 939 l 275 0 l 181 0 l 181 972 m 374 1078 l 206 1258 l 224 1275 l 392 1164 l 560 1275 l 578 1258 l 410 1078 l 374 1078 z "},"Ŗ":{"ha":892,"x_min":181,"x_max":900,"o":"m 181 972 l 367 972 q 595 910 514 972 q 676 738 676 849 q 626 594 676 651 q 479 518 575 538 l 479 510 q 629 424 571 492 q 717 256 688 356 q 769 113 743 164 q 826 40 794 63 q 900 8 857 18 l 900 0 l 843 0 q 742 22 782 0 q 675 97 703 44 q 622 243 647 150 q 515 446 582 386 q 353 506 449 506 l 344 506 l 344 531 l 353 531 q 576 736 576 531 q 367 939 576 939 l 275 939 l 275 0 l 181 0 l 181 972 m 446 -139 q 465 -93 446 -111 q 513 -75 483 -75 q 581 -172 581 -75 q 556 -268 581 -225 q 469 -356 531 -311 l 454 -336 q 522 -260 506 -294 q 539 -182 539 -226 q 503 -199 526 -199 q 461 -181 476 -199 q 446 -139 446 -164 z "},"ŗ":{"ha":892,"x_min":181,"x_max":900,"o":"m 181 972 l 367 972 q 595 910 514 972 q 676 738 676 849 q 626 594 676 651 q 479 518 575 538 l 479 510 q 629 424 571 492 q 717 256 688 356 q 769 113 743 164 q 826 40 794 63 q 900 8 857 18 l 900 0 l 843 0 q 742 22 782 0 q 675 97 703 44 q 622 243 647 150 q 515 446 582 386 q 353 506 449 506 l 344 506 l 344 531 l 353 531 q 576 736 576 531 q 367 939 576 939 l 275 939 l 275 0 l 181 0 l 181 972 m 446 -139 q 465 -93 446 -111 q 513 -75 483 -75 q 581 -172 581 -75 q 556 -268 581 -225 q 469 -356 531 -311 l 454 -336 q 522 -260 506 -294 q 539 -182 539 -226 q 503 -199 526 -199 q 461 -181 476 -199 q 446 -139 446 -164 z "},"S":{"ha":754,"x_min":96,"x_max":661,"o":"m 96 31 l 104 114 l 113 114 q 235 40 167 67 q 369 14 303 14 q 522 66 464 14 q 581 206 581 118 q 559 296 581 254 q 488 381 538 338 q 353 474 439 424 q 239 547 293 508 q 150 635 185 585 q 115 757 115 686 q 192 927 115 863 q 393 992 268 992 q 513 980 449 992 q 611 950 576 968 l 604 872 l 596 872 q 393 958 517 958 q 250 913 304 958 q 196 792 196 868 q 226 694 196 735 q 303 620 256 653 q 404 557 350 588 q 526 481 467 521 q 623 384 585 440 q 661 243 661 328 q 625 106 661 165 q 523 14 589 47 q 369 -19 457 -19 q 239 -6 314 -19 q 96 31 164 8 z "},"s":{"ha":754,"x_min":96,"x_max":661,"o":"m 96 31 l 104 114 l 113 114 q 235 40 167 67 q 369 14 303 14 q 522 66 464 14 q 581 206 581 118 q 559 296 581 254 q 488 381 538 338 q 353 474 439 424 q 239 547 293 508 q 150 635 185 585 q 115 757 115 686 q 192 927 115 863 q 393 992 268 992 q 513 980 449 992 q 611 950 576 968 l 604 872 l 596 872 q 393 958 517 958 q 250 913 304 958 q 196 792 196 868 q 226 694 196 735 q 303 620 256 653 q 404 557 350 588 q 526 481 467 521 q 623 384 585 440 q 661 243 661 328 q 625 106 661 165 q 523 14 589 47 q 369 -19 457 -19 q 239 -6 314 -19 q 96 31 164 8 z "},"Ś":{"ha":754,"x_min":96,"x_max":661,"o":"m 96 31 l 104 114 l 113 114 q 235 40 167 67 q 369 14 303 14 q 522 66 464 14 q 581 206 581 118 q 559 296 581 254 q 488 381 538 338 q 353 474 439 424 q 239 547 293 508 q 150 635 185 585 q 115 757 115 686 q 192 927 115 863 q 393 992 268 992 q 513 980 449 992 q 611 950 576 968 l 604 872 l 596 872 q 393 958 517 958 q 250 913 304 958 q 196 792 196 868 q 226 694 196 735 q 303 620 256 653 q 404 557 350 588 q 526 481 467 521 q 623 384 585 440 q 661 243 661 328 q 625 106 661 165 q 523 14 589 47 q 369 -19 457 -19 q 239 -6 314 -19 q 96 31 164 8 m 306 1076 l 440 1246 l 565 1246 l 565 1238 l 324 1060 l 306 1076 z "},"ś":{"ha":754,"x_min":96,"x_max":661,"o":"m 96 31 l 104 114 l 113 114 q 235 40 167 67 q 369 14 303 14 q 522 66 464 14 q 581 206 581 118 q 559 296 581 254 q 488 381 538 338 q 353 474 439 424 q 239 547 293 508 q 150 635 185 585 q 115 757 115 686 q 192 927 115 863 q 393 992 268 992 q 513 980 449 992 q 611 950 576 968 l 604 872 l 596 872 q 393 958 517 958 q 250 913 304 958 q 196 792 196 868 q 226 694 196 735 q 303 620 256 653 q 404 557 350 588 q 526 481 467 521 q 623 384 585 440 q 661 243 661 328 q 625 106 661 165 q 523 14 589 47 q 369 -19 457 -19 q 239 -6 314 -19 q 96 31 164 8 m 306 1076 l 440 1246 l 565 1246 l 565 1238 l 324 1060 l 306 1076 z "},"Š":{"ha":754,"x_min":96,"x_max":661,"o":"m 96 31 l 104 114 l 113 114 q 235 40 167 67 q 369 14 303 14 q 522 66 464 14 q 581 206 581 118 q 559 296 581 254 q 488 381 538 338 q 353 474 439 424 q 239 547 293 508 q 150 635 185 585 q 115 757 115 686 q 192 927 115 863 q 393 992 268 992 q 513 980 449 992 q 611 950 576 968 l 604 872 l 596 872 q 393 958 517 958 q 250 913 304 958 q 196 792 196 868 q 226 694 196 735 q 303 620 256 653 q 404 557 350 588 q 526 481 467 521 q 623 384 585 440 q 661 243 661 328 q 625 106 661 165 q 523 14 589 47 q 369 -19 457 -19 q 239 -6 314 -19 q 96 31 164 8 m 372 1078 l 204 1258 l 222 1275 l 390 1164 l 558 1275 l 576 1258 l 408 1078 l 372 1078 z "},"š":{"ha":754,"x_min":96,"x_max":661,"o":"m 96 31 l 104 114 l 113 114 q 235 40 167 67 q 369 14 303 14 q 522 66 464 14 q 581 206 581 118 q 559 296 581 254 q 488 381 538 338 q 353 474 439 424 q 239 547 293 508 q 150 635 185 585 q 115 757 115 686 q 192 927 115 863 q 393 992 268 992 q 513 980 449 992 q 611 950 576 968 l 604 872 l 596 872 q 393 958 517 958 q 250 913 304 958 q 196 792 196 868 q 226 694 196 735 q 303 620 256 653 q 404 557 350 588 q 526 481 467 521 q 623 384 585 440 q 661 243 661 328 q 625 106 661 165 q 523 14 589 47 q 369 -19 457 -19 q 239 -6 314 -19 q 96 31 164 8 m 372 1078 l 204 1258 l 222 1275 l 390 1164 l 558 1275 l 576 1258 l 408 1078 l 372 1078 z "},"Ş":{"ha":754,"x_min":96,"x_max":661,"o":"m 96 31 l 104 114 l 113 114 q 235 40 167 67 q 369 14 303 14 q 522 66 464 14 q 581 206 581 118 q 559 296 581 254 q 488 381 538 338 q 353 474 439 424 q 239 547 293 508 q 150 635 185 585 q 115 757 115 686 q 192 927 115 863 q 393 992 268 992 q 513 980 449 992 q 611 950 576 968 l 604 872 l 596 872 q 393 958 517 958 q 250 913 304 958 q 196 792 196 868 q 226 694 196 735 q 303 620 256 653 q 404 557 350 588 q 526 481 467 521 q 623 384 585 440 q 661 243 661 328 q 625 106 661 165 q 523 14 589 47 q 369 -19 457 -19 q 239 -6 314 -19 q 96 31 164 8 m 321 -106 l 365 6 l 396 6 l 365 -72 q 496 -189 496 -97 q 460 -274 496 -242 q 363 -306 424 -306 q 320 -301 342 -306 q 260 -283 299 -296 l 267 -260 q 335 -272 304 -272 q 392 -252 371 -272 q 413 -197 413 -232 q 321 -106 413 -122 z "},"ş":{"ha":754,"x_min":96,"x_max":661,"o":"m 96 31 l 104 114 l 113 114 q 235 40 167 67 q 369 14 303 14 q 522 66 464 14 q 581 206 581 118 q 559 296 581 254 q 488 381 538 338 q 353 474 439 424 q 239 547 293 508 q 150 635 185 585 q 115 757 115 686 q 192 927 115 863 q 393 992 268 992 q 513 980 449 992 q 611 950 576 968 l 604 872 l 596 872 q 393 958 517 958 q 250 913 304 958 q 196 792 196 868 q 226 694 196 735 q 303 620 256 653 q 404 557 350 588 q 526 481 467 521 q 623 384 585 440 q 661 243 661 328 q 625 106 661 165 q 523 14 589 47 q 369 -19 457 -19 q 239 -6 314 -19 q 96 31 164 8 m 321 -106 l 365 6 l 396 6 l 365 -72 q 496 -189 496 -97 q 460 -274 496 -242 q 363 -306 424 -306 q 320 -301 342 -306 q 260 -283 299 -296 l 267 -260 q 335 -272 304 -272 q 392 -252 371 -272 q 413 -197 413 -232 q 321 -106 413 -122 z "},"Ŝ":{"ha":754,"x_min":96,"x_max":661,"o":"m 96 31 l 104 114 l 113 114 q 235 40 167 67 q 369 14 303 14 q 522 66 464 14 q 581 206 581 118 q 559 296 581 254 q 488 381 538 338 q 353 474 439 424 q 239 547 293 508 q 150 635 185 585 q 115 757 115 686 q 192 927 115 863 q 393 992 268 992 q 513 980 449 992 q 611 950 576 968 l 604 872 l 596 872 q 393 958 517 958 q 250 913 304 958 q 196 792 196 868 q 226 694 196 735 q 303 620 256 653 q 404 557 350 588 q 526 481 467 521 q 623 384 585 440 q 661 243 661 328 q 625 106 661 165 q 523 14 589 47 q 369 -19 457 -19 q 239 -6 314 -19 q 96 31 164 8 m 408 1257 l 576 1076 l 558 1060 l 390 1171 l 222 1060 l 204 1076 l 372 1257 l 408 1257 z "},"ŝ":{"ha":754,"x_min":96,"x_max":661,"o":"m 96 31 l 104 114 l 113 114 q 235 40 167 67 q 369 14 303 14 q 522 66 464 14 q 581 206 581 118 q 559 296 581 254 q 488 381 538 338 q 353 474 439 424 q 239 547 293 508 q 150 635 185 585 q 115 757 115 686 q 192 927 115 863 q 393 992 268 992 q 513 980 449 992 q 611 950 576 968 l 604 872 l 596 872 q 393 958 517 958 q 250 913 304 958 q 196 792 196 868 q 226 694 196 735 q 303 620 256 653 q 404 557 350 588 q 526 481 467 521 q 623 384 585 440 q 661 243 661 328 q 625 106 661 165 q 523 14 589 47 q 369 -19 457 -19 q 239 -6 314 -19 q 96 31 164 8 m 408 1257 l 576 1076 l 558 1060 l 390 1171 l 222 1060 l 204 1076 l 372 1257 l 408 1257 z "},"Ș":{"ha":754,"x_min":96,"x_max":661,"o":"m 96 31 l 104 114 l 113 114 q 235 40 167 67 q 369 14 303 14 q 522 66 464 14 q 581 206 581 118 q 559 296 581 254 q 488 381 538 338 q 353 474 439 424 q 239 547 293 508 q 150 635 185 585 q 115 757 115 686 q 192 927 115 863 q 393 992 268 992 q 513 980 449 992 q 611 950 576 968 l 604 872 l 596 872 q 393 958 517 958 q 250 913 304 958 q 196 792 196 868 q 226 694 196 735 q 303 620 256 653 q 404 557 350 588 q 526 481 467 521 q 623 384 585 440 q 661 243 661 328 q 625 106 661 165 q 523 14 589 47 q 369 -19 457 -19 q 239 -6 314 -19 q 96 31 164 8 m 310 -139 q 328 -93 310 -111 q 376 -75 347 -75 q 444 -172 444 -75 q 419 -268 444 -225 q 333 -356 394 -311 l 318 -336 q 386 -260 369 -294 q 403 -182 403 -226 q 367 -199 390 -199 q 325 -181 340 -199 q 310 -139 310 -164 z "},"ș":{"ha":754,"x_min":96,"x_max":661,"o":"m 96 31 l 104 114 l 113 114 q 235 40 167 67 q 369 14 303 14 q 522 66 464 14 q 581 206 581 118 q 559 296 581 254 q 488 381 538 338 q 353 474 439 424 q 239 547 293 508 q 150 635 185 585 q 115 757 115 686 q 192 927 115 863 q 393 992 268 992 q 513 980 449 992 q 611 950 576 968 l 604 872 l 596 872 q 393 958 517 958 q 250 913 304 958 q 196 792 196 868 q 226 694 196 735 q 303 620 256 653 q 404 557 350 588 q 526 481 467 521 q 623 384 585 440 q 661 243 661 328 q 625 106 661 165 q 523 14 589 47 q 369 -19 457 -19 q 239 -6 314 -19 q 96 31 164 8 m 310 -139 q 328 -93 310 -111 q 376 -75 347 -75 q 444 -172 444 -75 q 419 -268 444 -225 q 333 -356 394 -311 l 318 -336 q 386 -260 369 -294 q 403 -182 403 -226 q 367 -199 390 -199 q 325 -181 340 -199 q 310 -139 310 -164 z "},"ß":{"ha":1026,"x_min":167,"x_max":929,"o":"m 167 0 l 167 583 q 213 801 167 710 q 343 942 258 892 q 542 992 428 992 q 719 957 638 992 q 842 861 800 922 l 607 533 q 843 451 757 526 q 929 251 929 376 q 892 110 929 171 q 786 15 854 50 q 626 -19 718 -19 q 506 -6 569 -19 q 399 31 443 8 l 407 110 l 415 110 q 517 35 460 60 q 626 11 575 11 q 772 78 717 11 q 826 251 826 146 q 756 440 826 375 q 550 504 686 504 l 507 504 l 494 529 l 733 864 q 658 935 710 908 q 542 961 607 961 q 394 915 457 961 q 296 787 331 869 q 261 592 261 704 l 261 0 l 167 0 z "},"ẞ":{"ha":1026,"x_min":167,"x_max":929,"o":"m 167 0 l 167 583 q 213 801 167 710 q 343 942 258 892 q 542 992 428 992 q 719 957 638 992 q 842 861 800 922 l 607 533 q 843 451 757 526 q 929 251 929 376 q 892 110 929 171 q 786 15 854 50 q 626 -19 718 -19 q 506 -6 569 -19 q 399 31 443 8 l 407 110 l 415 110 q 517 35 460 60 q 626 11 575 11 q 772 78 717 11 q 826 251 826 146 q 756 440 826 375 q 550 504 686 504 l 507 504 l 494 529 l 733 864 q 658 935 710 908 q 542 961 607 961 q 394 915 457 961 q 296 787 331 869 q 261 592 261 704 l 261 0 l 167 0 z "},"T":{"ha":900,"x_min":44,"x_max":856,"o":"m 403 0 l 403 944 q 317 936 382 944 l 44 901 l 44 972 l 856 972 l 856 901 l 583 936 q 497 944 518 944 l 497 0 l 403 0 z "},"t":{"ha":900,"x_min":44,"x_max":856,"o":"m 403 0 l 403 944 q 317 936 382 944 l 44 901 l 44 972 l 856 972 l 856 901 l 583 936 q 497 944 518 944 l 497 0 l 403 0 z "},"Ŧ":{"ha":900,"x_min":44,"x_max":856,"o":"m 403 0 l 403 489 l 218 489 l 218 522 l 403 522 l 403 944 q 317 936 382 944 l 44 901 l 44 972 l 856 972 l 856 901 l 583 936 q 497 944 518 944 l 497 522 l 682 522 l 682 489 l 497 489 l 497 0 l 403 0 z "},"ŧ":{"ha":900,"x_min":44,"x_max":856,"o":"m 403 0 l 403 489 l 218 489 l 218 522 l 403 522 l 403 944 q 317 936 382 944 l 44 901 l 44 972 l 856 972 l 856 901 l 583 936 q 497 944 518 944 l 497 522 l 682 522 l 682 489 l 497 489 l 497 0 l 403 0 z "},"Ť":{"ha":900,"x_min":44,"x_max":856,"o":"m 403 0 l 403 944 q 317 936 382 944 l 44 901 l 44 972 l 856 972 l 856 901 l 583 936 q 497 944 518 944 l 497 0 l 403 0 m 432 1078 l 264 1258 l 282 1275 l 450 1164 l 618 1275 l 636 1258 l 468 1078 l 432 1078 z "},"ť":{"ha":900,"x_min":44,"x_max":856,"o":"m 403 0 l 403 944 q 317 936 382 944 l 44 901 l 44 972 l 856 972 l 856 901 l 583 936 q 497 944 518 944 l 497 0 l 403 0 m 432 1078 l 264 1258 l 282 1275 l 450 1164 l 618 1275 l 636 1258 l 468 1078 l 432 1078 z "},"Ţ":{"ha":900,"x_min":44,"x_max":856,"o":"m 403 0 l 403 944 q 317 936 382 944 l 44 901 l 44 972 l 856 972 l 856 901 l 583 936 q 497 944 518 944 l 497 0 l 403 0 m 393 -106 l 438 6 l 468 6 l 438 -72 q 568 -189 568 -97 q 532 -274 568 -242 q 435 -306 496 -306 q 392 -301 414 -306 q 332 -283 371 -296 l 339 -260 q 407 -272 376 -272 q 464 -252 443 -272 q 485 -197 485 -232 q 393 -106 485 -122 z "},"ţ":{"ha":900,"x_min":44,"x_max":856,"o":"m 403 0 l 403 944 q 317 936 382 944 l 44 901 l 44 972 l 856 972 l 856 901 l 583 936 q 497 944 518 944 l 497 0 l 403 0 m 393 -106 l 438 6 l 468 6 l 438 -72 q 568 -189 568 -97 q 532 -274 568 -242 q 435 -306 496 -306 q 392 -301 414 -306 q 332 -283 371 -296 l 339 -260 q 407 -272 376 -272 q 464 -252 443 -272 q 485 -197 485 -232 q 393 -106 485 -122 z "},"Ț":{"ha":900,"x_min":44,"x_max":856,"o":"m 403 0 l 403 944 q 317 936 382 944 l 44 901 l 44 972 l 856 972 l 856 901 l 583 936 q 497 944 518 944 l 497 0 l 403 0 m 382 -139 q 401 -93 382 -111 q 449 -75 419 -75 q 517 -172 517 -75 q 492 -268 517 -225 q 406 -356 467 -311 l 390 -336 q 458 -260 442 -294 q 475 -182 475 -226 q 439 -199 463 -199 q 397 -181 413 -199 q 382 -139 382 -164 z "},"ț":{"ha":900,"x_min":44,"x_max":856,"o":"m 403 0 l 403 944 q 317 936 382 944 l 44 901 l 44 972 l 856 972 l 856 901 l 583 936 q 497 944 518 944 l 497 0 l 403 0 m 382 -139 q 401 -93 382 -111 q 449 -75 419 -75 q 517 -172 517 -75 q 492 -268 517 -225 q 406 -356 467 -311 l 390 -336 q 458 -260 442 -294 q 475 -182 475 -226 q 439 -199 463 -199 q 397 -181 413 -199 q 382 -139 382 -164 z "},"U":{"ha":1108,"x_min":167,"x_max":956,"o":"m 167 972 l 261 972 l 261 386 q 344 124 261 218 q 576 31 426 31 q 741 67 671 31 q 849 169 811 104 q 885 319 888 235 l 861 972 l 956 972 l 932 319 q 833 67 926 153 q 565 -19 739 -19 q 272 90 378 -19 q 167 389 167 199 l 167 972 z "},"u":{"ha":1108,"x_min":167,"x_max":956,"o":"m 167 972 l 261 972 l 261 386 q 344 124 261 218 q 576 31 426 31 q 741 67 671 31 q 849 169 811 104 q 885 319 888 235 l 861 972 l 956 972 l 932 319 q 833 67 926 153 q 565 -19 739 -19 q 272 90 378 -19 q 167 389 167 199 l 167 972 z "},"Ú":{"ha":1108,"x_min":167,"x_max":956,"o":"m 167 972 l 261 972 l 261 386 q 344 124 261 218 q 576 31 426 31 q 741 67 671 31 q 849 169 811 104 q 885 319 888 235 l 861 972 l 956 972 l 932 319 q 833 67 926 153 q 565 -19 739 -19 q 272 90 378 -19 q 167 389 167 199 l 167 972 m 475 1076 l 610 1246 l 735 1246 l 735 1238 l 493 1060 l 475 1076 z "},"ú":{"ha":1108,"x_min":167,"x_max":956,"o":"m 167 972 l 261 972 l 261 386 q 344 124 261 218 q 576 31 426 31 q 741 67 671 31 q 849 169 811 104 q 885 319 888 235 l 861 972 l 956 972 l 932 319 q 833 67 926 153 q 565 -19 739 -19 q 272 90 378 -19 q 167 389 167 199 l 167 972 m 475 1076 l 610 1246 l 735 1246 l 735 1238 l 493 1060 l 475 1076 z "},"Ŭ":{"ha":1108,"x_min":167,"x_max":956,"o":"m 167 972 l 261 972 l 261 386 q 344 124 261 218 q 576 31 426 31 q 741 67 671 31 q 849 169 811 104 q 885 319 888 235 l 861 972 l 956 972 l 932 319 q 833 67 926 153 q 565 -19 739 -19 q 272 90 378 -19 q 167 389 167 199 l 167 972 m 560 1079 q 447 1126 493 1079 q 381 1258 400 1174 l 404 1267 q 474 1183 439 1207 q 560 1160 508 1160 q 647 1183 613 1160 q 715 1267 681 1207 l 739 1258 q 674 1126 721 1174 q 560 1079 626 1079 z "},"ŭ":{"ha":1108,"x_min":167,"x_max":956,"o":"m 167 972 l 261 972 l 261 386 q 344 124 261 218 q 576 31 426 31 q 741 67 671 31 q 849 169 811 104 q 885 319 888 235 l 861 972 l 956 972 l 932 319 q 833 67 926 153 q 565 -19 739 -19 q 272 90 378 -19 q 167 389 167 199 l 167 972 m 560 1079 q 447 1126 493 1079 q 381 1258 400 1174 l 404 1267 q 474 1183 439 1207 q 560 1160 508 1160 q 647 1183 613 1160 q 715 1267 681 1207 l 739 1258 q 674 1126 721 1174 q 560 1079 626 1079 z "},"Û":{"ha":1108,"x_min":167,"x_max":956,"o":"m 167 972 l 261 972 l 261 386 q 344 124 261 218 q 576 31 426 31 q 741 67 671 31 q 849 169 811 104 q 885 319 888 235 l 861 972 l 956 972 l 932 319 q 833 67 926 153 q 565 -19 739 -19 q 272 90 378 -19 q 167 389 167 199 l 167 972 m 578 1257 l 746 1076 l 728 1060 l 560 1171 l 392 1060 l 374 1076 l 542 1257 l 578 1257 z "},"û":{"ha":1108,"x_min":167,"x_max":956,"o":"m 167 972 l 261 972 l 261 386 q 344 124 261 218 q 576 31 426 31 q 741 67 671 31 q 849 169 811 104 q 885 319 888 235 l 861 972 l 956 972 l 932 319 q 833 67 926 153 q 565 -19 739 -19 q 272 90 378 -19 q 167 389 167 199 l 167 972 m 578 1257 l 746 1076 l 728 1060 l 560 1171 l 392 1060 l 374 1076 l 542 1257 l 578 1257 z "},"Ü":{"ha":1108,"x_min":167,"x_max":956,"o":"m 167 972 l 261 972 l 261 386 q 344 124 261 218 q 576 31 426 31 q 741 67 671 31 q 849 169 811 104 q 885 319 888 235 l 861 972 l 956 972 l 932 319 q 833 67 926 153 q 565 -19 739 -19 q 272 90 378 -19 q 167 389 167 199 l 167 972 m 640 1174 q 658 1219 640 1201 q 703 1236 676 1236 q 748 1219 731 1236 q 765 1174 765 1201 q 748 1129 765 1147 q 703 1111 731 1111 q 658 1129 676 1111 q 640 1174 640 1147 m 354 1174 q 372 1219 354 1201 q 417 1236 390 1236 q 462 1219 444 1236 q 479 1174 479 1201 q 462 1129 479 1147 q 417 1111 444 1111 q 372 1129 390 1111 q 354 1174 354 1147 z "},"ü":{"ha":1108,"x_min":167,"x_max":956,"o":"m 167 972 l 261 972 l 261 386 q 344 124 261 218 q 576 31 426 31 q 741 67 671 31 q 849 169 811 104 q 885 319 888 235 l 861 972 l 956 972 l 932 319 q 833 67 926 153 q 565 -19 739 -19 q 272 90 378 -19 q 167 389 167 199 l 167 972 m 640 1174 q 658 1219 640 1201 q 703 1236 676 1236 q 748 1219 731 1236 q 765 1174 765 1201 q 748 1129 765 1147 q 703 1111 731 1111 q 658 1129 676 1111 q 640 1174 640 1147 m 354 1174 q 372 1219 354 1201 q 417 1236 390 1236 q 462 1219 444 1236 q 479 1174 479 1201 q 462 1129 479 1147 q 417 1111 444 1111 q 372 1129 390 1111 q 354 1174 354 1147 z "},"Ù":{"ha":1108,"x_min":167,"x_max":956,"o":"m 167 972 l 261 972 l 261 386 q 344 124 261 218 q 576 31 426 31 q 741 67 671 31 q 849 169 811 104 q 885 319 888 235 l 861 972 l 956 972 l 932 319 q 833 67 926 153 q 565 -19 739 -19 q 272 90 378 -19 q 167 389 167 199 l 167 972 m 639 1076 l 621 1060 l 379 1238 l 379 1246 l 504 1246 l 639 1076 z "},"ù":{"ha":1108,"x_min":167,"x_max":956,"o":"m 167 972 l 261 972 l 261 386 q 344 124 261 218 q 576 31 426 31 q 741 67 671 31 q 849 169 811 104 q 885 319 888 235 l 861 972 l 956 972 l 932 319 q 833 67 926 153 q 565 -19 739 -19 q 272 90 378 -19 q 167 389 167 199 l 167 972 m 639 1076 l 621 1060 l 379 1238 l 379 1246 l 504 1246 l 639 1076 z "},"Ű":{"ha":1108,"x_min":167,"x_max":956,"o":"m 167 972 l 261 972 l 261 386 q 344 124 261 218 q 576 31 426 31 q 741 67 671 31 q 849 169 811 104 q 885 319 888 235 l 861 972 l 956 972 l 932 319 q 833 67 926 153 q 565 -19 739 -19 q 272 90 378 -19 q 167 389 167 199 l 167 972 m 394 1076 l 514 1249 l 626 1249 l 626 1240 l 413 1060 l 394 1076 m 617 1076 l 736 1249 l 849 1249 l 849 1240 l 635 1060 l 617 1076 z "},"ű":{"ha":1108,"x_min":167,"x_max":956,"o":"m 167 972 l 261 972 l 261 386 q 344 124 261 218 q 576 31 426 31 q 741 67 671 31 q 849 169 811 104 q 885 319 888 235 l 861 972 l 956 972 l 932 319 q 833 67 926 153 q 565 -19 739 -19 q 272 90 378 -19 q 167 389 167 199 l 167 972 m 394 1076 l 514 1249 l 626 1249 l 626 1240 l 413 1060 l 394 1076 m 617 1076 l 736 1249 l 849 1249 l 849 1240 l 635 1060 l 617 1076 z "},"Ū":{"ha":1108,"x_min":167,"x_max":956,"o":"m 167 972 l 261 972 l 261 386 q 344 124 261 218 q 576 31 426 31 q 741 67 671 31 q 849 169 811 104 q 885 319 888 235 l 861 972 l 956 972 l 932 319 q 833 67 926 153 q 565 -19 739 -19 q 272 90 378 -19 q 167 389 167 199 l 167 972 m 374 1138 l 374 1193 l 746 1193 l 746 1138 l 374 1138 z "},"ū":{"ha":1108,"x_min":167,"x_max":956,"o":"m 167 972 l 261 972 l 261 386 q 344 124 261 218 q 576 31 426 31 q 741 67 671 31 q 849 169 811 104 q 885 319 888 235 l 861 972 l 956 972 l 932 319 q 833 67 926 153 q 565 -19 739 -19 q 272 90 378 -19 q 167 389 167 199 l 167 972 m 374 1138 l 374 1193 l 746 1193 l 746 1138 l 374 1138 z "},"Ų":{"ha":1108,"x_min":167,"x_max":956,"o":"m 167 972 l 261 972 l 261 386 q 344 124 261 218 q 576 31 426 31 q 741 67 671 31 q 849 169 811 104 q 885 319 888 235 l 861 972 l 956 972 l 932 319 q 833 67 926 153 q 565 -19 739 -19 q 272 90 378 -19 q 167 389 167 199 l 167 972 m 690 -247 q 576 -306 638 -306 q 494 -273 525 -306 q 464 -187 464 -240 q 498 -87 464 -135 q 608 14 532 -40 l 621 14 l 624 0 q 547 -164 547 -89 q 565 -226 547 -203 q 613 -250 582 -250 q 675 -228 644 -250 l 690 -247 z "},"ų":{"ha":1108,"x_min":167,"x_max":956,"o":"m 167 972 l 261 972 l 261 386 q 344 124 261 218 q 576 31 426 31 q 741 67 671 31 q 849 169 811 104 q 885 319 888 235 l 861 972 l 956 972 l 932 319 q 833 67 926 153 q 565 -19 739 -19 q 272 90 378 -19 q 167 389 167 199 l 167 972 m 690 -247 q 576 -306 638 -306 q 494 -273 525 -306 q 464 -187 464 -240 q 498 -87 464 -135 q 608 14 532 -40 l 621 14 l 624 0 q 547 -164 547 -89 q 565 -226 547 -203 q 613 -250 582 -250 q 675 -228 644 -250 l 690 -247 z "},"Ů":{"ha":1108,"x_min":167,"x_max":956,"o":"m 167 972 l 261 972 l 261 386 q 344 124 261 218 q 576 31 426 31 q 741 67 671 31 q 849 169 811 104 q 885 319 888 235 l 861 972 l 956 972 l 932 319 q 833 67 926 153 q 565 -19 739 -19 q 272 90 378 -19 q 167 389 167 199 l 167 972 m 429 1161 q 466 1249 429 1214 q 560 1283 503 1283 q 653 1249 617 1283 q 690 1161 690 1214 q 653 1074 690 1108 q 560 1039 617 1039 q 466 1074 503 1039 q 429 1161 429 1108 m 560 1258 q 512 1231 531 1258 q 493 1161 493 1204 q 512 1091 493 1118 q 560 1064 531 1064 q 607 1091 588 1064 q 626 1161 626 1118 q 607 1231 626 1204 q 560 1258 588 1258 z "},"ů":{"ha":1108,"x_min":167,"x_max":956,"o":"m 167 972 l 261 972 l 261 386 q 344 124 261 218 q 576 31 426 31 q 741 67 671 31 q 849 169 811 104 q 885 319 888 235 l 861 972 l 956 972 l 932 319 q 833 67 926 153 q 565 -19 739 -19 q 272 90 378 -19 q 167 389 167 199 l 167 972 m 429 1161 q 466 1249 429 1214 q 560 1283 503 1283 q 653 1249 617 1283 q 690 1161 690 1214 q 653 1074 690 1108 q 560 1039 617 1039 q 466 1074 503 1039 q 429 1161 429 1108 m 560 1258 q 512 1231 531 1258 q 493 1161 493 1204 q 512 1091 493 1118 q 560 1064 531 1064 q 607 1091 588 1064 q 626 1161 626 1118 q 607 1231 626 1204 q 560 1258 588 1258 z "},"Ũ":{"ha":1108,"x_min":167,"x_max":956,"o":"m 167 972 l 261 972 l 261 386 q 344 124 261 218 q 576 31 426 31 q 741 67 671 31 q 849 169 811 104 q 885 319 888 235 l 861 972 l 956 972 l 932 319 q 833 67 926 153 q 565 -19 739 -19 q 272 90 378 -19 q 167 389 167 199 l 167 972 m 572 1213 q 616 1187 593 1199 q 664 1175 639 1175 q 708 1189 686 1175 q 760 1242 731 1203 l 781 1228 q 714 1128 744 1156 q 644 1100 683 1100 q 592 1112 615 1100 q 544 1138 568 1124 q 501 1163 524 1151 q 453 1175 478 1175 q 408 1162 431 1175 q 357 1108 386 1149 l 336 1122 q 403 1222 372 1194 q 472 1250 433 1250 q 526 1239 501 1250 q 572 1213 550 1228 z "},"ũ":{"ha":1108,"x_min":167,"x_max":956,"o":"m 167 972 l 261 972 l 261 386 q 344 124 261 218 q 576 31 426 31 q 741 67 671 31 q 849 169 811 104 q 885 319 888 235 l 861 972 l 956 972 l 932 319 q 833 67 926 153 q 565 -19 739 -19 q 272 90 378 -19 q 167 389 167 199 l 167 972 m 572 1213 q 616 1187 593 1199 q 664 1175 639 1175 q 708 1189 686 1175 q 760 1242 731 1203 l 781 1228 q 714 1128 744 1156 q 644 1100 683 1100 q 592 1112 615 1100 q 544 1138 568 1124 q 501 1163 524 1151 q 453 1175 478 1175 q 408 1162 431 1175 q 357 1108 386 1149 l 336 1122 q 403 1222 372 1194 q 472 1250 433 1250 q 526 1239 501 1250 q 572 1213 550 1228 z "},"V":{"ha":994,"x_min":44,"x_max":958,"o":"m 44 972 l 149 972 l 528 108 l 536 108 l 854 972 l 958 972 l 517 -19 l 486 -19 l 44 972 z "},"v":{"ha":994,"x_min":44,"x_max":958,"o":"m 44 972 l 149 972 l 528 108 l 536 108 l 854 972 l 958 972 l 517 -19 l 486 -19 l 44 972 z "},"W":{"ha":1463,"x_min":44,"x_max":1426,"o":"m 44 972 l 146 972 l 486 122 l 494 122 l 717 672 l 596 972 l 697 972 l 1036 125 l 1044 125 l 1325 972 l 1426 972 l 1026 -19 l 996 -19 l 736 626 l 475 -19 l 444 -19 l 44 972 z "},"w":{"ha":1463,"x_min":44,"x_max":1426,"o":"m 44 972 l 146 972 l 486 122 l 494 122 l 717 672 l 596 972 l 697 972 l 1036 125 l 1044 125 l 1325 972 l 1426 972 l 1026 -19 l 996 -19 l 736 626 l 475 -19 l 444 -19 l 44 972 z "},"Ẃ":{"ha":1463,"x_min":44,"x_max":1426,"o":"m 44 972 l 146 972 l 486 122 l 494 122 l 717 672 l 596 972 l 697 972 l 1036 125 l 1044 125 l 1325 972 l 1426 972 l 1026 -19 l 996 -19 l 736 626 l 475 -19 l 444 -19 l 44 972 m 604 1076 l 739 1246 l 864 1246 l 864 1238 l 622 1060 l 604 1076 z "},"ẃ":{"ha":1463,"x_min":44,"x_max":1426,"o":"m 44 972 l 146 972 l 486 122 l 494 122 l 717 672 l 596 972 l 697 972 l 1036 125 l 1044 125 l 1325 972 l 1426 972 l 1026 -19 l 996 -19 l 736 626 l 475 -19 l 444 -19 l 44 972 m 604 1076 l 739 1246 l 864 1246 l 864 1238 l 622 1060 l 604 1076 z "},"Ŵ":{"ha":1463,"x_min":44,"x_max":1426,"o":"m 44 972 l 146 972 l 486 122 l 494 122 l 717 672 l 596 972 l 697 972 l 1036 125 l 1044 125 l 1325 972 l 1426 972 l 1026 -19 l 996 -19 l 736 626 l 475 -19 l 444 -19 l 44 972 m 707 1257 l 875 1076 l 857 1060 l 689 1171 l 521 1060 l 503 1076 l 671 1257 l 707 1257 z "},"ŵ":{"ha":1463,"x_min":44,"x_max":1426,"o":"m 44 972 l 146 972 l 486 122 l 494 122 l 717 672 l 596 972 l 697 972 l 1036 125 l 1044 125 l 1325 972 l 1426 972 l 1026 -19 l 996 -19 l 736 626 l 475 -19 l 444 -19 l 44 972 m 707 1257 l 875 1076 l 857 1060 l 689 1171 l 521 1060 l 503 1076 l 671 1257 l 707 1257 z "},"Ẅ":{"ha":1463,"x_min":44,"x_max":1426,"o":"m 44 972 l 146 972 l 486 122 l 494 122 l 717 672 l 596 972 l 697 972 l 1036 125 l 1044 125 l 1325 972 l 1426 972 l 1026 -19 l 996 -19 l 736 626 l 475 -19 l 444 -19 l 44 972 m 769 1174 q 788 1219 769 1201 q 832 1236 806 1236 q 877 1219 860 1236 q 894 1174 894 1201 q 877 1129 894 1147 q 832 1111 860 1111 q 788 1129 806 1111 q 769 1174 769 1147 m 483 1174 q 501 1219 483 1201 q 546 1236 519 1236 q 591 1219 574 1236 q 608 1174 608 1201 q 591 1129 608 1147 q 546 1111 574 1111 q 501 1129 519 1111 q 483 1174 483 1147 z "},"ẅ":{"ha":1463,"x_min":44,"x_max":1426,"o":"m 44 972 l 146 972 l 486 122 l 494 122 l 717 672 l 596 972 l 697 972 l 1036 125 l 1044 125 l 1325 972 l 1426 972 l 1026 -19 l 996 -19 l 736 626 l 475 -19 l 444 -19 l 44 972 m 769 1174 q 788 1219 769 1201 q 832 1236 806 1236 q 877 1219 860 1236 q 894 1174 894 1201 q 877 1129 894 1147 q 832 1111 860 1111 q 788 1129 806 1111 q 769 1174 769 1147 m 483 1174 q 501 1219 483 1201 q 546 1236 519 1236 q 591 1219 574 1236 q 608 1174 608 1201 q 591 1129 608 1147 q 546 1111 574 1111 q 501 1129 519 1111 q 483 1174 483 1147 z "},"Ẁ":{"ha":1463,"x_min":44,"x_max":1426,"o":"m 44 972 l 146 972 l 486 122 l 494 122 l 717 672 l 596 972 l 697 972 l 1036 125 l 1044 125 l 1325 972 l 1426 972 l 1026 -19 l 996 -19 l 736 626 l 475 -19 l 444 -19 l 44 972 m 768 1076 l 750 1060 l 508 1238 l 508 1246 l 633 1246 l 768 1076 z "},"ẁ":{"ha":1463,"x_min":44,"x_max":1426,"o":"m 44 972 l 146 972 l 486 122 l 494 122 l 717 672 l 596 972 l 697 972 l 1036 125 l 1044 125 l 1325 972 l 1426 972 l 1026 -19 l 996 -19 l 736 626 l 475 -19 l 444 -19 l 44 972 m 768 1076 l 750 1060 l 508 1238 l 508 1246 l 633 1246 l 768 1076 z "},"X":{"ha":878,"x_min":44,"x_max":842,"o":"m 44 0 l 403 485 l 72 972 l 183 972 l 457 568 l 465 568 l 703 972 l 814 972 l 481 532 l 842 0 l 731 0 l 426 449 l 418 449 l 156 0 l 44 0 z "},"x":{"ha":878,"x_min":44,"x_max":842,"o":"m 44 0 l 403 485 l 72 972 l 183 972 l 457 568 l 465 568 l 703 972 l 814 972 l 481 532 l 842 0 l 731 0 l 426 449 l 418 449 l 156 0 l 44 0 z "},"Y":{"ha":857,"x_min":44,"x_max":821,"o":"m 389 0 l 389 411 l 44 972 l 150 972 l 460 464 l 468 464 l 715 972 l 821 972 l 489 431 l 489 0 l 389 0 z "},"y":{"ha":857,"x_min":44,"x_max":821,"o":"m 389 0 l 389 411 l 44 972 l 150 972 l 460 464 l 468 464 l 715 972 l 821 972 l 489 431 l 489 0 l 389 0 z "},"Ý":{"ha":857,"x_min":44,"x_max":821,"o":"m 389 0 l 389 411 l 44 972 l 150 972 l 460 464 l 468 464 l 715 972 l 821 972 l 489 431 l 489 0 l 389 0 m 349 1076 l 483 1246 l 608 1246 l 608 1238 l 367 1060 l 349 1076 z "},"ý":{"ha":857,"x_min":44,"x_max":821,"o":"m 389 0 l 389 411 l 44 972 l 150 972 l 460 464 l 468 464 l 715 972 l 821 972 l 489 431 l 489 0 l 389 0 m 349 1076 l 483 1246 l 608 1246 l 608 1238 l 367 1060 l 349 1076 z "},"Ŷ":{"ha":857,"x_min":44,"x_max":821,"o":"m 389 0 l 389 411 l 44 972 l 150 972 l 460 464 l 468 464 l 715 972 l 821 972 l 489 431 l 489 0 l 389 0 m 451 1257 l 619 1076 l 601 1060 l 433 1171 l 265 1060 l 247 1076 l 415 1257 l 451 1257 z "},"ŷ":{"ha":857,"x_min":44,"x_max":821,"o":"m 389 0 l 389 411 l 44 972 l 150 972 l 460 464 l 468 464 l 715 972 l 821 972 l 489 431 l 489 0 l 389 0 m 451 1257 l 619 1076 l 601 1060 l 433 1171 l 265 1060 l 247 1076 l 415 1257 l 451 1257 z "},"ÿ":{"ha":857,"x_min":44,"x_max":821,"o":"m 389 0 l 389 411 l 44 972 l 150 972 l 460 464 l 468 464 l 715 972 l 821 972 l 489 431 l 489 0 l 389 0 m 514 1174 q 532 1219 514 1201 q 576 1236 550 1236 q 622 1219 604 1236 q 639 1174 639 1201 q 622 1129 639 1147 q 576 1111 604 1111 q 532 1129 550 1111 q 514 1174 514 1147 m 228 1174 q 246 1219 228 1201 q 290 1236 264 1236 q 335 1219 318 1236 q 353 1174 353 1201 q 335 1129 353 1147 q 290 1111 318 1111 q 246 1129 264 1111 q 228 1174 228 1147 z "},"Ÿ":{"ha":857,"x_min":44,"x_max":821,"o":"m 389 0 l 389 411 l 44 972 l 150 972 l 460 464 l 468 464 l 715 972 l 821 972 l 489 431 l 489 0 l 389 0 m 514 1174 q 532 1219 514 1201 q 576 1236 550 1236 q 622 1219 604 1236 q 639 1174 639 1201 q 622 1129 639 1147 q 576 1111 604 1111 q 532 1129 550 1111 q 514 1174 514 1147 m 228 1174 q 246 1219 228 1201 q 290 1236 264 1236 q 335 1219 318 1236 q 353 1174 353 1201 q 335 1129 353 1147 q 290 1111 318 1111 q 246 1129 264 1111 q 228 1174 228 1147 z "},"Ỳ":{"ha":857,"x_min":44,"x_max":821,"o":"m 389 0 l 389 411 l 44 972 l 150 972 l 460 464 l 468 464 l 715 972 l 821 972 l 489 431 l 489 0 l 389 0 m 513 1076 l 494 1060 l 253 1238 l 253 1246 l 378 1246 l 513 1076 z "},"ỳ":{"ha":857,"x_min":44,"x_max":821,"o":"m 389 0 l 389 411 l 44 972 l 150 972 l 460 464 l 468 464 l 715 972 l 821 972 l 489 431 l 489 0 l 389 0 m 513 1076 l 494 1060 l 253 1238 l 253 1246 l 378 1246 l 513 1076 z "},"Ȳ":{"ha":857,"x_min":44,"x_max":821,"o":"m 389 0 l 389 411 l 44 972 l 150 972 l 460 464 l 468 464 l 715 972 l 821 972 l 489 431 l 489 0 l 389 0 m 247 1138 l 247 1193 l 619 1193 l 619 1138 l 247 1138 z "},"ȳ":{"ha":857,"x_min":44,"x_max":821,"o":"m 389 0 l 389 411 l 44 972 l 150 972 l 460 464 l 468 464 l 715 972 l 821 972 l 489 431 l 489 0 l 389 0 m 247 1138 l 247 1193 l 619 1193 l 619 1138 l 247 1138 z "},"Ỹ":{"ha":857,"x_min":44,"x_max":821,"o":"m 389 0 l 389 411 l 44 972 l 150 972 l 460 464 l 468 464 l 715 972 l 821 972 l 489 431 l 489 0 l 389 0 m 446 1213 q 490 1187 467 1199 q 538 1175 513 1175 q 582 1189 560 1175 q 633 1242 604 1203 l 654 1228 q 588 1128 618 1156 q 518 1100 557 1100 q 465 1112 489 1100 q 418 1138 442 1124 q 374 1163 397 1151 q 326 1175 351 1175 q 282 1162 304 1175 q 231 1108 260 1149 l 210 1122 q 276 1222 246 1194 q 346 1250 307 1250 q 399 1239 375 1250 q 446 1213 424 1228 z "},"ỹ":{"ha":857,"x_min":44,"x_max":821,"o":"m 389 0 l 389 411 l 44 972 l 150 972 l 460 464 l 468 464 l 715 972 l 821 972 l 489 431 l 489 0 l 389 0 m 446 1213 q 490 1187 467 1199 q 538 1175 513 1175 q 582 1189 560 1175 q 633 1242 604 1203 l 654 1228 q 588 1128 618 1156 q 518 1100 557 1100 q 465 1112 489 1100 q 418 1138 442 1124 q 374 1163 397 1151 q 326 1175 351 1175 q 282 1162 304 1175 q 231 1108 260 1149 l 210 1122 q 276 1222 246 1194 q 346 1250 307 1250 q 399 1239 375 1250 q 446 1213 424 1228 z "},"Z":{"ha":876,"x_min":63,"x_max":799,"o":"m 799 0 l 63 0 l 63 28 l 682 944 q 581 939 660 944 l 99 904 l 99 972 l 793 972 l 793 944 l 174 28 q 275 33 197 28 l 799 71 l 799 0 z "},"z":{"ha":876,"x_min":63,"x_max":799,"o":"m 799 0 l 63 0 l 63 28 l 682 944 q 581 939 660 944 l 99 904 l 99 972 l 793 972 l 793 944 l 174 28 q 275 33 197 28 l 799 71 l 799 0 z "},"Ź":{"ha":876,"x_min":63,"x_max":799,"o":"m 799 0 l 63 0 l 63 28 l 682 944 q 581 939 660 944 l 99 904 l 99 972 l 793 972 l 793 944 l 174 28 q 275 33 197 28 l 799 71 l 799 0 m 371 1076 l 506 1246 l 631 1246 l 631 1238 l 389 1060 l 371 1076 z "},"ź":{"ha":876,"x_min":63,"x_max":799,"o":"m 799 0 l 63 0 l 63 28 l 682 944 q 581 939 660 944 l 99 904 l 99 972 l 793 972 l 793 944 l 174 28 q 275 33 197 28 l 799 71 l 799 0 m 371 1076 l 506 1246 l 631 1246 l 631 1238 l 389 1060 l 371 1076 z "},"Ž":{"ha":876,"x_min":63,"x_max":799,"o":"m 799 0 l 63 0 l 63 28 l 682 944 q 581 939 660 944 l 99 904 l 99 972 l 793 972 l 793 944 l 174 28 q 275 33 197 28 l 799 71 l 799 0 m 438 1078 l 269 1258 l 288 1275 l 456 1164 l 624 1275 l 642 1258 l 474 1078 l 438 1078 z "},"ž":{"ha":876,"x_min":63,"x_max":799,"o":"m 799 0 l 63 0 l 63 28 l 682 944 q 581 939 660 944 l 99 904 l 99 972 l 793 972 l 793 944 l 174 28 q 275 33 197 28 l 799 71 l 799 0 m 438 1078 l 269 1258 l 288 1275 l 456 1164 l 624 1275 l 642 1258 l 474 1078 l 438 1078 z "},"Ż":{"ha":876,"x_min":63,"x_max":799,"o":"m 799 0 l 63 0 l 63 28 l 682 944 q 581 939 660 944 l 99 904 l 99 972 l 793 972 l 793 944 l 174 28 q 275 33 197 28 l 799 71 l 799 0 m 389 1174 q 408 1222 389 1203 q 456 1240 426 1240 q 503 1222 485 1240 q 522 1174 522 1203 q 503 1126 522 1144 q 456 1107 485 1107 q 408 1126 426 1107 q 389 1174 389 1144 z "},"ż":{"ha":876,"x_min":63,"x_max":799,"o":"m 799 0 l 63 0 l 63 28 l 682 944 q 581 939 660 944 l 99 904 l 99 972 l 793 972 l 793 944 l 174 28 q 275 33 197 28 l 799 71 l 799 0 m 389 1174 q 408 1222 389 1203 q 456 1240 426 1240 q 503 1222 485 1240 q 522 1174 522 1203 q 503 1126 522 1144 q 456 1107 485 1107 q 408 1126 426 1107 q 389 1174 389 1144 z "},"i":{"ha":456,"x_min":181,"x_max":275,"o":"m 181 0 l 181 972 l 275 972 l 275 0 l 181 0 z "},"ĸ":{"ha":933,"x_min":181,"x_max":906,"o":"m 781 0 l 325 499 l 747 972 l 867 972 l 410 538 l 906 0 l 781 0 m 181 0 l 181 972 l 275 972 l 275 0 l 181 0 z "},"ª":{"ha":556,"x_min":47,"x_max":508,"o":"m 47 483 l 244 972 l 311 972 l 508 483 l 433 483 l 351 692 l 183 692 l 122 483 l 47 483 m 253 929 l 190 715 l 342 715 l 257 929 l 253 929 z "},"º":{"ha":656,"x_min":69,"x_max":586,"o":"m 69 728 q 103 860 69 801 q 196 952 138 918 q 328 986 254 986 q 460 952 401 986 q 552 860 518 918 q 586 728 586 801 q 552 596 586 654 q 460 503 518 538 q 328 469 401 469 q 196 503 254 469 q 103 596 138 538 q 69 728 69 654 m 147 728 q 197 558 147 622 q 328 493 247 493 q 458 558 408 493 q 508 728 508 622 q 458 899 508 835 q 328 963 408 963 q 197 898 246 963 q 147 728 147 833 z "},"Δ":{"ha":915,"x_min":36,"x_max":871,"o":"m 36 0 l 410 972 l 497 972 l 871 0 l 36 0 m 418 897 l 150 39 l 754 39 l 426 897 l 418 897 z "},"δ":{"ha":915,"x_min":36,"x_max":871,"o":"m 36 0 l 410 972 l 497 972 l 871 0 l 36 0 m 418 897 l 150 39 l 754 39 l 426 897 l 418 897 z "},"∆":{"ha":915,"x_min":36,"x_max":871,"o":"m 36 0 l 410 972 l 497 972 l 871 0 l 36 0 m 418 897 l 150 39 l 754 39 l 426 897 l 418 897 z "},"Ω":{"ha":1208,"x_min":94,"x_max":1114,"o":"m 94 0 l 94 83 l 450 83 l 444 129 q 197 297 283 182 q 110 563 110 411 q 172 787 110 690 q 345 938 233 883 q 604 992 457 992 q 864 938 753 992 q 1037 787 975 883 q 1099 563 1099 690 q 1012 297 1099 411 q 764 129 925 182 l 758 83 l 1114 83 l 1114 0 l 711 0 l 731 143 q 993 564 993 294 q 944 772 993 683 q 808 909 896 860 q 604 958 721 958 q 400 909 488 958 q 264 772 313 860 q 215 564 215 683 q 478 143 215 294 l 497 0 l 94 0 z "},"ω":{"ha":1208,"x_min":94,"x_max":1114,"o":"m 94 0 l 94 83 l 450 83 l 444 129 q 197 297 283 182 q 110 563 110 411 q 172 787 110 690 q 345 938 233 883 q 604 992 457 992 q 864 938 753 992 q 1037 787 975 883 q 1099 563 1099 690 q 1012 297 1099 411 q 764 129 925 182 l 758 83 l 1114 83 l 1114 0 l 711 0 l 731 143 q 993 564 993 294 q 944 772 993 683 q 808 909 896 860 q 604 958 721 958 q 400 909 488 958 q 264 772 313 860 q 215 564 215 683 q 478 143 215 294 l 497 0 l 94 0 z "},"µ":{"ha":874,"x_min":146,"x_max":843,"o":"m 146 -306 l 146 683 l 232 683 l 232 250 q 280 92 232 149 q 414 36 328 36 q 524 66 474 36 q 619 160 574 96 l 619 683 l 706 683 l 706 121 q 756 31 706 31 q 819 88 797 31 l 843 78 q 799 3 824 25 q 733 -19 774 -19 q 619 111 626 -19 q 503 10 560 40 q 376 -19 446 -19 q 179 86 236 -19 l 179 36 l 251 -306 l 146 -306 z "},"μ":{"ha":874,"x_min":146,"x_max":843,"o":"m 146 -306 l 146 683 l 232 683 l 232 250 q 280 92 232 149 q 414 36 328 36 q 524 66 474 36 q 619 160 574 96 l 619 683 l 706 683 l 706 121 q 756 31 706 31 q 819 88 797 31 l 843 78 q 799 3 824 25 q 733 -19 774 -19 q 619 111 626 -19 q 503 10 560 40 q 376 -19 446 -19 q 179 86 236 -19 l 179 36 l 251 -306 l 146 -306 z "},"π":{"ha":856,"x_min":24,"x_max":793,"o":"m 169 0 l 229 608 l 179 608 q 94 591 124 608 q 47 532 64 574 l 24 540 q 83 649 43 615 q 192 683 124 683 l 793 683 l 793 608 l 625 608 l 640 153 q 657 86 643 106 q 697 67 671 67 q 767 124 744 67 l 790 114 q 740 16 768 43 q 669 -11 711 -11 q 581 28 613 -11 q 553 135 550 68 l 569 608 l 261 608 l 261 0 l 169 0 z "},"₀":{"ha":603,"x_min":86,"x_max":517,"o":"m 86 196 q 145 417 86 333 q 301 500 204 500 q 458 417 399 500 q 517 196 517 333 q 458 -25 517 58 q 301 -108 399 -108 q 145 -25 204 -108 q 86 196 86 58 m 167 196 q 202 -8 167 65 q 301 -81 238 -81 q 401 -8 365 -81 q 436 196 436 65 q 401 399 436 326 q 301 472 365 472 q 202 399 238 472 q 167 196 167 326 z "},"₁":{"ha":407,"x_min":51,"x_max":265,"o":"m 193 -94 l 193 429 l 60 371 l 51 389 l 243 500 l 265 500 l 265 -94 l 193 -94 z "},"₂":{"ha":511,"x_min":58,"x_max":432,"o":"m 58 -94 l 58 -72 l 268 192 q 325 277 308 242 q 342 350 342 313 q 313 440 342 407 q 236 472 285 472 q 99 411 168 472 l 93 411 l 89 465 q 236 500 163 500 q 372 461 321 500 q 422 357 422 422 q 398 278 422 318 q 307 167 374 239 l 126 -31 l 432 -31 l 432 -94 l 58 -94 z "},"₃":{"ha":504,"x_min":67,"x_max":424,"o":"m 189 206 l 157 206 l 157 233 l 186 233 q 284 265 250 233 q 318 356 318 296 q 290 440 318 408 q 217 472 263 472 q 147 458 185 472 q 86 418 110 443 l 81 418 l 76 472 q 143 492 104 485 q 217 500 182 500 q 347 461 297 500 q 396 358 396 422 q 362 274 396 308 q 263 224 328 239 l 263 218 q 381 164 339 206 q 424 57 424 122 q 367 -63 424 -18 q 217 -108 310 -108 q 72 -79 138 -108 l 67 -19 l 72 -19 q 142 -65 104 -50 q 217 -81 179 -81 q 308 -42 274 -81 q 343 60 343 -4 q 302 167 343 129 q 189 206 261 206 z "},"₄":{"ha":550,"x_min":56,"x_max":494,"o":"m 321 -94 l 321 65 l 56 65 l 56 88 l 228 486 l 314 486 l 89 93 l 321 93 l 321 294 l 390 294 l 390 93 l 494 93 l 494 65 l 390 65 l 390 -94 l 321 -94 z "},"₅":{"ha":499,"x_min":67,"x_max":413,"o":"m 71 -19 q 224 -81 147 -81 q 320 -45 283 -81 q 357 47 357 -10 q 314 149 357 110 q 201 203 271 189 l 96 224 l 125 486 l 390 486 l 390 422 l 146 422 l 131 288 l 222 269 q 362 201 311 251 q 413 72 413 150 q 360 -58 413 -8 q 222 -108 307 -108 q 156 -101 192 -108 q 71 -79 119 -93 l 67 -19 l 71 -19 z "},"₆":{"ha":565,"x_min":86,"x_max":482,"o":"m 167 143 q 202 -21 167 39 q 294 -81 238 -81 q 372 -40 343 -81 q 401 68 401 0 q 370 178 401 138 q 286 219 339 219 q 256 216 272 219 q 221 201 240 213 l 214 219 q 263 238 238 232 q 313 243 289 243 q 435 196 389 243 q 482 71 482 149 q 431 -59 482 -10 q 294 -108 379 -108 q 142 -42 197 -108 q 86 139 86 24 q 126 317 86 238 q 236 447 165 397 q 399 506 307 497 l 401 486 q 231 378 294 472 q 167 143 167 285 z "},"₇":{"ha":496,"x_min":58,"x_max":432,"o":"m 58 422 l 58 486 l 432 486 l 432 464 l 200 -94 l 128 -94 l 385 422 l 58 422 z "},"₈":{"ha":558,"x_min":81,"x_max":478,"o":"m 478 40 q 424 -68 478 -28 q 279 -108 369 -108 q 135 -69 190 -108 q 81 35 81 -31 q 119 135 81 90 q 222 203 157 179 q 104 365 104 276 q 152 463 104 426 q 279 500 200 500 q 406 465 357 500 q 454 376 454 431 q 422 292 454 332 q 328 225 389 251 q 442 138 406 182 q 478 40 478 93 m 174 376 q 201 312 174 342 q 303 239 228 282 q 382 369 382 281 q 354 445 382 418 q 279 472 326 472 q 203 447 233 472 q 174 376 174 421 m 154 42 q 189 -49 154 -17 q 279 -81 224 -81 q 371 -50 335 -81 q 407 32 407 -19 q 394 80 407 58 q 346 127 381 101 q 247 189 311 153 q 154 42 154 142 z "},"₉":{"ha":561,"x_min":83,"x_max":475,"o":"m 394 249 q 360 413 394 353 q 269 472 325 472 q 193 433 222 472 q 164 326 164 393 q 194 218 164 258 q 276 178 225 178 q 307 182 292 178 q 340 196 322 186 l 347 178 q 299 160 325 165 q 250 154 274 154 q 129 201 175 154 q 83 324 83 247 q 135 452 83 404 q 269 500 186 500 q 419 434 364 500 q 475 253 475 368 q 437 74 475 154 q 331 -56 399 -6 q 176 -114 264 -106 l 174 -94 q 290 -39 240 -85 q 367 81 339 7 q 394 249 394 156 z "},"⁰":{"ha":603,"x_min":86,"x_max":517,"o":"m 86 793 q 145 1014 86 931 q 301 1097 204 1097 q 458 1014 399 1097 q 517 793 517 931 q 458 572 517 656 q 301 489 399 489 q 145 572 204 489 q 86 793 86 656 m 167 793 q 202 590 167 663 q 301 517 238 517 q 401 590 365 517 q 436 793 436 663 q 401 997 436 924 q 301 1069 365 1069 q 202 997 238 1069 q 167 793 167 924 z "},"¹":{"ha":407,"x_min":51,"x_max":265,"o":"m 193 503 l 193 1026 l 60 968 l 51 986 l 243 1097 l 265 1097 l 265 503 l 193 503 z "},"²":{"ha":511,"x_min":58,"x_max":432,"o":"m 58 503 l 58 525 l 268 789 q 325 874 308 839 q 342 947 342 910 q 313 1037 342 1004 q 236 1069 285 1069 q 99 1008 168 1069 l 93 1008 l 89 1063 q 236 1097 163 1097 q 372 1058 321 1097 q 422 954 422 1019 q 398 876 422 915 q 307 764 374 836 l 126 567 l 432 567 l 432 503 l 58 503 z "},"³":{"ha":504,"x_min":67,"x_max":424,"o":"m 189 803 l 157 803 l 157 831 l 186 831 q 284 862 250 831 q 318 953 318 893 q 290 1038 318 1006 q 217 1069 263 1069 q 147 1055 185 1069 q 86 1015 110 1040 l 81 1015 l 76 1069 q 143 1090 104 1082 q 217 1097 182 1097 q 347 1058 297 1097 q 396 956 396 1019 q 362 871 396 906 q 263 821 328 836 l 263 815 q 381 761 339 803 q 424 654 424 719 q 367 534 424 579 q 217 489 310 489 q 72 518 138 489 l 67 578 l 72 578 q 142 532 104 547 q 217 517 179 517 q 308 555 274 517 q 343 657 343 593 q 302 765 343 726 q 189 803 261 803 z "},"⁴":{"ha":550,"x_min":56,"x_max":494,"o":"m 321 503 l 321 663 l 56 663 l 56 685 l 228 1083 l 314 1083 l 89 690 l 321 690 l 321 892 l 390 892 l 390 690 l 494 690 l 494 663 l 390 663 l 390 503 l 321 503 z "},"⁵":{"ha":499,"x_min":67,"x_max":413,"o":"m 71 578 q 224 517 147 517 q 320 552 283 517 q 357 644 357 588 q 314 747 357 707 q 201 800 271 786 l 96 821 l 125 1083 l 390 1083 l 390 1019 l 146 1019 l 131 885 l 222 867 q 362 798 311 849 q 413 669 413 747 q 360 539 413 589 q 222 489 307 489 q 156 497 192 489 q 71 518 119 504 l 67 578 l 71 578 z "},"⁶":{"ha":565,"x_min":86,"x_max":482,"o":"m 167 740 q 202 576 167 636 q 294 517 238 517 q 372 557 343 517 q 401 665 401 597 q 370 776 401 735 q 286 817 339 817 q 256 813 272 817 q 221 799 240 810 l 214 817 q 263 835 238 829 q 313 840 289 840 q 435 793 389 840 q 482 668 482 746 q 431 538 482 588 q 294 489 379 489 q 142 555 197 489 q 86 736 86 621 q 126 915 86 835 q 236 1044 165 994 q 399 1103 307 1094 l 401 1083 q 231 976 294 1069 q 167 740 167 882 z "},"⁷":{"ha":496,"x_min":58,"x_max":432,"o":"m 58 1019 l 58 1083 l 432 1083 l 432 1061 l 200 503 l 128 503 l 385 1019 l 58 1019 z "},"⁸":{"ha":558,"x_min":81,"x_max":478,"o":"m 478 638 q 424 529 478 569 q 279 489 369 489 q 135 528 190 489 q 81 632 81 567 q 119 732 81 688 q 222 800 157 776 q 104 963 104 874 q 152 1060 104 1024 q 279 1097 200 1097 q 406 1063 357 1097 q 454 974 454 1028 q 422 889 454 929 q 328 822 389 849 q 442 735 406 779 q 478 638 478 690 m 174 974 q 201 909 174 939 q 303 836 228 879 q 382 967 382 878 q 354 1042 382 1015 q 279 1069 326 1069 q 203 1044 233 1069 q 174 974 174 1018 m 154 639 q 189 549 154 581 q 279 517 224 517 q 371 547 335 517 q 407 629 407 578 q 394 677 407 656 q 346 724 381 699 q 247 786 311 750 q 154 639 154 739 z "},"⁹":{"ha":561,"x_min":83,"x_max":475,"o":"m 394 846 q 360 1010 394 950 q 269 1069 325 1069 q 193 1030 222 1069 q 164 924 164 990 q 194 815 164 856 q 276 775 225 775 q 307 779 292 775 q 340 793 322 783 l 347 775 q 299 757 325 763 q 250 751 274 751 q 129 798 175 751 q 83 921 83 844 q 135 1049 83 1001 q 269 1097 186 1097 q 419 1031 364 1097 q 475 850 475 965 q 437 672 475 751 q 331 542 399 592 q 176 483 264 492 l 174 503 q 290 558 240 513 q 367 678 339 604 q 394 846 394 753 z "},"⁄":{"ha":200,"x_min":-194,"x_max":394,"o":"m -194 0 l 350 972 l 394 972 l -150 0 l -194 0 z "},"½":{"ha":1132,"x_min":51,"x_max":1053,"o":"m 193 392 l 193 915 l 60 857 l 51 875 l 243 986 l 265 986 l 265 392 l 193 392 m 213 0 l 757 972 l 801 972 l 257 0 l 213 0 m 679 0 l 679 22 l 889 286 q 946 372 929 336 q 963 444 963 407 q 934 534 963 501 q 857 567 906 567 q 719 506 789 567 l 714 506 l 710 560 q 857 594 783 594 q 992 556 942 594 q 1043 451 1043 517 q 1019 373 1043 413 q 928 261 994 333 l 747 64 l 1053 64 l 1053 0 l 679 0 z "},"¼":{"ha":1129,"x_min":51,"x_max":1074,"o":"m 193 392 l 193 915 l 60 857 l 51 875 l 243 986 l 265 986 l 265 392 l 193 392 m 213 0 l 757 972 l 801 972 l 257 0 l 213 0 m 900 0 l 900 160 l 635 160 l 635 182 l 807 581 l 893 581 l 668 188 l 900 188 l 900 389 l 969 389 l 969 188 l 1074 188 l 1074 160 l 969 160 l 969 0 l 900 0 z "},"¾":{"ha":1226,"x_min":67,"x_max":1171,"o":"m 189 692 l 157 692 l 157 719 l 186 719 q 284 751 250 719 q 318 842 318 782 q 290 926 318 894 q 217 958 263 958 q 147 944 185 958 q 86 904 110 929 l 81 904 l 76 958 q 143 978 104 971 q 217 986 182 986 q 347 947 297 986 q 396 844 396 908 q 362 760 396 794 q 263 710 328 725 l 263 704 q 381 650 339 692 q 424 543 424 608 q 367 423 424 468 q 217 378 310 378 q 72 407 138 378 l 67 467 l 72 467 q 142 421 104 436 q 217 406 179 406 q 308 444 274 406 q 343 546 343 482 q 302 653 343 615 q 189 692 261 692 m 310 0 l 854 972 l 899 972 l 354 0 l 310 0 m 997 0 l 997 160 l 732 160 l 732 182 l 904 581 l 990 581 l 765 188 l 997 188 l 997 389 l 1067 389 l 1067 188 l 1171 188 l 1171 160 l 1067 160 l 1067 0 l 997 0 z "},"\r":{"ha":347,"x_min":0,"x_max":0,"o":""},"\u0000":{"ha":0,"x_min":0,"x_max":0,"o":""}," ":{"ha":375,"x_min":0,"x_max":0,"o":""}," ":{"ha":375,"x_min":0,"x_max":0,"o":""},".":{"ha":367,"x_min":111,"x_max":256,"o":"m 111 58 q 132 110 111 90 q 183 131 153 131 q 235 110 215 131 q 256 58 256 90 q 235 7 256 28 q 183 -14 215 -14 q 132 7 153 -14 q 111 58 111 28 z "},",":{"ha":367,"x_min":104,"x_max":258,"o":"m 104 58 q 125 110 104 90 q 179 131 146 131 q 238 102 218 131 q 258 21 258 74 q 224 -106 258 -47 q 129 -207 190 -165 l 115 -186 q 217 17 211 -114 q 168 -10 200 -10 q 122 10 139 -10 q 104 58 104 29 z "},":":{"ha":367,"x_min":111,"x_max":256,"o":"m 111 58 q 132 110 111 90 q 183 131 153 131 q 235 110 215 131 q 256 58 256 90 q 235 7 256 28 q 183 -14 215 -14 q 132 7 153 -14 q 111 58 111 28 m 111 611 q 132 663 111 643 q 183 683 153 683 q 235 663 215 683 q 256 611 256 643 q 235 560 256 581 q 183 539 215 539 q 132 560 153 539 q 111 611 111 581 z "},";":{"ha":367,"x_min":100,"x_max":254,"o":"m 100 58 q 121 110 100 90 q 175 131 142 131 q 234 102 214 131 q 254 21 254 74 q 220 -106 254 -47 q 125 -207 186 -165 l 111 -186 q 213 17 207 -114 q 164 -10 196 -10 q 117 10 135 -10 q 100 58 100 29 m 106 611 q 126 663 106 643 q 178 683 147 683 q 230 663 210 683 q 250 611 250 643 q 230 560 250 581 q 178 539 210 539 q 126 560 147 539 q 106 611 106 581 z "},"…":{"ha":1206,"x_min":111,"x_max":1094,"o":"m 111 58 q 132 110 111 90 q 183 131 153 131 q 235 110 215 131 q 256 58 256 90 q 235 7 256 28 q 183 -14 215 -14 q 132 7 153 -14 q 111 58 111 28 m 531 58 q 551 110 531 90 q 603 131 572 131 q 655 110 635 131 q 675 58 675 90 q 655 7 675 28 q 603 -14 635 -14 q 551 7 572 -14 q 531 58 531 28 m 950 58 q 971 110 950 90 q 1022 131 992 131 q 1074 110 1054 131 q 1094 58 1094 90 q 1074 7 1094 28 q 1022 -14 1054 -14 q 971 7 992 -14 q 950 58 950 28 z "},"!":{"ha":458,"x_min":157,"x_max":301,"o":"m 215 240 l 171 972 l 288 972 l 243 240 l 215 240 m 157 58 q 178 110 157 90 q 229 131 199 131 q 281 110 261 131 q 301 58 301 90 q 281 7 301 28 q 229 -14 261 -14 q 178 7 199 -14 q 157 58 157 28 z "},"¡":{"ha":458,"x_min":157,"x_max":301,"o":"m 301 914 q 281 863 301 883 q 229 842 261 842 q 178 863 199 842 q 157 914 157 883 q 178 966 157 946 q 229 986 199 986 q 281 966 261 986 q 301 914 301 946 m 243 732 l 288 0 l 171 0 l 215 732 l 243 732 z "},"?":{"ha":678,"x_min":83,"x_max":581,"o":"m 431 521 l 288 428 l 278 240 l 250 240 l 242 433 l 381 557 q 478 767 478 642 q 432 906 478 854 q 310 958 386 958 q 201 935 258 958 q 99 867 143 911 l 90 867 l 83 942 q 192 978 132 965 q 310 992 253 992 q 506 932 432 992 q 581 774 581 872 q 540 635 581 703 q 431 521 500 567 m 192 58 q 213 110 192 90 q 264 131 233 131 q 316 110 296 131 q 336 58 336 90 q 316 7 336 28 q 264 -14 296 -14 q 213 7 233 -14 q 192 58 192 28 z "},"¿":{"ha":678,"x_min":97,"x_max":594,"o":"m 486 914 q 466 863 486 883 q 414 842 446 842 q 363 863 383 842 q 342 914 342 883 q 363 966 342 946 q 414 986 383 986 q 466 966 446 986 q 486 914 486 946 m 247 451 l 390 544 l 400 732 l 428 732 l 436 539 l 297 415 q 200 206 200 331 q 246 66 200 118 q 368 14 292 14 q 478 38 421 14 q 579 106 536 63 l 588 106 l 594 31 q 486 -6 547 8 q 368 -19 425 -19 q 172 41 246 -19 q 97 199 97 101 q 138 338 97 269 q 247 451 178 406 z "},"·":{"ha":367,"x_min":111,"x_max":256,"o":"m 111 503 q 132 555 111 535 q 183 575 153 575 q 235 555 215 575 q 256 503 256 535 q 235 451 256 472 q 183 431 215 431 q 132 451 153 431 q 111 503 111 472 z "},"•":{"ha":572,"x_min":125,"x_max":447,"o":"m 125 504 q 170 620 125 575 q 286 665 215 665 q 402 620 357 665 q 447 504 447 575 q 402 388 447 433 q 286 343 357 343 q 170 388 215 343 q 125 504 125 433 z "},"*":{"ha":633,"x_min":69,"x_max":564,"o":"m 528 600 l 326 746 l 353 500 l 281 500 l 307 746 l 106 600 l 69 663 l 297 764 l 69 865 l 106 928 l 307 782 l 281 1028 l 353 1028 l 326 782 l 528 928 l 564 865 l 336 764 l 564 663 l 528 600 z "},"#":{"ha":831,"x_min":49,"x_max":782,"o":"m 154 0 l 204 282 l 49 282 l 49 360 l 218 360 l 267 632 l 111 632 l 111 710 l 281 710 l 326 972 l 361 972 l 315 710 l 592 710 l 638 972 l 672 972 l 626 710 l 782 710 l 782 632 l 613 632 l 564 360 l 719 360 l 719 282 l 550 282 l 500 0 l 465 0 l 515 282 l 239 282 l 189 0 l 154 0 m 253 360 l 529 360 l 578 632 l 301 632 l 253 360 z "},"/":{"ha":503,"x_min":69,"x_max":433,"o":"m 69 0 l 386 972 l 433 972 l 117 0 l 69 0 z "},"\\":{"ha":503,"x_min":69,"x_max":433,"o":"m 433 0 l 386 0 l 69 972 l 117 972 l 433 0 z "},"-":{"ha":458,"x_min":56,"x_max":403,"o":"m 56 465 l 56 526 l 403 526 l 403 465 l 56 465 z "},"‐":{"ha":458,"x_min":56,"x_max":403,"o":"m 56 465 l 56 526 l 403 526 l 403 465 l 56 465 z "},"­":{"ha":0,"x_min":0,"x_max":0,"o":""},"–":{"ha":806,"x_min":56,"x_max":750,"o":"m 56 475 l 56 517 l 750 517 l 750 475 l 56 475 z "},"—":{"ha":1500,"x_min":56,"x_max":1444,"o":"m 56 475 l 56 517 l 1444 517 l 1444 475 l 56 475 z "},"_":{"ha":694,"x_min":0,"x_max":694,"o":"m 0 -167 l 0 -125 l 694 -125 l 694 -167 l 0 -167 z "},"(":{"ha":474,"x_min":125,"x_max":410,"o":"m 125 486 q 157 708 125 599 q 249 914 189 817 q 390 1086 308 1011 l 410 1071 q 308 902 351 997 q 242 701 265 807 q 219 486 219 594 q 242 272 219 379 q 308 71 265 165 q 410 -99 351 -24 l 390 -114 q 249 58 308 -39 q 157 265 189 156 q 125 486 125 375 z "},")":{"ha":474,"x_min":64,"x_max":349,"o":"m 349 486 q 317 265 349 375 q 226 58 285 156 q 83 -114 167 -39 l 64 -99 q 166 71 124 -24 q 231 272 208 165 q 254 486 254 379 q 231 701 254 594 q 166 902 208 807 q 64 1071 124 997 l 83 1086 q 226 914 167 1011 q 317 708 285 817 q 349 486 349 599 z "},"{":{"ha":439,"x_min":58,"x_max":367,"o":"m 181 650 q 178 690 181 669 q 169 750 176 711 q 161 806 164 786 q 158 840 158 825 q 186 942 158 897 q 258 1023 214 988 q 351 1085 303 1058 l 367 1065 q 278 989 314 1031 q 242 875 242 947 q 244 838 242 857 q 253 781 247 818 q 260 733 257 758 q 264 683 264 707 q 231 564 264 607 q 154 503 197 521 l 154 494 q 231 431 197 476 q 264 306 264 385 q 262 265 264 288 q 253 203 260 243 q 244 144 247 164 q 242 106 242 124 q 258 16 242 51 q 302 -45 274 -19 q 367 -96 331 -71 l 351 -115 q 258 -51 301 -86 q 186 30 214 -17 q 158 140 158 76 q 161 178 158 158 q 169 239 164 199 q 177 289 174 263 q 181 342 181 315 q 149 456 181 426 q 72 486 117 486 l 58 486 l 58 511 l 72 511 q 149 540 117 511 q 181 650 181 568 z "},"}":{"ha":439,"x_min":72,"x_max":381,"o":"m 258 650 q 290 540 258 568 q 367 511 322 511 l 381 511 l 381 486 l 367 486 q 290 456 322 486 q 258 342 258 426 q 262 289 258 315 q 269 239 265 263 q 278 178 276 199 q 281 140 281 158 q 253 30 281 76 q 182 -51 226 -17 q 88 -115 138 -86 l 72 -96 q 137 -45 108 -71 q 181 16 165 -19 q 197 106 197 51 q 195 144 197 124 q 186 203 193 164 q 178 265 181 243 q 175 306 175 288 q 208 431 175 385 q 285 494 242 476 l 285 503 q 208 564 242 521 q 175 683 175 607 q 178 733 175 707 q 186 781 182 758 q 195 838 193 818 q 197 875 197 857 q 161 989 197 947 q 72 1065 125 1031 l 88 1085 q 181 1023 138 1058 q 253 942 225 988 q 281 840 281 897 q 278 806 281 825 q 269 750 276 786 q 261 690 264 711 q 258 650 258 669 z "},"[":{"ha":517,"x_min":181,"x_max":440,"o":"m 181 -94 l 181 1067 l 440 1067 l 440 1042 l 267 1042 l 267 -69 l 440 -69 l 440 -94 l 181 -94 z "},"]":{"ha":517,"x_min":76,"x_max":336,"o":"m 336 -94 l 76 -94 l 76 -69 l 250 -69 l 250 1042 l 76 1042 l 76 1067 l 336 1067 l 336 -94 z "},"‚":{"ha":367,"x_min":104,"x_max":258,"o":"m 104 58 q 125 110 104 90 q 179 131 146 131 q 238 102 218 131 q 258 21 258 74 q 224 -106 258 -47 q 129 -207 190 -165 l 115 -186 q 217 17 211 -114 q 168 -10 200 -10 q 122 10 139 -10 q 104 58 104 29 z "},"„":{"ha":608,"x_min":104,"x_max":500,"o":"m 104 58 q 125 110 104 90 q 179 131 146 131 q 238 102 218 131 q 258 21 258 74 q 224 -106 258 -47 q 129 -207 190 -165 l 115 -186 q 217 17 211 -114 q 168 -10 200 -10 q 122 10 139 -10 q 104 58 104 29 m 346 58 q 367 110 346 90 q 421 131 388 131 q 480 102 460 131 q 500 21 500 74 q 466 -106 500 -47 q 371 -207 432 -165 l 357 -186 q 458 17 453 -114 q 410 -10 442 -10 q 363 10 381 -10 q 346 58 346 29 z "},"“":{"ha":608,"x_min":108,"x_max":504,"o":"m 504 726 q 483 674 504 694 q 429 654 463 654 q 370 683 390 654 q 350 764 350 713 q 384 891 350 832 q 479 992 418 950 l 493 971 q 392 768 397 899 q 440 794 408 794 q 487 775 469 794 q 504 726 504 756 m 263 726 q 242 674 263 694 q 188 654 221 654 q 128 683 149 654 q 108 764 108 713 q 142 891 108 832 q 238 992 176 950 l 251 971 q 150 768 156 899 q 199 794 167 794 q 245 775 228 794 q 263 726 263 756 z "},"”":{"ha":608,"x_min":104,"x_max":500,"o":"m 104 914 q 125 966 104 946 q 179 986 146 986 q 238 958 218 986 q 258 876 258 929 q 224 749 258 808 q 129 649 190 690 l 115 669 q 217 872 211 742 q 168 846 200 846 q 122 865 139 846 q 104 914 104 885 m 346 914 q 367 966 346 946 q 421 986 388 986 q 480 958 460 986 q 500 876 500 929 q 466 749 500 808 q 371 649 432 690 l 357 669 q 458 872 453 742 q 410 846 442 846 q 363 865 381 846 q 346 914 346 885 z "},"ʻ":{"ha":367,"x_min":108,"x_max":263,"o":"m 263 726 q 242 674 263 694 q 188 654 221 654 q 128 683 149 654 q 108 764 108 713 q 142 891 108 832 q 238 992 176 950 l 251 971 q 150 768 156 899 q 199 794 167 794 q 245 775 228 794 q 263 726 263 756 z "},"‘":{"ha":367,"x_min":108,"x_max":263,"o":"m 263 726 q 242 674 263 694 q 188 654 221 654 q 128 683 149 654 q 108 764 108 713 q 142 891 108 832 q 238 992 176 950 l 251 971 q 150 768 156 899 q 199 794 167 794 q 245 775 228 794 q 263 726 263 756 z "},"ʼ":{"ha":367,"x_min":104,"x_max":258,"o":"m 104 914 q 125 966 104 946 q 179 986 146 986 q 238 958 218 986 q 258 876 258 929 q 224 749 258 808 q 129 649 190 690 l 115 669 q 217 872 211 742 q 168 846 200 846 q 122 865 139 846 q 104 914 104 885 z "},"’":{"ha":367,"x_min":104,"x_max":258,"o":"m 104 914 q 125 966 104 946 q 179 986 146 986 q 238 958 218 986 q 258 876 258 929 q 224 749 258 808 q 129 649 190 690 l 115 669 q 217 872 211 742 q 168 846 200 846 q 122 865 139 846 q 104 914 104 885 z "},"«":{"ha":667,"x_min":83,"x_max":583,"o":"m 565 214 l 308 475 l 308 497 l 565 758 l 583 742 l 408 486 l 583 231 l 565 214 m 340 214 l 83 475 l 83 497 l 340 758 l 358 742 l 183 486 l 358 231 l 340 214 z "},"»":{"ha":667,"x_min":83,"x_max":583,"o":"m 101 214 l 83 231 l 258 486 l 83 742 l 101 758 l 358 497 l 358 475 l 101 214 m 326 214 l 308 231 l 483 486 l 308 742 l 326 758 l 583 497 l 583 475 l 326 214 z "},"‹":{"ha":442,"x_min":83,"x_max":358,"o":"m 340 214 l 83 475 l 83 497 l 340 758 l 358 742 l 183 486 l 358 231 l 340 214 z "},"›":{"ha":442,"x_min":83,"x_max":358,"o":"m 101 214 l 83 231 l 258 486 l 83 742 l 101 758 l 358 497 l 358 475 l 101 214 z "},"\"":{"ha":543,"x_min":104,"x_max":439,"o":"m 210 889 l 171 656 l 146 656 l 107 889 q 104 921 104 906 q 115 965 104 944 q 158 986 126 986 q 201 965 190 986 q 213 921 213 944 q 212 904 213 913 q 210 889 211 896 m 436 889 l 397 656 l 372 656 l 333 889 q 331 921 331 906 q 342 965 331 944 q 385 986 353 986 q 428 965 417 986 q 439 921 439 944 q 438 904 439 913 q 436 889 438 896 z "},"'":{"ha":317,"x_min":104,"x_max":213,"o":"m 210 889 l 171 656 l 146 656 l 107 889 q 104 921 104 906 q 115 965 104 944 q 158 986 126 986 q 201 965 190 986 q 213 921 213 944 q 212 904 213 913 q 210 889 211 896 z "},"ƒ":{"ha":576,"x_min":-74,"x_max":568,"o":"m 147 115 l 203 567 l 79 567 l 83 600 l 207 600 l 226 756 q 446 992 256 992 q 505 985 475 992 q 568 961 535 979 l 551 888 l 543 888 q 495 945 518 932 q 446 958 472 958 q 362 917 396 958 q 318 794 328 876 l 294 600 l 475 600 l 471 567 l 290 567 l 236 125 q 137 -189 211 -82 q -71 -315 63 -296 l -74 -307 q 73 -162 21 -269 q 147 115 125 -56 z "},"@":{"ha":1390,"x_min":125,"x_max":1265,"o":"m 771 810 q 873 794 824 810 q 957 751 922 779 l 901 442 q 896 382 896 410 q 925 281 896 317 q 1006 246 954 246 q 1103 285 1061 246 q 1169 397 1144 325 q 1193 561 1193 468 q 1135 816 1193 707 q 976 985 1078 925 q 739 1046 874 1046 q 528 1003 625 1046 q 359 884 431 961 q 248 702 288 807 q 208 472 208 597 q 278 189 208 310 q 473 1 347 68 q 767 -65 599 -65 q 1004 -22 896 -65 q 1215 113 1113 21 l 1232 94 q 1012 -59 1126 -11 q 749 -107 897 -107 q 419 -37 560 -107 q 202 162 279 33 q 125 464 125 290 q 171 710 125 597 q 299 905 217 822 q 494 1033 382 988 q 742 1079 607 1079 q 1017 1017 900 1079 q 1200 842 1135 954 q 1265 579 1265 731 q 1231 385 1265 469 q 1135 253 1196 301 q 994 206 1075 206 q 843 343 858 206 l 835 343 q 756 240 807 275 q 636 206 704 206 q 482 270 540 206 q 424 443 424 335 q 451 583 424 517 q 526 700 478 649 q 638 781 575 751 q 771 810 700 810 m 503 463 q 547 309 503 368 q 663 250 592 250 q 769 300 725 250 q 829 442 813 350 l 885 750 q 832 770 860 764 q 775 776 804 776 q 639 733 701 776 q 540 619 576 690 q 503 463 503 547 z "},"&":{"ha":968,"x_min":97,"x_max":932,"o":"m 808 0 l 678 142 q 555 19 621 57 q 399 -19 489 -19 q 240 13 308 -19 q 135 105 172 46 q 97 242 97 164 q 155 412 97 338 q 321 529 213 486 l 310 542 q 218 667 246 611 q 190 783 190 724 q 250 935 190 878 q 407 992 310 992 q 559 940 501 992 q 617 801 617 888 q 566 657 617 724 q 429 546 515 590 l 701 250 l 799 508 l 893 508 l 724 226 l 932 0 l 808 0 m 372 607 l 410 567 q 529 792 529 646 q 497 915 529 871 q 407 958 464 958 q 312 916 350 958 q 274 804 274 874 q 297 710 274 757 q 372 607 321 664 m 188 253 q 251 80 188 146 q 415 14 314 14 q 656 167 554 14 l 342 508 q 188 253 188 426 z "},"¶":{"ha":874,"x_min":104,"x_max":801,"o":"m 401 -131 l 401 454 l 385 454 q 181 525 258 454 q 104 714 104 596 q 140 850 104 792 q 238 940 175 908 q 385 972 301 972 l 801 972 l 801 939 l 671 939 l 671 -131 l 601 -131 l 601 939 l 471 939 l 471 -131 l 401 -131 z "},"§":{"ha":700,"x_min":103,"x_max":597,"o":"m 136 -79 l 143 -4 l 151 -4 q 246 -65 196 -44 q 343 -86 296 -86 q 449 -49 408 -86 q 489 53 489 -11 q 449 149 489 110 q 307 231 410 189 q 211 276 258 251 q 133 340 164 300 q 103 444 103 381 q 140 558 103 511 q 244 633 176 606 q 169 696 200 658 q 139 797 139 733 q 199 938 139 885 q 360 992 260 992 q 451 982 403 992 q 538 957 499 972 l 532 888 l 524 888 q 360 961 447 961 q 252 922 293 961 q 211 818 211 883 q 250 726 211 763 q 390 650 289 689 q 551 560 506 606 q 597 449 597 515 q 558 331 597 382 q 449 253 518 279 q 535 176 510 217 q 561 82 561 136 q 501 -62 561 -7 q 343 -117 442 -117 q 246 -107 303 -117 q 136 -79 189 -97 m 354 299 q 418 269 390 283 q 496 331 467 292 q 525 419 525 371 q 485 510 525 469 q 343 590 446 550 q 309 603 326 597 q 275 618 292 610 q 175 469 175 567 q 214 379 175 418 q 354 299 253 340 z "},"©":{"ha":1233,"x_min":111,"x_max":1122,"o":"m 111 486 q 149 688 111 596 q 254 849 186 781 q 415 954 322 917 q 617 992 507 992 q 819 954 726 992 q 979 849 911 917 q 1085 688 1047 781 q 1122 486 1122 596 q 1085 284 1122 376 q 979 124 1047 192 q 819 18 911 56 q 617 -19 726 -19 q 415 18 507 -19 q 254 124 322 56 q 149 284 186 192 q 111 486 111 376 m 150 486 q 185 297 150 383 q 283 148 219 211 q 431 49 346 85 q 617 14 515 14 q 803 49 718 14 q 951 148 888 85 q 1049 297 1014 211 q 1083 486 1083 383 q 1049 675 1083 589 q 951 824 1014 761 q 803 923 888 888 q 617 958 718 958 q 376 897 482 958 q 210 729 271 836 q 150 486 150 622 m 825 290 l 819 231 q 737 206 789 217 q 640 196 685 196 q 485 235 554 196 q 375 340 415 274 q 335 489 335 406 q 375 638 335 572 q 485 743 415 704 q 640 782 554 782 q 728 773 682 782 q 818 746 775 764 l 814 690 l 808 690 q 733 740 774 722 q 640 757 693 757 q 474 686 533 757 q 415 489 415 615 q 475 292 415 363 q 640 221 535 221 q 740 240 697 221 q 819 290 783 260 l 825 290 z "},"®":{"ha":656,"x_min":69,"x_max":586,"o":"m 69 728 q 102 863 69 804 q 193 953 135 921 q 328 986 251 986 q 463 953 404 986 q 553 863 521 921 q 586 728 586 804 q 553 593 586 651 q 463 502 521 535 q 328 469 404 469 q 193 502 251 469 q 102 593 135 535 q 69 728 69 651 m 106 728 q 168 562 106 626 q 328 497 231 497 q 488 562 426 497 q 550 728 550 626 q 488 894 550 831 q 328 958 426 958 q 168 894 231 958 q 106 728 106 831 m 238 872 l 308 872 q 387 853 358 872 q 415 799 415 835 q 356 738 415 747 l 356 735 q 390 713 378 729 q 417 658 403 697 q 438 610 428 625 q 464 592 449 596 l 464 589 l 451 589 q 393 613 410 589 q 368 663 376 636 q 344 717 356 703 q 306 732 332 732 l 303 732 l 303 743 l 306 743 q 354 756 339 743 q 369 799 369 768 q 355 844 369 831 q 308 858 340 858 l 282 858 l 282 589 l 238 589 l 238 872 z "},"℗":{"ha":1233,"x_min":111,"x_max":1122,"o":"m 111 486 q 149 688 111 596 q 254 849 186 781 q 415 954 322 917 q 617 992 507 992 q 819 954 726 992 q 979 849 911 917 q 1085 688 1047 781 q 1122 486 1122 596 q 1085 284 1122 376 q 979 124 1047 192 q 819 18 911 56 q 617 -19 726 -19 q 415 18 507 -19 q 254 124 322 56 q 149 284 186 192 q 111 486 111 376 m 150 486 q 185 297 150 383 q 283 148 219 211 q 431 49 346 85 q 617 14 515 14 q 803 49 718 14 q 951 148 888 85 q 1049 297 1014 211 q 1083 486 1083 383 q 1049 675 1083 589 q 951 824 1014 761 q 803 923 888 888 q 617 958 718 958 q 376 897 482 958 q 210 729 271 836 q 150 486 150 622 m 499 207 l 499 771 l 613 771 q 767 729 711 771 q 824 614 824 688 q 767 499 824 540 q 613 457 711 457 l 571 457 l 571 207 l 499 207 m 604 746 l 571 746 l 571 482 l 604 482 q 749 614 749 482 q 604 746 749 746 z "},"™":{"ha":1164,"x_min":42,"x_max":1033,"o":"m 1033 972 l 1033 483 l 964 483 l 964 918 l 960 918 l 800 604 l 771 604 l 585 874 l 581 874 l 604 483 l 535 483 l 563 986 l 585 986 l 803 669 l 807 669 l 961 972 l 1033 972 m 214 483 l 214 956 l 46 925 l 42 925 l 42 972 l 456 972 l 456 925 l 451 925 l 283 956 l 283 483 l 214 483 z "},"°":{"ha":489,"x_min":63,"x_max":426,"o":"m 63 804 q 114 935 63 883 q 244 986 165 986 q 375 935 324 986 q 426 804 426 883 q 375 674 426 725 q 244 622 324 622 q 114 674 165 622 q 63 804 63 725 m 107 804 q 146 701 107 742 q 244 661 185 661 q 343 701 304 661 q 382 804 382 742 q 343 907 382 867 q 244 947 304 947 q 146 907 185 947 q 107 804 107 867 z "},"′":{"ha":268,"x_min":92,"x_max":204,"o":"m 196 889 l 117 656 l 92 656 l 92 889 q 156 986 92 986 q 204 936 204 986 q 196 889 204 917 z "},"″":{"ha":486,"x_min":92,"x_max":422,"o":"m 196 889 l 117 656 l 92 656 l 92 889 q 156 986 92 986 q 204 936 204 986 q 196 889 204 917 m 414 889 l 335 656 l 310 656 l 310 889 q 374 986 310 986 q 422 936 422 986 q 414 889 422 917 z "},"|":{"ha":406,"x_min":181,"x_max":225,"o":"m 181 -94 l 181 1067 l 225 1067 l 225 -94 l 181 -94 z "},"¦":{"ha":403,"x_min":181,"x_max":222,"o":"m 181 606 l 181 1067 l 222 1067 l 222 606 l 181 606 m 222 367 l 222 -94 l 181 -94 l 181 367 l 222 367 z "},"†":{"ha":656,"x_min":63,"x_max":593,"o":"m 315 -65 l 281 568 l 314 718 l 63 685 l 63 779 l 314 746 l 281 1014 l 375 1014 l 342 746 l 593 779 l 593 685 l 342 718 l 375 568 l 340 -65 l 315 -65 z "},"ℓ":{"ha":593,"x_min":31,"x_max":535,"o":"m 535 74 q 446 3 489 25 q 354 -19 403 -19 q 215 44 264 -19 q 165 225 165 108 l 165 390 q 101 369 133 378 q 36 353 68 360 l 31 378 q 101 399 68 388 q 165 422 135 410 l 165 733 q 209 922 165 853 q 329 992 253 992 q 446 929 400 992 q 492 768 492 867 q 460 622 492 688 q 373 506 428 556 q 251 419 318 456 l 251 231 q 284 83 251 135 q 379 32 317 32 q 518 93 439 32 l 535 74 m 251 758 l 251 454 q 361 583 322 504 q 400 789 400 663 q 329 958 400 958 q 251 758 251 958 z "},"‡":{"ha":656,"x_min":63,"x_max":593,"o":"m 63 244 l 314 244 l 281 482 l 314 718 l 63 685 l 63 779 l 314 746 l 281 1014 l 375 1014 l 342 746 l 593 779 l 593 685 l 342 718 l 375 482 l 342 244 l 593 244 l 593 150 l 342 217 l 375 -50 l 281 -50 l 314 217 l 63 150 l 63 244 z "},"℮":{"ha":1346,"x_min":111,"x_max":1235,"o":"m 672 992 q 891 952 789 992 q 1070 843 993 913 q 1191 682 1147 774 q 1235 486 1235 590 l 1235 474 l 332 474 q 317 457 317 474 l 317 210 q 324 173 317 192 q 346 140 332 154 q 497 43 411 76 q 672 10 583 10 q 870 54 775 10 q 1033 176 965 99 l 1117 176 q 919 32 1036 83 q 672 -19 803 -19 q 455 20 557 -19 q 276 129 353 60 q 155 290 199 199 q 111 486 111 382 q 155 682 111 590 q 276 843 199 774 q 455 952 353 913 q 672 992 557 992 m 672 963 q 498 929 583 963 q 346 832 413 896 q 317 763 317 803 l 317 514 q 332 500 317 500 l 1014 500 q 1029 514 1029 500 l 1029 763 q 1000 832 1029 803 q 849 929 933 896 q 672 963 764 963 z "},"€":{"ha":1008,"x_min":28,"x_max":911,"o":"m 28 400 l 28 433 l 139 433 q 136 486 136 460 q 139 547 136 517 l 28 547 l 28 581 l 144 581 q 231 794 164 701 q 398 939 297 886 q 619 992 499 992 q 713 985 661 992 q 815 968 764 979 q 903 940 865 957 l 896 863 l 888 863 q 767 933 836 908 q 619 958 697 958 q 440 913 518 958 q 312 782 361 867 q 247 581 263 697 l 744 581 l 744 547 l 244 547 q 242 486 242 518 q 243 433 242 458 l 744 433 l 744 400 l 246 400 q 310 194 260 281 q 439 61 360 108 q 619 14 518 14 q 778 44 706 14 q 903 119 851 75 l 911 119 l 903 35 q 813 6 864 18 q 712 -13 763 -7 q 619 -19 661 -19 q 396 35 497 -19 q 228 183 294 89 q 143 400 161 278 l 28 400 z "},"¢":{"ha":776,"x_min":97,"x_max":693,"o":"m 433 -136 l 433 -18 q 260 38 336 -10 q 141 163 185 86 q 97 336 97 240 q 141 509 97 432 q 260 634 185 586 q 433 690 336 682 l 433 808 l 469 808 l 469 692 q 577 680 522 692 q 686 646 632 668 l 681 578 l 674 578 q 582 637 633 615 q 469 658 531 658 l 469 14 q 587 35 532 14 q 686 96 642 57 l 693 96 l 686 22 q 585 -8 649 4 q 469 -19 522 -19 l 469 -136 l 433 -136 m 194 336 q 259 114 194 200 q 433 15 324 28 l 433 657 q 260 558 325 644 q 194 336 194 472 z "},"¤":{"ha":808,"x_min":107,"x_max":701,"o":"m 132 450 q 148 549 132 504 q 193 631 164 594 l 107 717 l 138 747 l 224 661 q 305 706 260 690 q 404 722 350 722 q 503 706 458 722 q 585 661 549 690 l 671 747 l 701 717 l 615 631 q 660 549 644 594 q 676 450 676 504 q 660 351 676 396 q 615 269 644 306 l 701 183 l 671 153 l 585 239 q 503 194 549 210 q 404 178 458 178 q 305 194 350 178 q 224 239 260 210 l 138 153 l 107 183 l 193 269 q 148 351 164 306 q 132 450 132 396 m 404 217 q 522 247 471 217 q 601 329 572 276 q 629 450 629 382 q 601 572 629 519 q 522 653 572 624 q 404 683 471 683 q 287 653 338 683 q 208 572 236 624 q 179 450 179 519 q 208 329 179 382 q 287 247 236 276 q 404 217 338 217 z "},"$":{"ha":713,"x_min":75,"x_max":640,"o":"m 75 31 l 83 114 l 92 114 q 208 43 142 69 q 338 14 274 17 l 338 468 q 216 545 272 506 q 124 635 160 585 q 89 757 89 685 q 158 921 89 857 q 342 990 228 985 l 342 1097 l 378 1097 l 378 992 q 492 978 432 990 q 585 950 551 967 l 578 874 l 569 874 q 483 935 532 914 q 378 958 433 957 l 378 560 q 504 481 444 522 q 602 382 564 439 q 640 243 640 325 q 567 60 640 132 q 374 -19 493 -12 l 374 -136 l 338 -136 l 338 -19 q 210 -4 282 -18 q 75 31 138 10 m 167 792 q 192 702 167 740 q 257 635 217 664 q 342 579 297 606 l 342 957 q 215 907 263 951 q 167 792 167 863 m 560 206 q 518 328 560 272 q 374 447 476 383 l 374 15 q 509 72 458 21 q 560 206 560 124 z "},"£":{"ha":757,"x_min":79,"x_max":676,"o":"m 79 0 l 79 25 q 217 240 174 151 q 261 400 261 328 q 254 454 261 428 l 88 454 l 88 488 l 243 488 q 211 558 232 517 q 168 662 181 618 q 156 747 156 706 q 230 925 156 858 q 424 992 304 992 q 499 986 458 992 q 577 972 540 981 q 638 950 614 963 l 631 874 l 622 874 q 529 938 579 918 q 424 958 479 958 q 286 913 339 958 q 233 790 233 867 q 248 717 233 756 q 297 608 263 678 q 342 488 332 539 l 560 488 l 560 454 l 346 454 q 347 429 347 442 q 331 329 347 378 q 274 223 314 281 q 164 83 235 165 l 676 83 l 676 0 l 79 0 z "},"₺":{"ha":803,"x_min":53,"x_max":728,"o":"m 190 0 l 190 483 l 53 446 l 53 481 l 190 518 l 190 631 l 53 593 l 53 628 l 190 665 l 190 972 l 285 972 l 285 686 l 554 760 l 554 725 l 285 651 l 285 539 l 554 613 l 554 578 l 285 504 l 285 33 l 332 33 q 555 129 474 33 q 636 392 636 225 l 728 392 q 624 103 728 207 q 336 0 519 0 l 190 0 z "},"¥":{"ha":857,"x_min":44,"x_max":821,"o":"m 142 217 l 142 250 l 389 250 l 389 364 l 142 364 l 142 397 l 389 397 l 389 411 l 44 972 l 150 972 l 460 464 l 468 464 l 715 972 l 821 972 l 489 431 l 489 397 l 703 397 l 703 364 l 489 364 l 489 250 l 703 250 l 703 217 l 489 217 l 489 0 l 389 0 l 389 217 l 142 217 z "},"∙":{"ha":367,"x_min":111,"x_max":256,"o":"m 111 503 q 132 555 111 535 q 183 575 153 575 q 235 555 215 575 q 256 503 256 535 q 235 451 256 472 q 183 431 215 431 q 132 451 153 431 q 111 503 111 472 z "},"∕":{"ha":200,"x_min":-194,"x_max":394,"o":"m -194 0 l 350 972 l 394 972 l -150 0 l -194 0 z "},"+":{"ha":808,"x_min":82,"x_max":726,"o":"m 82 435 l 82 476 l 382 476 l 382 772 l 426 772 l 426 476 l 726 476 l 726 435 l 426 435 l 426 128 l 382 128 l 382 435 l 82 435 z "},"−":{"ha":808,"x_min":82,"x_max":726,"o":"m 82 435 l 82 476 l 726 476 l 726 435 l 82 435 z "},"×":{"ha":808,"x_min":132,"x_max":676,"o":"m 161 178 l 132 207 l 375 450 l 132 693 l 161 722 l 404 479 l 647 722 l 676 693 l 433 450 l 676 207 l 647 178 l 404 421 l 161 178 z "},"÷":{"ha":808,"x_min":82,"x_max":726,"o":"m 344 678 q 361 721 344 704 q 404 738 378 738 q 447 721 431 738 q 464 678 464 704 q 447 635 464 651 q 404 618 431 618 q 361 635 378 618 q 344 678 344 651 m 82 435 l 82 476 l 726 476 l 726 435 l 82 435 m 344 233 q 361 276 344 260 q 404 293 378 293 q 447 276 431 293 q 464 233 464 260 q 447 190 464 207 q 404 174 431 174 q 361 190 378 174 q 344 233 344 207 z "},"=":{"ha":808,"x_min":82,"x_max":726,"o":"m 82 521 l 82 563 l 726 563 l 726 521 l 82 521 m 82 285 l 82 326 l 726 326 l 726 285 l 82 285 z "},"≠":{"ha":808,"x_min":82,"x_max":726,"o":"m 153 117 l 282 285 l 82 285 l 82 326 l 310 326 l 460 521 l 82 521 l 82 563 l 486 563 l 613 726 l 646 701 l 539 563 l 726 563 l 726 521 l 513 521 l 363 326 l 726 326 l 726 285 l 335 285 l 186 92 l 153 117 z "},">":{"ha":808,"x_min":82,"x_max":726,"o":"m 726 417 l 82 149 l 82 194 l 674 439 l 82 683 l 82 729 l 726 461 l 726 417 z "},"<":{"ha":808,"x_min":82,"x_max":726,"o":"m 82 417 l 82 461 l 726 729 l 726 683 l 135 439 l 726 194 l 726 149 l 82 417 z "},"≥":{"ha":808,"x_min":82,"x_max":726,"o":"m 726 417 l 82 149 l 82 194 l 674 439 l 82 683 l 82 729 l 726 461 l 726 417 m 726 0 l 82 0 l 82 42 l 726 42 l 726 0 z "},"≤":{"ha":808,"x_min":82,"x_max":726,"o":"m 82 0 l 82 42 l 726 42 l 726 0 l 82 0 m 82 417 l 82 461 l 726 729 l 726 683 l 135 439 l 726 194 l 726 149 l 82 417 z "},"±":{"ha":808,"x_min":82,"x_max":728,"o":"m 83 435 l 83 476 l 383 476 l 383 772 l 428 772 l 428 476 l 728 476 l 728 435 l 428 435 l 428 128 l 383 128 l 383 435 l 83 435 m 82 0 l 82 42 l 726 42 l 726 0 l 82 0 z "},"≈":{"ha":808,"x_min":68,"x_max":740,"o":"m 68 500 q 167 585 121 563 q 256 607 214 607 q 321 595 288 607 q 408 553 354 583 q 497 510 463 522 q 561 497 531 497 q 637 518 604 497 q 713 586 669 539 l 740 563 q 641 478 688 500 q 553 456 594 456 q 488 467 521 456 q 400 510 454 479 q 313 553 346 542 q 247 565 279 565 q 172 544 204 565 q 96 476 139 524 l 68 500 m 68 281 q 167 365 121 343 q 256 388 214 388 q 321 376 288 388 q 408 333 354 364 q 497 290 463 303 q 561 278 531 278 q 637 299 604 278 q 713 367 669 319 l 740 343 q 641 258 688 281 q 553 236 594 236 q 488 248 521 236 q 400 290 454 260 q 313 334 346 322 q 247 346 279 346 q 172 325 204 346 q 96 257 139 304 l 68 281 z "},"~":{"ha":808,"x_min":68,"x_max":740,"o":"m 68 422 q 167 507 121 485 q 256 529 214 529 q 321 517 288 529 q 408 475 354 506 q 497 432 463 444 q 561 419 531 419 q 637 440 604 419 q 713 508 669 461 l 740 485 q 641 400 688 422 q 553 378 594 378 q 488 390 521 378 q 400 432 454 401 q 313 476 346 464 q 247 488 279 488 q 172 467 204 488 q 96 399 139 446 l 68 422 z "},"¬":{"ha":808,"x_min":82,"x_max":726,"o":"m 82 435 l 82 476 l 726 476 l 726 156 l 682 156 l 682 435 l 82 435 z "},"^":{"ha":808,"x_min":99,"x_max":710,"o":"m 374 972 l 431 972 l 710 435 l 663 435 l 403 942 l 146 435 l 99 435 l 374 972 z "},"∞":{"ha":1094,"x_min":97,"x_max":997,"o":"m 308 224 q 156 287 214 224 q 97 451 97 350 q 156 617 97 554 q 308 679 214 679 q 431 635 379 679 q 549 490 483 592 q 665 637 611 594 q 786 679 718 679 q 939 617 881 679 q 997 451 997 554 q 939 287 997 350 q 786 224 881 224 q 663 267 715 224 q 546 413 611 311 q 430 266 483 308 q 308 224 376 224 m 786 640 q 680 600 726 640 q 572 456 633 560 q 653 338 618 379 q 719 279 688 296 q 786 263 750 263 q 905 315 860 263 q 950 451 950 367 q 905 589 950 538 q 786 640 860 640 m 308 263 q 415 303 368 263 q 522 447 463 343 q 442 565 476 524 q 376 624 407 607 q 308 640 344 640 q 190 589 235 640 q 144 451 144 538 q 190 315 144 367 q 308 263 235 263 z "},"∫":{"ha":556,"x_min":36,"x_max":519,"o":"m 231 31 l 231 903 q 276 1080 231 1021 q 406 1139 321 1139 q 458 1133 431 1139 q 519 1108 485 1126 l 513 1033 l 504 1033 q 451 1092 474 1078 q 406 1106 428 1106 q 344 1065 363 1106 q 325 942 325 1024 l 325 69 q 280 -108 325 -49 q 150 -167 235 -167 q 99 -160 125 -167 q 36 -136 72 -154 l 43 -61 l 51 -61 q 106 -119 83 -106 q 150 -133 128 -133 q 212 -92 193 -133 q 231 31 231 -51 z "},"∏":{"ha":1133,"x_min":181,"x_max":953,"o":"m 181 -201 l 181 972 l 953 972 l 953 -201 l 858 -201 l 858 939 l 275 939 l 275 -201 l 181 -201 z "},"∑":{"ha":797,"x_min":44,"x_max":728,"o":"m 44 -201 l 44 -174 l 410 371 l 63 944 l 63 972 l 708 972 l 708 901 l 274 938 q 169 944 190 944 l 485 421 l 124 -118 l 728 -118 l 728 -201 l 44 -201 z "},"√":{"ha":808,"x_min":69,"x_max":800,"o":"m 69 515 l 69 549 l 276 549 l 447 122 l 456 122 l 714 1163 l 800 1163 l 449 -19 l 418 -19 l 201 515 l 69 515 z "},"∂":{"ha":808,"x_min":86,"x_max":715,"o":"m 358 -19 q 159 57 232 -19 q 86 264 86 133 q 126 435 86 361 q 238 549 165 508 q 404 590 310 590 q 611 531 521 590 q 551 747 600 651 q 420 900 501 842 q 233 972 339 958 l 236 997 q 428 941 340 988 q 580 819 515 894 q 680 646 644 743 q 715 438 715 549 q 672 194 715 297 q 548 36 628 92 q 358 -19 468 -19 m 188 239 q 234 74 188 133 q 361 14 281 14 q 494 70 438 14 q 582 228 550 126 q 614 467 614 329 q 614 493 614 481 q 526 537 574 521 q 433 553 478 553 q 305 513 360 553 q 219 402 250 472 q 188 239 188 332 z "},"%":{"ha":1069,"x_min":61,"x_max":1008,"o":"m 61 732 q 117 915 61 846 q 264 985 174 985 q 410 915 354 985 q 467 732 467 846 q 410 549 467 618 q 264 479 354 479 q 117 549 174 479 q 61 732 61 618 m 240 0 l 785 972 l 829 972 l 285 0 l 240 0 m 142 732 q 174 566 142 625 q 264 507 207 507 q 353 566 321 507 q 386 732 386 625 q 353 898 386 839 q 264 957 321 957 q 174 899 206 957 q 142 732 142 840 m 603 239 q 659 422 603 353 q 806 492 715 492 q 952 422 896 492 q 1008 239 1008 353 q 952 56 1008 125 q 806 -14 896 -14 q 659 56 715 -14 q 603 239 603 125 m 683 239 q 716 73 683 132 q 806 14 749 14 q 895 73 863 14 q 928 239 928 132 q 895 405 928 346 q 806 464 863 464 q 716 405 749 464 q 683 239 683 346 z "},"‰":{"ha":1574,"x_min":61,"x_max":1513,"o":"m 61 732 q 117 915 61 846 q 264 985 174 985 q 410 915 354 985 q 467 732 467 846 q 410 549 467 618 q 264 479 354 479 q 117 549 174 479 q 61 732 61 618 m 240 0 l 785 972 l 829 972 l 285 0 l 240 0 m 142 732 q 174 566 142 625 q 264 507 207 507 q 353 566 321 507 q 386 732 386 625 q 353 898 386 839 q 264 957 321 957 q 174 898 207 957 q 142 732 142 839 m 603 239 q 659 422 603 353 q 806 492 715 492 q 952 422 896 492 q 1008 239 1008 353 q 952 56 1008 125 q 806 -14 896 -14 q 659 56 715 -14 q 603 239 603 125 m 1107 239 q 1163 422 1107 353 q 1310 492 1219 492 q 1456 422 1400 492 q 1513 239 1513 353 q 1456 56 1513 125 q 1310 -14 1400 -14 q 1163 56 1219 -14 q 1107 239 1107 125 m 683 239 q 716 73 683 132 q 806 14 749 14 q 895 73 863 14 q 928 239 928 132 q 895 405 928 346 q 806 464 863 464 q 716 405 749 464 q 683 239 683 346 m 1188 239 q 1220 73 1188 132 q 1310 14 1253 14 q 1399 73 1367 14 q 1432 239 1432 132 q 1399 405 1432 346 q 1310 464 1367 464 q 1220 405 1253 464 q 1188 239 1188 346 z "},"↑":{"ha":836,"x_min":69,"x_max":767,"o":"m 371 0 l 401 893 l 93 624 l 69 647 l 414 992 l 422 992 l 767 647 l 743 624 l 435 893 l 465 0 l 371 0 z "},"↗":{"ha":961,"x_min":89,"x_max":826,"o":"m 156 114 l 89 181 l 742 790 l 333 818 l 333 851 l 821 851 l 826 846 l 826 358 l 793 358 l 765 767 l 156 114 z "},"→":{"ha":1200,"x_min":125,"x_max":1117,"o":"m 125 529 l 1018 503 l 749 811 l 772 835 l 1117 490 l 1117 482 l 772 138 l 749 161 l 1018 469 l 125 443 l 125 529 z "},"↘":{"ha":961,"x_min":89,"x_max":826,"o":"m 156 868 l 765 215 l 793 624 l 826 624 l 826 136 l 821 131 l 333 131 l 333 164 l 742 190 l 89 801 l 156 868 z "},"↓":{"ha":836,"x_min":69,"x_max":767,"o":"m 743 349 l 767 325 l 422 -19 l 414 -19 l 69 325 l 93 349 l 401 79 l 371 972 l 465 972 l 435 79 l 743 349 z "},"↙":{"ha":961,"x_min":136,"x_max":874,"o":"m 169 624 l 196 215 l 807 868 l 874 801 l 221 190 l 629 164 l 629 131 l 142 131 l 136 136 l 136 624 l 169 624 z "},"←":{"ha":1200,"x_min":83,"x_max":1075,"o":"m 451 811 l 182 503 l 1075 529 l 1075 443 l 182 469 l 451 161 l 428 138 l 83 482 l 83 490 l 428 835 l 451 811 z "},"↖":{"ha":961,"x_min":136,"x_max":874,"o":"m 169 358 l 136 358 l 136 846 l 142 851 l 629 851 l 629 818 l 221 790 l 874 181 l 807 114 l 196 767 l 169 358 z "},"◊":{"ha":796,"x_min":81,"x_max":715,"o":"m 372 0 l 81 486 l 372 972 l 424 972 l 715 486 l 424 0 l 372 0 m 132 486 l 399 43 l 664 486 l 399 929 l 132 486 z "},"̈":{"ha":0,"x_min":97,"x_max":508,"o":"m 383 1174 q 401 1219 383 1201 q 446 1236 419 1236 q 491 1219 474 1236 q 508 1174 508 1201 q 491 1129 508 1147 q 446 1111 474 1111 q 401 1129 419 1111 q 383 1174 383 1147 m 97 1174 q 115 1219 97 1201 q 160 1236 133 1236 q 205 1219 188 1236 q 222 1174 222 1201 q 205 1129 222 1147 q 160 1111 188 1111 q 115 1129 133 1111 q 97 1174 97 1147 z "},"̇":{"ha":0,"x_min":97,"x_max":231,"o":"m 97 1174 q 116 1222 97 1203 q 164 1240 135 1240 q 212 1222 193 1240 q 231 1174 231 1203 q 212 1126 231 1144 q 164 1107 193 1107 q 116 1126 135 1107 q 97 1174 97 1144 z "},"̀":{"ha":0,"x_min":25,"x_max":285,"o":"m 285 1076 l 267 1060 l 25 1238 l 25 1246 l 150 1246 l 285 1076 z "},"́":{"ha":0,"x_min":42,"x_max":301,"o":"m 42 1076 l 176 1246 l 301 1246 l 301 1238 l 60 1060 l 42 1076 z "},"̋":{"ha":0,"x_min":42,"x_max":496,"o":"m 42 1063 l 161 1235 l 274 1235 l 274 1226 l 60 1046 l 42 1063 m 264 1063 l 383 1235 l 496 1235 l 496 1226 l 282 1046 l 264 1063 z "},"̂":{"ha":0,"x_min":97,"x_max":469,"o":"m 301 1257 l 469 1076 l 451 1060 l 283 1171 l 115 1060 l 97 1076 l 265 1257 l 301 1257 z "},"̌":{"ha":0,"x_min":97,"x_max":469,"o":"m 265 1078 l 97 1258 l 115 1275 l 283 1164 l 451 1275 l 469 1258 l 301 1078 l 265 1078 z "},"̆":{"ha":0,"x_min":97,"x_max":456,"o":"m 276 1079 q 163 1126 210 1079 q 97 1258 117 1174 l 121 1267 q 190 1183 156 1207 q 276 1160 225 1160 q 363 1183 329 1160 q 432 1267 397 1207 l 456 1258 q 390 1126 438 1174 q 276 1079 343 1079 z "},"̊":{"ha":0,"x_min":83,"x_max":344,"o":"m 83 1161 q 120 1249 83 1214 q 214 1283 157 1283 q 308 1249 271 1283 q 344 1161 344 1214 q 308 1074 344 1108 q 214 1039 271 1039 q 120 1074 157 1039 q 83 1161 83 1108 m 214 1258 q 166 1231 185 1258 q 147 1161 147 1204 q 166 1091 147 1118 q 214 1064 185 1064 q 261 1091 242 1064 q 281 1161 281 1118 q 261 1231 281 1204 q 214 1258 242 1258 z "},"̃":{"ha":0,"x_min":58,"x_max":503,"o":"m 294 1213 q 338 1187 315 1199 q 386 1175 361 1175 q 431 1189 408 1175 q 482 1242 453 1203 l 503 1228 q 436 1128 467 1156 q 367 1100 406 1100 q 314 1112 338 1100 q 267 1138 290 1124 q 223 1163 246 1151 q 175 1175 200 1175 q 131 1162 153 1175 q 79 1108 108 1149 l 58 1122 q 125 1222 94 1194 q 194 1250 156 1250 q 248 1239 224 1250 q 294 1213 272 1228 z "},"̄":{"ha":0,"x_min":69,"x_max":442,"o":"m 69 1138 l 69 1193 l 442 1193 l 442 1138 l 69 1138 z "},"̦":{"ha":0,"x_min":99,"x_max":233,"o":"m 99 -139 q 117 -93 99 -111 q 165 -75 136 -75 q 233 -172 233 -75 q 208 -268 233 -225 q 122 -356 183 -311 l 107 -336 q 175 -260 158 -294 q 192 -182 192 -226 q 156 -199 179 -199 q 114 -181 129 -199 q 99 -139 99 -164 z "},"̧":{"ha":0,"x_min":71,"x_max":307,"o":"m 132 -106 l 176 6 l 207 6 l 176 -72 q 307 -189 307 -97 q 271 -274 307 -242 q 174 -306 235 -306 q 131 -301 153 -306 q 71 -283 110 -296 l 78 -260 q 146 -272 115 -272 q 203 -252 182 -272 q 224 -197 224 -232 q 132 -106 224 -122 z "},"̨":{"ha":0,"x_min":97,"x_max":324,"o":"m 324 -247 q 210 -306 271 -306 q 128 -273 158 -306 q 97 -187 97 -240 q 131 -87 97 -135 q 242 14 165 -40 l 254 14 l 257 0 q 181 -164 181 -89 q 198 -226 181 -203 q 246 -250 215 -250 q 308 -228 278 -250 l 324 -247 z "},"¨":{"ha":606,"x_min":97,"x_max":508,"o":"m 383 1174 q 401 1219 383 1201 q 446 1236 419 1236 q 491 1219 474 1236 q 508 1174 508 1201 q 491 1129 508 1147 q 446 1111 474 1111 q 401 1129 419 1111 q 383 1174 383 1147 m 97 1174 q 115 1219 97 1201 q 160 1236 133 1236 q 205 1219 188 1236 q 222 1174 222 1201 q 205 1129 222 1147 q 160 1111 188 1111 q 115 1129 133 1111 q 97 1174 97 1147 z "},"˙":{"ha":328,"x_min":97,"x_max":231,"o":"m 97 1174 q 116 1222 97 1203 q 164 1240 135 1240 q 212 1222 193 1240 q 231 1174 231 1203 q 212 1126 231 1144 q 164 1107 193 1107 q 116 1126 135 1107 q 97 1174 97 1144 z "},"`":{"ha":396,"x_min":25,"x_max":285,"o":"m 285 1076 l 267 1060 l 25 1238 l 25 1246 l 150 1246 l 285 1076 z "},"´":{"ha":343,"x_min":42,"x_max":301,"o":"m 42 1076 l 176 1246 l 301 1246 l 301 1238 l 60 1060 l 42 1076 z "},"˝":{"ha":590,"x_min":42,"x_max":496,"o":"m 42 1063 l 161 1235 l 274 1235 l 274 1226 l 60 1046 l 42 1063 m 264 1063 l 383 1235 l 496 1235 l 496 1226 l 282 1046 l 264 1063 z "},"ˆ":{"ha":567,"x_min":97,"x_max":469,"o":"m 301 1257 l 469 1076 l 451 1060 l 283 1171 l 115 1060 l 97 1076 l 265 1257 l 301 1257 z "},"ˇ":{"ha":567,"x_min":97,"x_max":469,"o":"m 265 1078 l 97 1258 l 115 1275 l 283 1164 l 451 1275 l 469 1258 l 301 1078 l 265 1078 z "},"˘":{"ha":553,"x_min":97,"x_max":456,"o":"m 276 1079 q 163 1126 210 1079 q 97 1258 117 1174 l 121 1267 q 190 1183 156 1207 q 276 1160 225 1160 q 363 1183 329 1160 q 432 1267 397 1207 l 456 1258 q 390 1126 438 1174 q 276 1079 343 1079 z "},"˚":{"ha":428,"x_min":83,"x_max":344,"o":"m 83 1161 q 120 1249 83 1214 q 214 1283 157 1283 q 308 1249 271 1283 q 344 1161 344 1214 q 308 1074 344 1108 q 214 1039 271 1039 q 120 1074 157 1039 q 83 1161 83 1108 m 214 1258 q 166 1231 185 1258 q 147 1161 147 1204 q 166 1091 147 1118 q 214 1064 185 1064 q 261 1091 242 1064 q 281 1161 281 1118 q 261 1231 281 1204 q 214 1258 242 1258 z "},"˜":{"ha":561,"x_min":58,"x_max":503,"o":"m 294 1213 q 338 1187 315 1199 q 386 1175 361 1175 q 431 1189 408 1175 q 482 1242 453 1203 l 503 1228 q 436 1128 467 1156 q 367 1100 406 1100 q 314 1112 338 1100 q 267 1138 290 1124 q 223 1163 246 1151 q 175 1175 200 1175 q 131 1162 153 1175 q 79 1108 108 1149 l 58 1122 q 125 1222 94 1194 q 194 1250 156 1250 q 248 1239 224 1250 q 294 1213 272 1228 z "},"¯":{"ha":511,"x_min":69,"x_max":442,"o":"m 69 1138 l 69 1193 l 442 1193 l 442 1138 l 69 1138 z "},"¸":{"ha":396,"x_min":71,"x_max":307,"o":"m 132 -106 l 176 6 l 207 6 l 176 -72 q 307 -189 307 -97 q 271 -274 307 -242 q 174 -306 235 -306 q 131 -301 153 -306 q 71 -283 110 -296 l 78 -260 q 146 -272 115 -272 q 203 -252 182 -272 q 224 -197 224 -232 q 132 -106 224 -122 z "},"˛":{"ha":368,"x_min":97,"x_max":324,"o":"m 324 -247 q 210 -306 271 -306 q 128 -273 158 -306 q 97 -187 97 -240 q 131 -87 97 -135 q 242 14 165 -40 l 254 14 l 257 0 q 181 -164 181 -89 q 198 -226 181 -203 q 246 -250 215 -250 q 308 -228 278 -250 l 324 -247 z "}}}
